<?xml version="1.0" encoding="UTF-8"?>
<svg xmlns="http://www.w3.org/2000/svg" width="164" height="28" viewBox="0 0 164 28" fill="none">
  <g id="Group 681">
    <g id="Group 86">
      <path id="Vector" d="M15.233 0C11.7644 0 7.63988 0.65168 4.96831 2.69997C2.90594 4.32917 7.1242 6.33083 10.9209 4.56193C11.8583 4.14302 13.1706 3.77056 14.483 3.77056C20.295 3.72411 22.2165 6.19131 22.4041 10.2411C19.92 10.2411 17.2015 10.2411 13.7799 10.3808C4.54652 10.5669 0 13.36 0 18.9927C0 23.9271 4.82765 27.5579 11.5301 27.5579C18.9827 27.5579 26.3413 26.1615 26.3413 26.1615C28.4504 24.0668 28.1223 9.21711 28.1223 9.21711C28.1223 2.65317 22.4509 0 15.233 0ZM12.7954 23.5548C8.10844 23.5548 5.99931 20.9943 5.99931 18.853C5.99931 15.7341 9.13962 14.8961 14.5297 14.6635C17.8575 14.5238 20.3886 14.5238 22.357 14.5238C22.1696 19.9702 23.9507 23.5548 12.7954 23.5548ZM37.3089 16.4324V0.279392H31.3563V20.7151C31.3563 26.627 37.3089 26.627 37.3089 26.627H51.8857V22.3443H43.2147C37.3089 22.2977 37.3089 22.2977 37.3089 16.4324ZM46.0737 4.60856H51.8388C56.1977 4.60856 56.1977 4.60856 56.1977 8.79803V26.5804H62.1502V8.7982C62.1502 4.60856 62.1502 4.60856 66.4156 4.60856H72.2275V0.279392H46.0737V4.60856ZM102.459 8.19297C102.459 2.97918 98.1001 0.279216 92.2412 0.279216H75.9772V26.5804H81.9298V16.1996H89.1477C94.538 16.2462 96.4595 17.4101 96.4595 22.4374V26.627H102.506V21.7857C102.506 17.9685 101.709 15.5944 98.4751 14.6169C100.912 13.2204 102.459 10.8929 102.459 8.19297ZM90.0384 12.1498H81.9298V4.60838H90.2726C93.4131 4.60838 96.4125 4.93422 96.4125 8.09972C96.4125 11.265 93.5068 12.1498 90.0384 12.1498ZM150.83 0H150.783C143.236 0 137.565 3.72411 137.612 11.3583V26.627H143.189V11.3583C143.189 7.07576 145.814 4.46886 150.783 4.46886C155.798 4.46886 158.422 7.1222 158.422 11.3583V26.627H164V11.3583C164 3.77056 158.376 0 150.83 0ZM120.832 0C117.364 0 113.239 0.65168 110.568 2.69997C108.458 4.32917 112.723 6.33083 116.473 4.60856C117.411 4.18965 118.723 3.81718 120.035 3.81718C125.847 3.77056 127.769 6.23776 127.956 10.2877C125.473 10.2877 122.754 10.2877 119.332 10.4274C110.099 10.6602 105.553 13.4532 105.553 19.0857C105.553 24.0201 110.38 27.6512 117.083 27.6512C124.535 27.6512 131.894 26.2546 131.894 26.2546C134.003 24.1598 133.675 9.31018 133.675 9.31018C133.722 2.65317 128.05 0 120.832 0ZM118.395 23.5548C113.708 23.5548 111.599 20.9943 111.599 18.853C111.599 15.7341 114.739 14.8961 120.129 14.6635C123.41 14.5238 125.988 14.5238 127.956 14.5238C127.722 19.9702 129.55 23.5548 118.395 23.5548Z" fill="#007EAF"></path>
    </g>
  </g>
</svg>
