<svg width="121" height="76" viewBox="0 0 121 76" fill="none" xmlns="http://www.w3.org/2000/svg">
<path d="M66.192 19.5537L52.055 0L52.037 0.0122381V0H42.4885V36.0229H52.037V16.8119L65.9284 36.0229H66.192H74.7161H75.7404V0H66.192V19.5537Z" fill="#F4B737"/>
<path d="M103.717 0H94.8705H92.9683L77.5878 36.0229H88.3367L99.2969 10.3613L110.251 36.0229H121L105.619 0H103.717Z" fill="#F4B737"/>
<path d="M117.305 7.38931C119.34 7.38931 121 5.72968 121 3.69466C121 1.65963 119.34 0 117.305 0C115.27 0 113.611 1.65963 113.611 3.69466C113.611 5.72968 115.27 7.38931 117.305 7.38931ZM117.305 0.658584C118.978 0.658584 120.341 2.02185 120.341 3.69466C120.341 5.36746 118.978 6.73073 117.305 6.73073C115.633 6.73073 114.269 5.36746 114.269 3.69466C114.269 2.02185 115.633 0.658584 117.305 0.658584Z" fill="#F4B737"/>
<path d="M116.548 4.10462H117.067C117.561 4.12006 117.794 4.31045 117.919 4.81988C118.038 5.27785 118.133 5.59174 118.205 5.69466H118.771C118.682 5.55572 118.58 5.20066 118.443 4.68609C118.342 4.3053 118.145 4.04287 117.818 3.9451V3.92966C118.264 3.80102 118.616 3.47683 118.616 2.99313C118.616 2.71012 118.497 2.45797 118.282 2.29846C118.02 2.09262 117.639 2 117.055 2C116.679 2 116.28 2.02573 116 2.07719V5.69466H116.548V4.10462ZM116.548 2.40652C116.638 2.38593 116.822 2.36535 117.091 2.36535C117.669 2.37049 118.068 2.57633 118.068 3.04974C118.068 3.46654 117.698 3.74441 117.108 3.74441H116.548V2.40652Z" fill="#F4B737"/>
<path d="M28.1619 0.648729C26.7053 0.281523 23.7737 0 22.1999 0H0V18.0114V36.0229H22.1999C23.7737 36.0229 26.7053 35.7414 28.1619 35.3742C36.0309 33.3913 40.5116 26.3899 40.6412 18.0114C40.5054 9.63304 36.0309 2.63164 28.1619 0.648729ZM29.9085 20.0556C29.5937 21.3959 29.0259 22.6382 28.2421 23.7276C27.088 25.3494 25.1685 26.2675 23.1689 26.2675H9.83783V18.0114V9.75543H23.1689C25.1685 9.75543 27.088 10.6734 28.2421 12.2953C28.9642 13.299 29.5073 14.4373 29.8344 15.6613C30.1739 16.9955 30.1492 18.4827 29.9085 20.0556Z" fill="#F4B737"/>
<path d="M2.83257 65.5866C2.70455 65.5553 2.59252 65.5553 2.4645 65.5553L2.38448 65.5082L2.32047 65.5396C2.30446 65.6336 2.25645 65.6493 2.12843 65.6493C2.08042 65.6493 2.01641 65.6493 1.90438 65.6336L1.84037 65.6807L1.71235 65.665C1.60032 65.7434 1.42429 65.7904 1.20024 65.8218L1.10422 65.7904L0.9922 65.8688C0.752152 65.9315 0.512103 65.9785 0.272055 66.0569C0.224045 66.0883 0.192039 66.1039 0.144029 66.1039C0.0800161 66.1039 0.0160032 66.0412 0.0160032 65.9001L0 65.7277C0.0320065 65.6807 0.0640129 65.6336 0.0800161 65.6023C0.0800161 65.5553 0.0640129 65.5396 0.0640129 65.5396C0.0640129 65.4926 0.112023 65.4612 0.176035 65.4142L0.144029 65.2888L0.256052 64.8341C0.336068 64.7558 0.368074 64.646 0.416084 64.4893C0.54411 64.3011 0.720145 64.2384 0.9922 64.2384L1.18424 64.1601L1.93639 64.0817H1.9844C2.04841 64.0817 2.09642 64.0974 2.14443 64.1444C2.25645 64.066 2.38448 64.0346 2.56052 64.0346L3.4887 63.9876C3.66474 64.0033 3.79276 64.0033 3.85678 64.0346C3.92079 64.019 3.9688 64.0033 4.01681 64.0033C4.03281 64.0033 4.08082 64.0346 4.16084 64.0817L4.35288 64.0503C4.4809 64.066 4.60893 64.0974 4.73695 64.1287H4.88098C5.02501 64.1287 5.15304 64.1444 5.26506 64.1757C5.34508 64.2384 5.42509 64.2855 5.4571 64.2855C5.48911 64.2855 5.50511 64.2541 5.55312 64.2228C5.58513 64.2071 5.63314 64.2071 5.64914 64.2071C5.84118 64.2071 5.90519 64.4109 5.90519 64.8341L5.84118 65.0223C5.85718 65.1947 5.87318 65.3358 5.87318 65.4455C5.87318 65.5396 5.82517 65.5866 5.72915 65.5866C5.69715 65.5866 5.64914 65.5709 5.60113 65.5553C5.32907 65.4926 5.02501 65.4769 4.67294 65.4612C4.60893 65.4455 4.54492 65.4142 4.49691 65.3515C4.43289 65.4142 4.38488 65.4455 4.27286 65.4612C4.11283 65.4455 3.90479 65.4455 3.66474 65.4455L3.63273 65.4926L3.50471 65.5396L3.74475 65.618L3.88878 65.7904L4.09683 65.9001C4.11283 66.1196 4.16084 66.2921 4.30487 66.4488V66.5899C4.30487 66.7937 4.27286 66.9661 4.22485 67.1229L4.17684 67.2326L4.20885 67.4835L4.03281 68.1262L3.9528 68.2359L4.00081 68.377L3.80877 69.0198L3.84077 69.0668L3.58472 70.0858V70.1641L3.42469 70.6031C3.44069 70.6815 3.44069 70.7285 3.44069 70.7442C3.44069 70.8226 3.40869 70.8853 3.36068 70.9793L3.39268 71.0264C3.31267 71.7631 3.24865 72.3118 3.15264 72.6724C3.07262 72.7508 3.02461 72.8291 3.02461 72.9075C3.02461 72.9389 3.05662 73.0173 3.08862 73.1427C3.00861 73.613 2.9606 74.0833 2.9606 74.5692L2.92859 74.6476L2.9766 74.7574C2.9926 74.8514 2.9926 74.9141 2.9926 74.9768C2.9926 75.1649 2.94459 75.259 2.75255 75.4001L2.64053 75.3844L2.54451 75.5412L2.4805 75.5725L2.38448 75.5412L2.28846 75.5725C2.19244 75.5098 2.09642 75.4471 2.04841 75.3531L2.01641 75.1022L2.11243 74.8984C2.04841 74.773 2.01641 74.6633 2.01641 74.5222C1.9684 74.4125 1.95239 74.3341 1.95239 74.24L1.9684 73.8481L2.01641 73.7384C2.0004 73.6914 1.9844 73.6443 1.9844 73.613C1.9844 73.5973 1.9844 73.5503 2.0004 73.5032L1.93639 73.3465L1.95239 72.9232C2.0004 72.8135 2.01641 72.7351 2.01641 72.6881C2.01641 72.6567 2.01641 72.5783 1.9844 72.4686L2.0004 71.9826C2.04841 71.8415 2.06442 71.6691 2.06442 71.4653C2.06442 71.3556 2.04841 71.2458 2.04841 71.1361L2.12843 70.8539V70.5561L2.17644 70.1641C2.22445 70.1014 2.24045 70.0544 2.24045 69.976C2.24045 69.929 2.24045 69.882 2.22445 69.8193C2.28846 69.1295 2.28846 68.6592 2.38448 68.4241L2.40048 68.3457V68.2046L2.4645 67.9381C2.52851 67.844 2.57652 67.7813 2.57652 67.7186C2.57652 67.7029 2.56052 67.6559 2.52851 67.5932L2.51251 67.3737L2.67254 66.4802C2.73655 66.4018 2.76856 66.3391 2.76856 66.2764C2.76856 66.2294 2.75255 66.151 2.72055 66.0726L2.83257 65.5866ZM7.23873 69.6625L7.63881 69.2236L7.68682 69.1609L7.92687 68.816L8.24693 68.3927L8.67902 67.8127L8.79104 67.7343L8.80704 67.6246L8.90306 67.4835L9.12711 67.217L9.17512 67.0759L9.28714 66.9505C10.0713 65.4926 10.4714 64.6617 10.4714 64.4579C10.4714 64.3482 10.4234 64.3011 10.3434 64.3011C10.1833 64.3011 9.81525 64.7714 9.20712 65.6964L8.67902 66.4175L8.66301 66.4959L8.53499 66.6369V66.7153L8.05489 67.2326L8.1029 67.4991L8.05489 67.6089L7.99088 67.6559L7.95887 67.7813L7.5908 68.6122L7.54279 68.6906L7.51078 68.91L7.23873 69.6625ZM5.52638 72.2334L5.44637 72.3432L5.35035 72.4686L5.20632 72.5156C4.51818 72.8919 4.31014 73.2054 4.07009 73.2054C3.97407 73.2054 3.91006 73.1427 3.91006 73.0486C3.91006 72.9389 3.97407 72.8605 4.1181 72.7821V72.641C4.48617 72.2805 4.53418 72.061 4.67821 72.061H4.71022L4.83824 71.8572L4.99828 71.7631L5.06229 71.6221L5.23832 71.5123L5.31834 71.4496L5.44637 71.3399L5.6224 71.1674L5.71842 70.8069L5.86245 70.415L5.79844 70.3209C5.91046 69.9133 6.07049 69.4587 6.23052 68.9571L6.31054 68.8787V68.7219C7.76683 65.0379 9.94327 63.0627 10.5994 63L10.8555 63.0157L10.8715 63C11.2075 63.1097 11.3676 63.2038 11.3676 63.58C11.3676 63.7525 11.3196 63.9719 11.2235 64.2384L11.1275 64.3639L11.1595 64.5049L10.9995 65.0223L10.9035 65.132L10.6474 65.8218L10.6154 65.9472L10.4714 66.2294C10.3434 66.2921 10.3274 66.4018 10.3113 66.6056L10.0873 66.8094L10.0233 67.0132C9.63921 67.6716 9.38316 68.0792 9.22313 68.2203L9.04709 68.377L9.01509 68.5338C8.67902 68.9257 8.34295 69.3803 7.97488 69.8663L7.63881 70.2269L7.6068 70.3052L6.93467 71.1361V71.1988C6.80664 71.8102 6.77463 72.3118 6.71062 72.7037L6.63061 72.7821L6.67861 72.8919L6.69462 73.127C6.69462 73.2211 6.72662 73.2681 6.82264 73.2681C6.88666 73.2681 6.95067 73.1113 7.1267 72.9232L7.49478 72.2805L7.76683 71.7788L7.81484 71.7161L7.94287 71.4339L8.07089 71.3556V71.1831L8.27894 70.8696C8.34295 70.5404 8.71102 70.2269 8.95107 70.2269H8.96708L9.1111 70.1641C9.15911 70.1485 9.20712 70.1485 9.23913 70.1485C9.51119 70.1485 9.46318 70.415 9.5592 70.8696C9.73523 71.6534 10.0873 72.0453 10.4714 72.0453C10.5834 72.0453 10.6634 71.9826 10.7594 71.8572L10.8875 71.8729L10.9035 71.7788L11.2875 71.481C11.4156 71.4183 11.5116 71.3869 11.6076 71.3712C11.6876 71.2301 11.7836 71.1518 11.9437 71.1204L12.0877 70.995C12.1677 70.948 12.2157 70.9323 12.2957 70.9323C12.3918 70.9323 12.4558 70.995 12.4558 71.0891C12.4558 71.1518 12.4238 71.2145 12.3758 71.2772L12.3598 71.3712C12.2317 71.5437 12.0717 71.6848 11.9117 71.8259C11.8957 71.9983 11.8317 72.061 11.6556 72.0767C11.5756 72.2648 11.4476 72.3902 11.2395 72.5156L10.9355 72.7821L10.7594 72.9075C10.6634 73.1113 10.3273 73.2524 10.0873 73.2524C10.0233 73.2524 9.94327 73.2367 9.86326 73.2211L9.68722 73.2681C9.27114 73.2367 8.95107 73.0329 8.67902 72.5626L8.51899 72.3589L8.35895 72.4372L7.99088 72.9232L7.83085 73.0016L7.73483 73.2524L7.0947 74.1303L6.80664 74.3654L6.69462 74.5222C6.56659 74.6006 6.43857 74.6476 6.27853 74.6476H6.21452L6.00648 74.6319C5.47837 74.5536 5.46237 74.0206 5.46237 72.9232C5.46237 72.7821 5.47837 72.641 5.49438 72.4686L5.52638 72.2334ZM11.7192 72.1551C11.4472 72.2334 11.4472 72.5313 11.3352 72.5313C11.2711 72.5313 11.2551 72.4686 11.2071 72.4686C11.1751 72.4686 11.1431 72.4999 11.0951 72.547L10.9991 72.6567C10.8391 72.7978 10.695 72.7664 10.631 72.8919L10.503 72.9702L10.391 73.08L10.2629 73.174C10.1989 73.2054 10.1349 73.2211 10.0869 73.2211C10.0549 73.2211 10.0229 73.2211 9.97489 73.2054L9.94288 73.127C9.94288 72.9546 9.99089 72.8605 10.1029 72.8135L10.0869 72.641C10.2149 72.5313 10.343 72.4059 10.471 72.2805L10.519 72.108H10.583C10.679 72.108 10.727 72.0767 10.7751 71.9826L10.8551 71.8415L11.0951 71.7475C11.1751 71.6064 11.2711 71.481 11.3992 71.3869C11.5912 71.2301 11.7352 71.1204 11.8633 71.042L11.9593 71.0107C12.0073 70.8853 12.1193 70.7755 12.2794 70.6344L12.5354 70.4306C12.7274 70.2112 12.8875 70.0544 12.9675 69.976L13.1115 69.9447V69.8349L13.6876 69.4117L13.8957 69.2863C13.9437 69.2236 14.0077 69.1765 14.0877 69.1452L14.2157 69.0041L14.3118 68.9414C14.4078 68.8003 14.5198 68.7219 14.6798 68.6592L14.7599 68.6279L14.8239 68.5181C15.1119 68.2986 15.368 68.1419 15.576 68.0008L15.7841 67.8754C15.8961 67.8127 15.9761 67.7813 16.0401 67.7813C16.1361 67.7813 16.1841 67.7029 16.2482 67.7029C16.2962 67.7029 16.3762 67.7186 16.4562 67.7186C16.6482 67.7186 16.8243 67.8754 16.8243 67.9224C16.8243 67.9381 16.8083 67.9538 16.7923 68.0008C16.8243 68.0321 16.8563 68.0321 16.8563 68.0635C16.8563 68.1262 16.6962 68.4711 16.1841 68.7376L16.0721 68.863C16.0721 68.9571 15.8321 69.1138 15.416 69.4744L15.288 69.5528L15.1759 69.6939L15.0319 69.8193L14.8719 69.9917L14.7278 70.0701L14.6798 70.1641L14.4558 70.3836L14.2958 70.5561L14.1357 70.6188C14.0077 70.7912 13.8317 71.0107 13.5916 71.2772L13.3196 71.5123L13.0795 71.7475C13.0475 71.8572 12.9995 71.9199 12.9195 71.9983L12.8235 72.2805C12.8555 72.2961 12.8875 72.2961 12.8875 72.2961C12.9195 72.2961 12.9675 72.2805 13.0155 72.2648L13.1915 72.1394L13.3516 72.0924L13.4476 72.014L13.5916 71.8415L13.6716 71.8102L13.7997 71.7945C13.8317 71.6534 13.8957 71.6534 14.0237 71.5907L14.0717 71.481L14.2477 71.3556C14.4398 71.1831 14.6638 71.0107 14.9359 70.8226L15.1919 70.5404L15.528 70.2582C15.688 70.0701 15.9281 69.976 16.2322 69.976C16.3762 69.976 16.5362 70.1328 16.5362 70.3993V70.4306L16.4882 70.5561L16.5042 70.6344L16.4882 71.0264L16.4562 71.1674L16.5042 71.2772L16.5202 71.4966C16.6162 71.8259 16.8083 71.9983 17.1123 71.9983C17.2724 71.9983 17.6884 71.6848 17.6884 71.575C17.6884 71.5437 17.8485 71.4966 18.1365 71.3712L18.3126 71.1674C18.4406 71.1518 18.5206 71.1204 18.5846 71.0264L18.6806 70.948C18.7447 70.9323 18.7767 70.9323 18.7927 70.9323C18.8887 70.9323 18.9527 70.9793 18.9687 71.0734V71.1204C18.9687 71.1988 18.9367 71.2615 18.8727 71.3399C18.7607 71.5437 18.6326 71.7004 18.4246 71.8572L18.3766 72.0296L18.2005 72.061C18.1205 72.2648 18.0085 72.3589 17.8165 72.4216C17.7204 72.5783 17.5764 72.6724 17.4484 72.7037C17.1923 73.0329 16.9043 73.174 16.5362 73.174C15.8001 73.174 15.24 72.7351 15.24 71.8415C15.24 71.8102 15.2399 71.7004 15.256 71.528C15.1599 71.5594 15.0799 71.6221 15.0159 71.7004L14.8719 71.8415L14.5998 71.9983L14.4078 72.1864C14.3278 72.2648 14.2798 72.3118 14.2317 72.3118C14.2157 72.3118 14.1677 72.3118 14.1197 72.2961V72.3118C14.1197 72.594 13.4956 73.174 12.6314 73.5503C12.3914 73.707 12.1833 73.7854 11.9913 73.7854C11.7512 73.7854 11.3352 73.4876 11.3352 73.1897C11.3352 72.9859 11.4312 72.7508 11.5592 72.4999L11.7192 72.1551ZM22.349 65.4299C22.269 65.6807 22.173 66.0256 22.077 66.4331C22.189 66.4331 22.269 66.4488 22.365 66.4959C22.429 66.4959 22.461 66.5115 22.461 66.5742V66.6213C22.477 67.0289 22.525 67.264 22.525 67.3267C22.525 67.6402 22.413 67.7029 22.109 67.7029C22.061 67.7029 21.9169 67.6873 21.6929 67.6873C21.5809 68.0165 21.4848 68.2046 21.4528 68.2673C21.4688 68.33 21.5008 68.377 21.5008 68.4084C21.5008 68.4711 21.4528 68.5024 21.3888 68.5808C21.0367 69.929 20.7647 71.0577 20.6367 71.9826V72.0296C20.6207 72.0767 20.6047 72.1237 20.6047 72.1551C20.6047 72.1707 20.6047 72.1864 20.6207 72.2178C20.5246 72.6724 20.5086 72.9546 20.5086 73.0329C20.5086 73.1113 20.6047 73.1897 20.6527 73.1897C20.7327 73.1897 20.8127 73.1113 20.9727 73.0016C21.0207 73.0016 21.0688 72.9859 21.1328 72.9859H21.1808C21.1648 72.9389 21.1488 72.8919 21.1488 72.8605C21.1488 72.8448 21.1488 72.8291 21.1808 72.7821C21.4368 72.5626 21.6609 72.3902 21.8689 72.2334C21.8849 72.1394 21.9169 72.108 21.9969 72.061C22.173 71.9513 22.301 71.8259 22.413 71.7004L22.477 71.6848L22.525 71.5907C22.6691 71.4966 22.7971 71.4183 22.9571 71.3712C23.0692 71.2772 23.1812 71.1674 23.3092 71.1047L23.4052 71.0577C23.5172 70.9793 23.6133 70.9323 23.7093 70.9323C23.7893 70.9323 23.8693 70.9636 23.8693 71.0264C23.8693 71.0891 23.8373 71.1518 23.7893 71.2301L23.7573 71.3399C23.6293 71.4966 23.4692 71.6691 23.2772 71.8415C23.2612 71.9826 23.2292 72.0296 23.0692 72.0296L22.9571 72.2178L22.7011 72.4686C22.477 72.7194 22.333 72.8448 22.253 72.8762C22.173 72.8762 22.157 72.9075 22.141 72.9859C21.9009 73.3151 21.7089 73.5189 21.5008 73.6286C21.3888 73.6443 21.3568 73.6914 21.3408 73.8011C21.0848 74.1303 20.7487 74.3968 20.3486 74.6163H20.3166C20.2526 74.679 20.1566 74.726 20.0445 74.726C20.0125 74.726 19.9805 74.7103 19.9325 74.7103C19.9165 74.6946 19.9005 74.679 19.8845 74.679C19.8685 74.679 19.8365 74.6946 19.7885 74.7103C19.7245 74.6946 19.6925 74.6633 19.6445 74.6163C19.1804 74.5222 19.1324 74.3027 19.1324 73.707C19.1324 73.6757 19.1324 73.613 19.1484 73.5032V73.4405C19.1484 73.3778 19.1324 73.3465 19.1164 73.2994V73.0486C19.1164 72.8762 19.1484 72.6881 19.2124 72.5156L19.2604 72.4216C19.2284 72.3902 19.2124 72.3432 19.2124 72.2961V72.2334C19.3244 71.6691 19.4364 71.2458 19.5484 70.9636C19.6445 70.8696 19.7085 70.8069 19.7085 70.7599C19.7085 70.7285 19.6925 70.6971 19.6605 70.6501L19.7085 70.415L19.6125 70.5717C19.4684 70.6501 19.4044 70.7755 19.2924 70.995C19.1804 71.1204 19.0203 71.1204 18.9883 71.3242L18.7963 71.4966C18.7323 71.6377 18.6843 71.7004 18.5883 71.7004C18.4602 71.7004 18.4282 71.7318 18.4122 71.8572L18.3642 71.9826L18.1722 72.1237C18.0601 72.1864 18.0121 72.2491 17.9801 72.3745L17.8841 72.4372C17.7241 72.5156 17.6121 72.5783 17.516 72.6724C17.42 72.7037 17.34 72.7508 17.244 72.8291C17.116 72.8919 17.0039 72.9546 16.9239 73.0486L16.7799 73.1584C16.6999 73.1897 16.6359 73.1897 16.6199 73.1897C16.4758 73.1897 16.4278 73.1584 16.4278 73.0329V72.9859C16.4758 72.8762 16.5238 72.8291 16.6359 72.7978V72.594C16.8119 72.4529 16.9239 72.3432 16.9879 72.2648L16.9719 72.1551L17.228 72.0296C17.292 71.8886 17.388 71.8102 17.532 71.7318L17.6281 71.5907C17.7081 71.5437 17.7721 71.5123 17.8041 71.4496C17.8521 71.4339 17.9321 71.4026 17.9961 71.4026V71.2772C18.2202 71.0107 18.4282 70.7599 18.6203 70.5404C18.6843 70.3209 18.8763 70.1014 19.1324 69.7879C19.2284 69.7722 19.2764 69.7409 19.2764 69.6782C19.2764 69.6625 19.2604 69.6311 19.2444 69.5841C19.3884 69.396 19.5164 69.1922 19.6125 68.9727H19.6285C19.8365 68.9727 19.8525 68.5495 20.2366 67.9538C20.3166 67.8754 20.3966 67.75 20.4606 67.6089L20.2526 67.5775C20.0926 67.6402 19.9645 67.6716 19.8685 67.6716C19.7565 67.6716 19.6285 67.6402 19.5004 67.6402C19.4844 67.6402 19.4524 67.6559 19.4044 67.6716C19.3724 67.6559 19.3244 67.6559 19.3084 67.6559C19.2764 67.6559 19.2444 67.6559 19.1804 67.6873H18.3162C18.2522 67.6559 18.2042 67.6089 18.1722 67.5305C18.1402 67.5932 18.0922 67.6402 18.0281 67.6873C18.0121 67.6873 17.9801 67.7029 17.9641 67.7029C17.8521 67.7029 17.7401 67.6402 17.6281 67.5619C17.436 67.5462 17.436 67.4991 17.436 67.3267C17.436 67.2013 17.484 67.0132 17.484 66.731C17.484 66.6683 17.468 66.5899 17.468 66.5115H17.548C17.564 66.5115 17.5961 66.4959 17.6441 66.4488C17.8681 66.4175 18.0281 66.3861 18.1242 66.3861C18.3002 66.3861 18.4762 66.4018 18.6523 66.4331C18.8603 66.4175 19.0684 66.4018 19.2764 66.4018C19.3084 66.4018 19.4204 66.4175 19.6125 66.4331C19.6285 66.4488 19.6605 66.4488 19.6765 66.4488C19.6925 66.4488 19.7405 66.4331 19.8045 66.4018C19.9325 66.3861 20.0445 66.3861 20.1246 66.3861C20.1886 66.3861 20.3006 66.4018 20.4766 66.4331L20.5567 66.4959C20.7327 66.4802 20.8607 66.4488 20.9567 66.4175C21.1648 65.9785 21.2768 65.6964 21.3088 65.5866C21.3728 65.4455 21.4688 65.3515 21.5969 65.3044V65.2731C21.5969 65.132 21.8369 65.0223 22.0289 65.0223C22.157 65.0223 22.221 65.0693 22.269 65.2104C22.317 65.2888 22.349 65.3515 22.349 65.4299ZM25.7531 64.5833L25.8811 64.4422L26.0731 64.4893L26.4572 64.646L26.5692 64.7558L26.6012 64.9125L26.5372 65.1163L26.3932 65.5553L26.2492 65.8374L26.2332 65.9629L26.0731 66.0883L26.0251 66.1823V66.3548L25.9291 66.5899C25.737 66.9975 25.689 67.2797 25.545 67.3581L25.273 67.844L25.1129 68.0792L24.9689 68.1419L24.9209 68.2516L24.6648 68.3614H24.6328C24.5208 68.3614 24.4568 68.283 24.4568 68.2046C24.4568 68.1262 24.4568 68.0792 24.5048 68.0008L24.6808 67.4208L24.8409 66.8407L24.9369 66.778L24.9209 66.5899L25.0489 66.1353C25.0649 65.8688 25.0649 65.665 25.1609 65.5396L25.1929 65.4926C25.1449 65.4455 25.1289 65.3828 25.1289 65.3201C25.1289 65.2574 25.1609 65.179 25.2249 65.1006L25.417 64.8028C25.497 64.6304 25.577 64.5833 25.7531 64.5833ZM26.509 72.4999L26.4609 72.5156L26.3969 72.4999C26.3009 72.641 26.1889 72.7194 26.0449 72.7351L25.8848 72.8605L25.7248 72.9546C25.6448 73.0173 25.5648 73.0643 25.5007 73.1427L25.3087 73.2054C25.1967 73.1584 25.1487 73.127 25.1487 73.0486C25.1487 73.0173 25.1647 72.9546 25.1807 72.9075L25.3567 72.7664V72.6254C25.4847 72.4999 25.5808 72.3902 25.6768 72.2491L25.7888 72.0924L25.9328 72.061C26.0129 71.9199 26.1089 71.7945 26.2369 71.7004L26.3809 71.5437L26.973 71.0734L27.1811 70.948L27.2611 70.7912L27.6132 70.415L27.7252 70.3836L27.8212 70.2112L28.5574 69.4901L28.6534 69.4587L28.6854 69.3803L29.3255 68.7376C29.5656 68.4711 29.7256 68.3143 30.0137 68.3143C30.1577 68.3143 30.3177 68.377 30.4938 68.4554L30.6058 68.5181L30.7498 68.6906C30.7978 68.7689 30.8298 68.8473 30.8298 68.9257C30.8298 68.9727 30.8138 69.0198 30.7978 69.0668V69.1452C30.7978 69.349 30.7498 69.5371 30.6858 69.7409L30.7178 69.9133L30.6538 70.2425C30.6058 70.6031 30.5098 70.9636 30.3977 71.3556L30.3017 71.6848L30.1577 72.1394L30.0297 72.4529C29.9977 72.5783 29.9496 72.6881 29.9016 72.7664L29.9176 72.9075L30.5738 72.4529L30.7338 72.2491C30.9738 72.1237 31.1179 71.9983 31.2459 71.8102L31.3899 71.6691C31.4699 71.4653 31.678 71.5123 31.87 71.3556L32.0621 71.1831C32.1901 71.1518 32.2701 71.1047 32.3341 71.042L32.5422 70.9323H32.5742C32.6862 70.9323 32.7342 70.995 32.7342 71.0577C32.7342 71.0891 32.7182 71.1361 32.6862 71.1988L32.6702 71.3399C32.5742 71.4496 32.4301 71.6377 32.2061 71.8572C32.1741 71.9826 32.1101 72.0296 31.9661 72.0453C31.79 72.4059 31.566 72.4843 31.4219 72.6254L31.3099 72.7037L31.1339 72.9232L30.9899 72.9859L30.8778 73.1427C30.6698 73.3308 30.4457 73.4562 30.2057 73.5659L30.0297 73.8168L29.9336 73.9579L29.7576 74.0362C29.6616 74.2087 29.5656 74.2871 29.4375 74.2871H29.3735L29.1175 74.5849L28.7654 74.726L28.6214 74.8201L28.4934 74.8044C28.3653 74.7887 28.2853 74.726 28.2533 74.6006L28.2693 74.5222L28.2053 74.4281C28.0453 74.0833 27.9812 73.7227 27.9652 73.3308L28.0133 73.174L27.8852 72.8135C28.0933 72.4529 28.3333 72.2648 28.5254 72.2648C28.7014 72.2648 28.6854 72.3902 28.7814 72.5783H28.8454C28.9094 72.4529 28.9574 72.2805 29.0055 72.0924V71.8102C29.0695 71.528 29.1015 71.2772 29.1015 71.042V70.8853L29.1335 70.5561L29.0215 70.415L28.8134 70.4463L28.6694 70.6031L28.4934 70.7128C28.1893 70.9636 27.8852 71.3242 27.4371 71.6848L27.2131 71.8572L27.0531 71.9356L27.0371 72.014C26.893 72.2021 26.717 72.3589 26.509 72.4999ZM37.6064 74.8357L37.4464 74.8201L37.3344 74.8671L37.1103 74.6476L37.1424 73.2054L37.2704 72.8919L37.1584 72.7194L37.1744 72.4372L37.2544 71.481L37.4304 70.0387L37.4784 69.8976L37.4144 69.7409L37.5424 69.349L37.5104 69.1765L37.7185 68.2986L37.7505 68.1732L37.6865 68.0008C37.7985 67.7813 37.8785 67.5619 37.8785 67.3581C37.8785 67.311 37.8785 67.2483 37.8625 67.2013L38.0225 66.9661L37.9745 66.7937L38.2146 66.1823L38.3906 66.0569L38.5026 65.7904L38.5986 65.7277L38.7107 65.5082L39.3027 65.0066L39.6068 64.7558L39.7668 64.5363L40.0389 64.4893L40.2149 64.2698C40.567 64.0033 41.0471 63.9563 41.6392 63.8309L41.7352 63.9249L42.1193 63.7995H42.5994L43.2075 63.8622L43.5276 64.019C43.6716 64.1287 43.6876 64.2384 43.6876 64.3795C43.6876 64.4893 43.6556 64.6931 43.6396 64.9909L43.5596 65.2574L43.5436 65.3985L43.3996 65.5866L43.2075 65.5239L42.9995 65.5553L42.8075 65.3671H42.6954C42.4074 65.3201 42.1673 65.2731 41.9753 65.2731C41.9273 65.2731 41.7512 65.2888 41.4792 65.3044L40.9351 65.3828L40.8391 65.3201L40.679 65.5082L40.503 65.4455L40.2309 65.4769L39.9429 65.6336L39.6868 66.2764L39.5588 66.4331L39.5748 66.684L39.3188 67.6716L39.2227 67.8911V68.1105L39.1107 68.4397L39.0467 68.5338V68.7062L38.7907 69.7095L39.2067 69.6468L39.6068 69.2549L39.8149 69.2079L39.9749 69.0668L40.2149 69.0511L40.407 68.9414C40.727 68.8473 41.0471 68.7846 41.3992 68.7846L41.5912 68.6906H41.9913L42.1033 68.7376L42.3274 68.6906L42.8235 68.816L43.0475 69.2392L43.0155 69.5371L42.9035 69.6311L42.9355 69.7409C42.8875 70.0544 42.8235 70.1798 42.6314 70.1798C42.5354 70.1798 42.4234 70.1485 42.2473 70.0858L42.0233 69.976L41.7192 70.1485C41.5912 70.1328 41.4792 70.1328 41.3512 70.1328C41.1111 70.1328 40.8871 70.1485 40.647 70.1955L40.487 70.1014L40.2629 70.2739C40.0069 70.2896 39.7508 70.3366 39.5108 70.415L39.3348 70.3679L39.1107 70.509L38.6307 70.6971L38.4866 71.4339L38.4386 71.528L38.5026 71.6377L38.3746 72.2491L38.2946 72.4372L38.3746 72.5626L38.2626 73.5032L38.1986 74.0833L38.4706 74.0049L39.4308 73.9892L39.6228 74.0362L40.0549 73.9265L40.359 73.9579L40.455 73.8638L41.1591 73.707H41.3672L42.3594 73.3935C42.5354 73.3151 42.6794 73.2054 42.7915 73.0486L42.9195 73.0016L43.1275 73.127L43.1595 73.3621L43.0315 73.5346L42.9355 73.7854L42.6794 74.0206H42.5354L42.4554 74.193L41.6712 74.5849L41.5272 74.5692L41.2872 74.773L40.759 74.9611L40.631 74.9455L40.407 75.1336C39.9109 75.2904 39.4628 75.4001 39.0627 75.4314L38.9667 75.3844L38.6147 75.4941H38.3426C38.0225 75.4941 37.7505 75.4471 37.4784 75.306L37.5264 75.1336L37.6064 74.8357ZM44.439 71.2615L44.535 71.1518C45.7673 69.7879 46.4234 68.9884 46.7275 68.8944L46.8875 68.8473L47.0635 68.7376L47.2396 68.6749L47.3516 68.7062L47.4636 68.7219C47.7677 68.9414 47.8797 69.0981 47.8797 69.3019C47.8797 69.4117 47.8637 69.5371 47.8157 69.6939L47.7837 69.9604C47.7357 70.1641 47.6877 70.3366 47.6396 70.4777L47.5276 70.6344V70.7755C47.3516 71.1518 47.2236 71.528 47.1115 71.8572L47.0315 71.9199C47.0475 71.9669 47.0635 71.9983 47.0635 72.0453C47.0635 72.1864 46.9195 72.2178 46.9195 72.3745V72.4372L47.2556 72.1394C47.3836 71.9356 47.5596 71.7475 47.7677 71.5594L47.8797 71.5123L47.9277 71.4339L47.9437 71.3399C47.9917 71.2458 48.0397 71.1674 48.1357 71.1047L48.3758 70.9636L48.4878 70.7912C49.0159 70.2896 49.448 70.0231 49.8961 70.0231C50.1842 70.0231 50.3762 70.1171 50.4402 70.3052L50.5842 70.462C50.6963 70.7128 50.8243 70.9636 50.9523 71.2458L50.9043 71.4183C51.1284 71.5594 51.1123 71.9669 51.4004 71.9669C51.4644 71.9669 51.5284 71.9513 51.6245 71.9199L51.6885 71.8886L51.7525 71.7788L51.9445 71.6377L52.0725 71.5123C52.6006 71.3869 52.8727 70.9323 53.1768 70.9323C53.2888 70.9323 53.3208 70.9793 53.3208 71.0891C53.3208 71.1047 53.2728 71.1988 53.2408 71.3556L53.1288 71.481C52.8407 71.8259 52.5046 72.1707 52.1366 72.5156L52.0565 72.594L51.9285 72.6724C51.8805 72.8448 51.7845 72.8762 51.6085 72.9702L51.4964 73.08L51.1764 73.2054C51.0483 73.2681 50.9523 73.2994 50.8723 73.2994C50.5362 73.2994 50.1361 72.9702 49.8801 72.3589L49.8641 72.2021C49.6721 72.0453 49.496 71.8572 49.336 71.6377C49.272 71.6064 49.208 71.5907 49.16 71.5907C49.0159 71.5907 48.8239 71.7475 48.5198 71.9983L48.3758 72.0453L48.2478 72.2178C48.1357 72.3589 48.0077 72.4529 47.8477 72.4999L47.6236 72.8291C47.1115 73.3935 46.7595 73.7697 46.5194 73.9735C46.2794 74.2871 46.0713 74.3968 45.6552 74.3968C45.4632 74.3968 45.3992 74.3654 45.3512 74.1616L45.3672 73.9422L45.3192 73.8638L45.3512 73.7227C45.6392 72.7664 45.7833 72.2491 45.7833 72.1551C45.7833 72.1394 45.8313 72.0767 45.8793 71.9356L45.9593 71.8102C45.9273 71.7475 45.9273 71.7161 45.9273 71.7004C45.9273 71.5437 46.1033 71.3085 46.1033 71.042C46.1033 70.995 46.0393 70.9636 45.9593 70.9636C45.5432 70.9636 45.4952 71.3242 45.3032 71.4339L45.1111 71.6848L44.9351 71.8415L44.8231 71.8729L44.7751 71.9199L44.7271 71.9983L44.663 72.0924C44.583 72.1237 44.535 72.1551 44.519 72.2021L44.375 72.3275C43.6228 72.9075 43.1747 73.2054 43.0467 73.2054C42.9507 73.2054 42.8867 73.1427 42.8867 73.0486C42.8867 72.9389 42.9507 72.8605 43.0947 72.7821V72.641C43.6228 72.014 43.9749 71.7318 44.0229 71.7318C44.0229 71.7161 44.0069 71.6848 44.0069 71.6848C44.0069 71.6534 44.0229 71.6534 44.0549 71.6534H44.0709C44.1189 71.6534 44.1509 71.6064 44.1669 71.4966L44.279 71.4026L44.439 71.2615ZM56.7154 65.4299C56.6354 65.6807 56.5394 66.0256 56.4434 66.4331C56.5554 66.4331 56.6354 66.4488 56.7314 66.4959C56.7954 66.4959 56.8275 66.5115 56.8275 66.5742V66.6213C56.8435 67.0289 56.8915 67.264 56.8915 67.3267C56.8915 67.6402 56.7794 67.7029 56.4754 67.7029C56.4274 67.7029 56.2833 67.6873 56.0593 67.6873C55.9473 68.0165 55.8513 68.2046 55.8192 68.2673C55.8353 68.33 55.8673 68.377 55.8673 68.4084C55.8673 68.4711 55.8192 68.5024 55.7552 68.5808C55.4032 69.929 55.1311 71.0577 55.0031 71.9826V72.0296C54.9871 72.0767 54.9711 72.1237 54.9711 72.1551C54.9711 72.1707 54.9711 72.1864 54.9871 72.2178C54.8911 72.6724 54.8751 72.9546 54.8751 73.0329C54.8751 73.1113 54.9711 73.1897 55.0191 73.1897C55.0991 73.1897 55.1791 73.1113 55.3392 73.0016C55.3872 73.0016 55.4352 72.9859 55.4992 72.9859H55.5472C55.5312 72.9389 55.5152 72.8919 55.5152 72.8605C55.5152 72.8448 55.5152 72.8291 55.5472 72.7821C55.8032 72.5626 56.0273 72.3902 56.2353 72.2334C56.2513 72.1394 56.2833 72.108 56.3634 72.061C56.5394 71.9513 56.6674 71.8259 56.7794 71.7004L56.8435 71.6848L56.8915 71.5907C57.0355 71.4966 57.1635 71.4183 57.3236 71.3712C57.4356 71.2772 57.5476 71.1674 57.6756 71.1047L57.7716 71.0577C57.8837 70.9793 57.9797 70.9323 58.0757 70.9323C58.1557 70.9323 58.2357 70.9636 58.2357 71.0264C58.2357 71.0891 58.2037 71.1518 58.1557 71.2301L58.1237 71.3399C57.9957 71.4966 57.8357 71.6691 57.6436 71.8415C57.6276 71.9826 57.5956 72.0296 57.4356 72.0296L57.3236 72.2178L57.0675 72.4686C56.8435 72.7194 56.6994 72.8448 56.6194 72.8762C56.5394 72.8762 56.5234 72.9075 56.5074 72.9859C56.2673 73.3151 56.0753 73.5189 55.8673 73.6286C55.7552 73.6443 55.7232 73.6914 55.7072 73.8011C55.4512 74.1303 55.1151 74.3968 54.715 74.6163H54.683C54.619 74.679 54.523 74.726 54.411 74.726C54.379 74.726 54.3469 74.7103 54.2989 74.7103C54.2829 74.6946 54.2669 74.679 54.2509 74.679C54.2349 74.679 54.2029 74.6946 54.1549 74.7103C54.0909 74.6946 54.0589 74.6633 54.0109 74.6163C53.5468 74.5222 53.4988 74.3027 53.4988 73.707C53.4988 73.6757 53.4988 73.613 53.5148 73.5032V73.4405C53.5148 73.3778 53.4988 73.3465 53.4828 73.2994V73.0486C53.4828 72.8762 53.5148 72.6881 53.5788 72.5156L53.6268 72.4216C53.5948 72.3902 53.5788 72.3432 53.5788 72.2961V72.2334C53.6908 71.6691 53.8028 71.2458 53.9149 70.9636C54.0109 70.8696 54.0749 70.8069 54.0749 70.7599C54.0749 70.7285 54.0589 70.6971 54.0269 70.6501L54.0749 70.415L53.9789 70.5717C53.8348 70.6501 53.7708 70.7755 53.6588 70.995C53.5468 71.1204 53.3868 71.1204 53.3548 71.3242L53.1627 71.4966C53.0987 71.6377 53.0507 71.7004 52.9547 71.7004C52.8266 71.7004 52.7946 71.7318 52.7786 71.8572L52.7306 71.9826L52.5386 72.1237C52.4266 72.1864 52.3786 72.2491 52.3465 72.3745L52.2505 72.4372C52.0905 72.5156 51.9785 72.5783 51.8825 72.6724C51.7864 72.7037 51.7064 72.7508 51.6104 72.8291C51.4824 72.8919 51.3704 72.9546 51.2903 73.0486L51.1463 73.1584C51.0663 73.1897 51.0023 73.1897 50.9863 73.1897C50.8422 73.1897 50.7942 73.1584 50.7942 73.0329V72.9859C50.8422 72.8762 50.8903 72.8291 51.0023 72.7978V72.594C51.1783 72.4529 51.2903 72.3432 51.3543 72.2648L51.3383 72.1551L51.5944 72.0296C51.6584 71.8886 51.7544 71.8102 51.8985 71.7318L51.9945 71.5907C52.0745 71.5437 52.1385 71.5123 52.1705 71.4496C52.2185 71.4339 52.2985 71.4026 52.3626 71.4026V71.2772C52.5866 71.0107 52.7946 70.7599 52.9867 70.5404C53.0507 70.3209 53.2427 70.1014 53.4988 69.7879C53.5948 69.7722 53.6428 69.7409 53.6428 69.6782C53.6428 69.6625 53.6268 69.6311 53.6108 69.5841C53.7548 69.396 53.8829 69.1922 53.9789 68.9727H53.9949C54.2029 68.9727 54.2189 68.5495 54.603 67.9538C54.683 67.8754 54.763 67.75 54.8271 67.6089L54.619 67.5775C54.459 67.6402 54.3309 67.6716 54.2349 67.6716C54.1229 67.6716 53.9949 67.6402 53.8669 67.6402C53.8509 67.6402 53.8188 67.6559 53.7708 67.6716C53.7388 67.6559 53.6908 67.6559 53.6748 67.6559C53.6428 67.6559 53.6108 67.6559 53.5468 67.6873H52.6826C52.6186 67.6559 52.5706 67.6089 52.5386 67.5305C52.5066 67.5932 52.4586 67.6402 52.3946 67.6873C52.3786 67.6873 52.3465 67.7029 52.3305 67.7029C52.2185 67.7029 52.1065 67.6402 51.9945 67.5619C51.8024 67.5462 51.8024 67.4991 51.8024 67.3267C51.8024 67.2013 51.8504 67.0132 51.8504 66.731C51.8504 66.6683 51.8344 66.5899 51.8344 66.5115H51.9145C51.9305 66.5115 51.9625 66.4959 52.0105 66.4488C52.2345 66.4175 52.3946 66.3861 52.4906 66.3861C52.6666 66.3861 52.8426 66.4018 53.0187 66.4331C53.2267 66.4175 53.4348 66.4018 53.6428 66.4018C53.6748 66.4018 53.7868 66.4175 53.9789 66.4331C53.9949 66.4488 54.0269 66.4488 54.0429 66.4488C54.0589 66.4488 54.1069 66.4331 54.1709 66.4018C54.2989 66.3861 54.411 66.3861 54.491 66.3861C54.555 66.3861 54.667 66.4018 54.8431 66.4331L54.9231 66.4959C55.0991 66.4802 55.2271 66.4488 55.3231 66.4175C55.5312 65.9785 55.6432 65.6964 55.6752 65.5866C55.7392 65.4455 55.8353 65.3515 55.9633 65.3044V65.2731C55.9633 65.132 56.2033 65.0223 56.3954 65.0223C56.5234 65.0223 56.5874 65.0693 56.6354 65.2104C56.6834 65.2888 56.7154 65.3515 56.7154 65.4299ZM57.2229 72.4686L57.2068 72.3275L56.9988 72.4686L56.8868 72.547L56.7267 72.6724C56.6147 72.7351 56.5027 72.7978 56.4067 72.8605L56.3107 72.9389L56.1506 73.0173C56.0866 73.1584 55.9906 73.1897 55.7986 73.1897C55.7025 73.1897 55.6865 73.174 55.6705 73.0486C55.6865 72.9232 55.7346 72.8605 55.8626 72.7978V72.641C55.9906 72.5156 56.1026 72.3902 56.1986 72.2805L56.3107 72.1237L56.4227 72.0767C56.4867 71.9199 56.5987 71.8415 56.7588 71.7788L56.8068 71.6691L57.0148 71.5437L57.1908 71.4026C57.2389 71.3712 57.2549 71.3242 57.2549 71.2615V71.1988L57.3349 71.0577L57.3029 70.9636L57.3509 70.8382C57.4149 70.509 57.4949 70.2582 57.6389 70.0544L57.751 69.9917L57.7189 69.8976C58.007 69.3646 58.4231 68.9884 58.8712 68.5965H58.9512L59.0152 68.5338L59.0952 68.5181L59.1432 68.4084C59.4153 68.1889 59.6553 68.0949 59.9594 68.0949C60.0234 68.0949 60.1034 68.0949 60.1834 68.1105L60.2475 68.1419L60.5675 68.2359L60.6795 68.377L60.7276 68.3927C60.7916 68.5651 60.8236 68.6906 60.8236 68.7376C60.8236 68.7689 60.8236 68.816 60.8076 68.863L60.8556 68.9727L60.8396 69.1452L60.7756 69.349L60.6635 69.5057L60.6315 69.6782C60.5355 69.8506 60.4075 69.9917 60.2475 70.1485L60.1994 70.2425C59.9114 70.5874 59.5433 70.9009 59.0952 71.2458L58.9512 71.2929L58.9032 71.3869L58.6311 71.5594L58.5191 71.7004C58.4711 71.7318 58.4551 71.7631 58.4551 71.7945C58.4551 71.8886 58.4871 71.9983 58.5671 72.1707L58.6471 72.2648L58.6951 72.4216C58.9512 72.6097 59.1912 72.7037 59.4313 72.7037C59.6073 72.7037 59.7834 72.6254 59.9914 72.5156L60.1034 72.4843L60.3755 72.3118L60.5835 72.3275L60.6315 72.2021C60.6795 72.1551 60.8556 72.014 61.1276 71.7788L61.2557 71.7161L61.3517 71.575C61.4957 71.481 61.6397 71.4183 61.7998 71.3712C61.8958 71.2145 62.0238 71.1518 62.1678 71.1204L62.2959 70.995C62.3919 70.9636 62.4719 70.948 62.5039 70.948C62.6159 70.948 62.6639 70.9793 62.6639 71.0734C62.6639 71.1361 62.6319 71.2145 62.5839 71.2772L62.5519 71.3712C62.4559 71.5123 62.2959 71.6691 62.1038 71.8415V71.8886C62.1038 72.014 62.0558 72.0453 61.8798 72.061C61.7358 72.3432 61.4957 72.4686 61.2557 72.6724L61.1276 72.7821L61.0476 72.8135C60.9356 72.9075 60.8236 73.0173 60.7436 73.0956L60.6475 73.2054L60.4555 73.3308C60.0714 73.66 59.6073 73.8324 59.3353 73.8324H59.2553L59.0792 73.8011L58.9992 73.8481H58.7752C58.3751 73.8481 58.135 73.7697 58.007 73.613L57.895 73.6286L57.7029 73.4562L57.6069 73.2838L57.5269 73.2054C57.4149 73.0643 57.3509 72.9389 57.3029 72.7821L57.2229 72.4686ZM59.3353 70.1171L59.4633 70.0231C59.4633 69.882 59.5913 69.8193 59.5913 69.5841C59.5913 69.4744 59.5913 69.443 59.5273 69.443H59.4953L59.3673 69.5214L59.0632 69.7879L58.7752 70.0701L58.5191 70.4306C58.4391 70.5717 58.4071 70.6815 58.4071 70.7599C58.4071 70.7755 58.4231 70.7912 58.4391 70.7912C58.4711 70.7912 58.5031 70.7755 58.5511 70.7442C58.6311 70.7285 58.6631 70.7285 58.6951 70.7285C58.7271 70.7285 58.7592 70.6971 58.8072 70.6501L58.8872 70.509L59.0152 70.3836L59.3353 70.1171ZM61.5488 72.3902L61.5008 72.4686C61.2607 72.4999 61.1967 72.7037 61.0047 72.7664L60.8607 72.8762C60.5246 73.0173 60.4606 73.1584 60.4286 73.1584C60.3966 73.1584 60.3646 73.1584 60.3165 73.127L60.2845 73.08V73.0486C60.2845 72.8919 60.4926 72.6724 60.7166 72.2805L60.8286 72.1707C61.1007 72.108 61.0687 71.8729 61.2767 71.7004C61.3247 71.5594 61.3888 71.4966 61.5008 71.4496L61.8048 71.1204L61.8209 70.9793L62.365 70.3836L62.461 70.3366L62.493 70.2739L62.525 70.0858L62.669 69.882L62.717 69.8506L62.701 69.7252L62.637 69.5684C62.637 69.5528 62.621 69.5371 62.621 69.5214C62.621 69.3333 62.9411 68.9571 63.4052 68.816L63.5812 68.7062L63.7732 68.6749H64.1573L64.1733 68.7062L64.2853 68.7219L64.4774 68.8003L64.5414 68.8944L64.6854 68.9884L64.8455 69.0354C65.2135 69.349 65.5496 69.4901 65.6616 69.7252L65.8697 69.9447L65.9017 70.0231L65.8857 70.1485L65.9657 70.2425L65.9977 70.3679C66.0297 70.509 66.0617 70.6501 66.0617 70.7755C66.0617 71.481 65.6936 72.1551 65.5016 72.9702H65.6136L65.8057 72.8291L65.9177 72.8135L66.4778 72.4059L66.5898 72.3902L66.6698 72.2178L66.9099 72.014L67.0379 71.9513L67.1179 71.8729L67.2939 71.6848L67.39 71.6221C67.8861 71.3399 68.1901 71.1988 68.3342 71.1988C68.3982 71.1988 68.4622 71.2458 68.4622 71.2929C68.4622 71.3242 68.3022 71.7161 68.1581 71.7945L67.9661 71.9983C67.8061 72.1237 67.71 72.2961 67.566 72.4372L67.486 72.547L67.31 72.6097L67.2939 72.6567L67.1979 72.7508L67.0379 72.8291L66.8619 73.0329L66.7818 73.174L66.5578 73.2211L66.5098 73.3151C66.3498 73.4719 66.1577 73.5973 65.9657 73.6914L65.7896 73.8168C65.6616 73.8168 65.5976 73.8481 65.5336 73.9422L65.2935 74.146L65.1655 74.1303C65.1015 74.1773 65.0375 74.2087 65.0055 74.2714L64.4454 74.3341L64.3334 74.2871L64.2533 74.3027C64.0933 74.2714 64.0293 74.193 64.0293 74.0206C64.0293 73.8481 64.0933 73.6443 64.2053 73.3935L64.2373 73.2681L64.3334 73.1113L64.3494 73.0016L64.6054 72.1707L64.6374 72.0924V71.9669C64.6694 71.7004 64.6854 71.5123 64.6854 71.3869C64.6854 71.0891 64.6054 70.9009 64.3654 70.7128L64.3334 70.5874C64.1253 70.5561 63.9813 70.462 63.8053 70.3052L63.6452 70.2739L63.5332 70.462L63.1651 70.6658L63.0371 70.8382L62.9411 70.9323L62.765 71.1361L62.637 71.3556L62.2849 71.7161L62.2049 71.8259L62.0289 71.8886L61.9809 71.9669L61.7888 72.2021C61.7408 72.3118 61.6768 72.3745 61.5488 72.3902ZM72.0621 65.4299C71.9821 65.6807 71.8861 66.0256 71.7901 66.4331C71.9021 66.4331 71.9821 66.4488 72.0781 66.4959C72.1421 66.4959 72.1742 66.5115 72.1742 66.5742V66.6213C72.1902 67.0289 72.2382 67.264 72.2382 67.3267C72.2382 67.6402 72.1261 67.7029 71.8221 67.7029C71.7741 67.7029 71.63 67.6873 71.406 67.6873C71.294 68.0165 71.198 68.2046 71.166 68.2673C71.182 68.33 71.214 68.377 71.214 68.4084C71.214 68.4711 71.166 68.5024 71.1019 68.5808C70.7499 69.929 70.4778 71.0577 70.3498 71.9826V72.0296C70.3338 72.0767 70.3178 72.1237 70.3178 72.1551C70.3178 72.1707 70.3178 72.1864 70.3338 72.2178C70.2378 72.6724 70.2218 72.9546 70.2218 73.0329C70.2218 73.1113 70.3178 73.1897 70.3658 73.1897C70.4458 73.1897 70.5258 73.1113 70.6859 73.0016C70.7339 73.0016 70.7819 72.9859 70.8459 72.9859H70.8939C70.8779 72.9389 70.8619 72.8919 70.8619 72.8605C70.8619 72.8448 70.8619 72.8291 70.8939 72.7821C71.1499 72.5626 71.374 72.3902 71.582 72.2334C71.598 72.1394 71.63 72.108 71.7101 72.061C71.8861 71.9513 72.0141 71.8259 72.1261 71.7004L72.1902 71.6848L72.2382 71.5907C72.3822 71.4966 72.5102 71.4183 72.6703 71.3712C72.7823 71.2772 72.8943 71.1674 73.0223 71.1047L73.1183 71.0577C73.2304 70.9793 73.3264 70.9323 73.4224 70.9323C73.5024 70.9323 73.5824 70.9636 73.5824 71.0264C73.5824 71.0891 73.5504 71.1518 73.5024 71.2301L73.4704 71.3399C73.3424 71.4966 73.1824 71.6691 72.9903 71.8415C72.9743 71.9826 72.9423 72.0296 72.7823 72.0296L72.6703 72.2178L72.4142 72.4686C72.1902 72.7194 72.0461 72.8448 71.9661 72.8762C71.8861 72.8762 71.8701 72.9075 71.8541 72.9859C71.614 73.3151 71.422 73.5189 71.214 73.6286C71.1019 73.6443 71.0699 73.6914 71.0539 73.8011C70.7979 74.1303 70.4618 74.3968 70.0617 74.6163H70.0297C69.9657 74.679 69.8697 74.726 69.7577 74.726C69.7257 74.726 69.6937 74.7103 69.6456 74.7103C69.6296 74.6946 69.6136 74.679 69.5976 74.679C69.5816 74.679 69.5496 74.6946 69.5016 74.7103C69.4376 74.6946 69.4056 74.6633 69.3576 74.6163C68.8935 74.5222 68.8455 74.3027 68.8455 73.707C68.8455 73.6757 68.8455 73.613 68.8615 73.5032V73.4405C68.8615 73.3778 68.8455 73.3465 68.8295 73.2994V73.0486C68.8295 72.8762 68.8615 72.6881 68.9255 72.5156L68.9735 72.4216C68.9415 72.3902 68.9255 72.3432 68.9255 72.2961V72.2334C69.0375 71.6691 69.1495 71.2458 69.2616 70.9636C69.3576 70.8696 69.4216 70.8069 69.4216 70.7599C69.4216 70.7285 69.4056 70.6971 69.3736 70.6501L69.4216 70.415L69.3256 70.5717C69.1815 70.6501 69.1175 70.7755 69.0055 70.995C68.8935 71.1204 68.7335 71.1204 68.7015 71.3242L68.5094 71.4966C68.4454 71.6377 68.3974 71.7004 68.3014 71.7004C68.1733 71.7004 68.1413 71.7318 68.1253 71.8572L68.0773 71.9826L67.8853 72.1237C67.7733 72.1864 67.7253 72.2491 67.6933 72.3745L67.5972 72.4372C67.4372 72.5156 67.3252 72.5783 67.2292 72.6724C67.1331 72.7037 67.0531 72.7508 66.9571 72.8291C66.8291 72.8919 66.7171 72.9546 66.637 73.0486L66.493 73.1584C66.413 73.1897 66.349 73.1897 66.333 73.1897C66.1889 73.1897 66.1409 73.1584 66.1409 73.0329V72.9859C66.1889 72.8762 66.237 72.8291 66.349 72.7978V72.594C66.525 72.4529 66.637 72.3432 66.701 72.2648L66.685 72.1551L66.9411 72.0296C67.0051 71.8886 67.1011 71.8102 67.2452 71.7318L67.3412 71.5907C67.4212 71.5437 67.4852 71.5123 67.5172 71.4496C67.5652 71.4339 67.6452 71.4026 67.7093 71.4026V71.2772C67.9333 71.0107 68.1413 70.7599 68.3334 70.5404C68.3974 70.3209 68.5894 70.1014 68.8455 69.7879C68.9415 69.7722 68.9895 69.7409 68.9895 69.6782C68.9895 69.6625 68.9735 69.6311 68.9575 69.5841C69.1015 69.396 69.2296 69.1922 69.3256 68.9727H69.3416C69.5496 68.9727 69.5656 68.5495 69.9497 67.9538C70.0297 67.8754 70.1097 67.75 70.1738 67.6089L69.9657 67.5775C69.8057 67.6402 69.6777 67.6716 69.5816 67.6716C69.4696 67.6716 69.3416 67.6402 69.2136 67.6402C69.1976 67.6402 69.1656 67.6559 69.1175 67.6716C69.0855 67.6559 69.0375 67.6559 69.0215 67.6559C68.9895 67.6559 68.9575 67.6559 68.8935 67.6873H68.0293C67.9653 67.6559 67.9173 67.6089 67.8853 67.5305C67.8533 67.5932 67.8053 67.6402 67.7413 67.6873C67.7253 67.6873 67.6933 67.7029 67.6772 67.7029C67.5652 67.7029 67.4532 67.6402 67.3412 67.5619C67.1491 67.5462 67.1491 67.4991 67.1491 67.3267C67.1491 67.2013 67.1971 67.0132 67.1971 66.731C67.1971 66.6683 67.1811 66.5899 67.1811 66.5115H67.2612C67.2772 66.5115 67.3092 66.4959 67.3572 66.4488C67.5812 66.4175 67.7413 66.3861 67.8373 66.3861C68.0133 66.3861 68.1894 66.4018 68.3654 66.4331C68.5734 66.4175 68.7815 66.4018 68.9895 66.4018C69.0215 66.4018 69.1335 66.4175 69.3256 66.4331C69.3416 66.4488 69.3736 66.4488 69.3896 66.4488C69.4056 66.4488 69.4536 66.4331 69.5176 66.4018C69.6456 66.3861 69.7577 66.3861 69.8377 66.3861C69.9017 66.3861 70.0137 66.4018 70.1898 66.4331L70.2698 66.4959C70.4458 66.4802 70.5738 66.4488 70.6698 66.4175C70.8779 65.9785 70.9899 65.6964 71.0219 65.5866C71.0859 65.4455 71.182 65.3515 71.31 65.3044V65.2731C71.31 65.132 71.55 65.0223 71.7421 65.0223C71.8701 65.0223 71.9341 65.0693 71.9821 65.2104C72.0301 65.2888 72.0621 65.3515 72.0621 65.4299ZM72.8096 72.1551C72.5375 72.2334 72.5375 72.5313 72.4255 72.5313C72.3615 72.5313 72.3455 72.4686 72.2975 72.4686C72.2655 72.4686 72.2335 72.4999 72.1855 72.547L72.0895 72.6567C71.9294 72.7978 71.7854 72.7664 71.7214 72.8919L71.5934 72.9702L71.4813 73.08L71.3533 73.174C71.2893 73.2054 71.2253 73.2211 71.1773 73.2211C71.1453 73.2211 71.1133 73.2211 71.0652 73.2054L71.0332 73.127C71.0332 72.9546 71.0813 72.8605 71.1933 72.8135L71.1773 72.641C71.3053 72.5313 71.4333 72.4059 71.5613 72.2805L71.6094 72.108H71.6734C71.7694 72.108 71.8174 72.0767 71.8654 71.9826L71.9454 71.8415L72.1855 71.7475C72.2655 71.6064 72.3615 71.481 72.4895 71.3869C72.6816 71.2301 72.8256 71.1204 72.9536 71.042L73.0496 71.0107C73.0977 70.8853 73.2097 70.7755 73.3697 70.6344L73.6258 70.4306C73.8178 70.2112 73.9778 70.0544 74.0579 69.976L74.2019 69.9447V69.8349L74.778 69.4117L74.986 69.2863C75.034 69.2236 75.0981 69.1765 75.1781 69.1452L75.3061 69.0041L75.4021 68.9414C75.4981 68.8003 75.6102 68.7219 75.7702 68.6592L75.8502 68.6279L75.9142 68.5181C76.2023 68.2986 76.4583 68.1419 76.6664 68.0008L76.8744 67.8754C76.9864 67.8127 77.0665 67.7813 77.1305 67.7813C77.2265 67.7813 77.2745 67.7029 77.3385 67.7029C77.3865 67.7029 77.4665 67.7186 77.5466 67.7186C77.7386 67.7186 77.9146 67.8754 77.9146 67.9224C77.9146 67.9381 77.8986 67.9538 77.8826 68.0008C77.9146 68.0321 77.9466 68.0321 77.9466 68.0635C77.9466 68.1262 77.7866 68.4711 77.2745 68.7376L77.1625 68.863C77.1625 68.9571 76.9224 69.1138 76.5063 69.4744L76.3783 69.5528L76.2663 69.6939L76.1223 69.8193L75.9622 69.9917L75.8182 70.0701L75.7702 70.1641L75.5462 70.3836L75.3861 70.5561L75.2261 70.6188C75.0981 70.7912 74.922 71.0107 74.682 71.2772L74.4099 71.5123L74.1699 71.7475C74.1379 71.8572 74.0899 71.9199 74.0098 71.9983L73.9138 72.2805C73.9458 72.2961 73.9778 72.2961 73.9778 72.2961C74.0098 72.2961 74.0579 72.2805 74.1059 72.2648L74.2819 72.1394L74.4419 72.0924L74.5379 72.014L74.682 71.8415L74.762 71.8102L74.89 71.7945C74.922 71.6534 74.986 71.6534 75.1141 71.5907L75.1621 71.481L75.3381 71.3556C75.5301 71.1831 75.7542 71.0107 76.0262 70.8226L76.2823 70.5404L76.6184 70.2582C76.7784 70.0701 77.0184 69.976 77.3225 69.976C77.4665 69.976 77.6266 70.1328 77.6266 70.3993V70.4306L77.5786 70.5561L77.5946 70.6344L77.5786 71.0264L77.5466 71.1674L77.5946 71.2772L77.6106 71.4966C77.7066 71.8259 77.8986 71.9983 78.2027 71.9983C78.3627 71.9983 78.7788 71.6848 78.7788 71.575C78.7788 71.5437 78.9388 71.4966 79.2269 71.3712L79.4029 71.1674C79.531 71.1518 79.611 71.1204 79.675 71.0264L79.771 70.948C79.835 70.9323 79.867 70.9323 79.883 70.9323C79.979 70.9323 80.0431 70.9793 80.0591 71.0734V71.1204C80.0591 71.1988 80.0271 71.2615 79.963 71.3399C79.851 71.5437 79.723 71.7004 79.515 71.8572L79.4669 72.0296L79.2909 72.061C79.2109 72.2648 79.0989 72.3589 78.9068 72.4216C78.8108 72.5783 78.6668 72.6724 78.5388 72.7037C78.2827 73.0329 77.9946 73.174 77.6266 73.174C76.8904 73.174 76.3303 72.7351 76.3303 71.8415C76.3303 71.8102 76.3303 71.7004 76.3463 71.528C76.2503 71.5594 76.1703 71.6221 76.1063 71.7004L75.9622 71.8415L75.6902 71.9983L75.4981 72.1864C75.4181 72.2648 75.3701 72.3118 75.3221 72.3118C75.3061 72.3118 75.2581 72.3118 75.2101 72.2961V72.3118C75.2101 72.594 74.586 73.174 73.7218 73.5503C73.4817 73.707 73.2737 73.7854 73.0817 73.7854C72.8416 73.7854 72.4255 73.4876 72.4255 73.1897C72.4255 72.9859 72.5215 72.7508 72.6496 72.4999L72.8096 72.1551ZM82.399 73.3308L82.303 73.4092L82.015 73.5503L81.7589 73.5659C81.6789 73.5816 81.5989 73.5816 81.5189 73.5816C81.2628 73.5816 81.0708 73.5032 80.9107 73.2994L80.8467 73.1584L80.7347 73.0643V72.9859L80.7027 72.9232L80.6067 72.8762L80.4306 72.5156V72.3745L80.3346 72.2961L80.1586 71.9983C80.0146 71.8259 79.9826 71.7161 79.8865 71.7161C79.8385 71.7161 79.7745 71.7475 79.7265 71.7945L79.5985 71.8102L79.5345 71.9042L79.3904 72.061L79.2784 72.0767L79.1664 72.1551L79.1184 72.2334L79.0544 72.3275C78.2062 72.9232 77.8541 73.2054 77.6941 73.2054C77.5981 73.2054 77.5341 73.1427 77.5341 73.0486C77.5341 72.9389 77.5981 72.8605 77.7421 72.7821V72.641C78.2702 72.014 78.6223 71.7318 78.6703 71.7318C78.7823 71.575 78.9103 71.4183 79.0704 71.2772L79.2144 71.1204L79.3104 71.0734L79.3424 70.995C79.5025 70.7912 79.7105 70.5561 79.9506 70.2425L80.1426 70.1485L80.2226 69.976L80.3826 69.8506H80.9588L81.2628 70.0231C81.4389 70.1014 81.4549 70.3679 81.5029 70.8226L81.6149 71.5437L81.6789 71.6377C81.8069 72.1237 81.9029 72.3118 82.255 72.3118C82.367 72.3118 82.5271 72.2648 82.6711 72.1237L82.8311 72.108L82.8951 71.9983L83.2152 71.7318L83.2792 71.5907C84.0154 71.2458 84.1914 70.9323 84.4475 70.9323C84.5595 70.9323 84.6075 70.9793 84.6075 71.0891C84.6075 71.1047 84.5435 71.1988 84.5115 71.3556L84.3994 71.481C84.0314 71.8415 83.9834 72.0453 83.8873 72.0453H83.8553L83.7593 72.1864L83.5833 72.3745L83.4873 72.4372L83.3272 72.5626C82.9272 72.9075 82.7031 73.2211 82.399 73.3308ZM80.8627 67.3581L80.7187 67.4208C80.6387 67.4051 80.5587 67.3581 80.5107 67.2797L80.4467 67.1386C80.3986 67.0602 80.3666 66.9661 80.3666 66.8878C80.3666 66.4959 80.6067 66.198 81.0388 65.8374L81.1188 65.8061L81.2468 65.8218L81.2628 65.6964L81.5669 65.4142L81.7589 65.3671C81.8549 65.2888 81.951 65.2731 82.063 65.2731C82.271 65.2731 82.415 65.3828 82.415 65.5396V65.5709L82.319 66.0412L82.207 66.3548L82.127 66.4175V66.5586L82.015 66.7937C81.9189 66.9661 81.7749 67.0445 81.6949 67.1543L81.5829 67.1699L81.5349 67.2326C81.3268 67.3424 81.1668 67.4208 81.0228 67.4208H80.9588L80.8627 67.3581ZM83.6344 71.2615L83.7304 71.1518C84.9627 69.7879 85.6188 68.9884 85.9229 68.8944L86.0829 68.8473L86.2589 68.7376L86.435 68.6749L86.547 68.7062L86.659 68.7219C86.9631 68.9414 87.0751 69.0981 87.0751 69.3019C87.0751 69.4117 87.0591 69.5371 87.0111 69.6939L86.9791 69.9604C86.9311 70.1641 86.8831 70.3366 86.8351 70.4777L86.723 70.6344V70.7755C86.547 71.1518 86.419 71.528 86.307 71.8572L86.2269 71.9199C86.2429 71.9669 86.2589 71.9983 86.2589 72.0453C86.2589 72.1864 86.1149 72.2178 86.1149 72.3745V72.4372L86.451 72.1394C86.579 71.9356 86.755 71.7475 86.9631 71.5594L87.0751 71.5123L87.1231 71.4339L87.1391 71.3399C87.1871 71.2458 87.2351 71.1674 87.3312 71.1047L87.5712 70.9636L87.6832 70.7912C88.2113 70.2896 88.6434 70.0231 89.0915 70.0231C89.3796 70.0231 89.5716 70.1171 89.6356 70.3052L89.7797 70.462C89.8917 70.7128 90.0197 70.9636 90.1477 71.2458L90.0997 71.4183C90.3238 71.5594 90.3078 71.9669 90.5958 71.9669C90.6598 71.9669 90.7238 71.9513 90.8199 71.9199L90.8839 71.8886L90.9479 71.7788L91.1399 71.6377L91.268 71.5123C91.7961 71.3869 92.0681 70.9323 92.3722 70.9323C92.4842 70.9323 92.5162 70.9793 92.5162 71.0891C92.5162 71.1047 92.4682 71.1988 92.4362 71.3556L92.3242 71.481C92.0361 71.8259 91.7 72.1707 91.332 72.5156L91.2519 72.594L91.1239 72.6724C91.0759 72.8448 90.9799 72.8762 90.8039 72.9702L90.6918 73.08L90.3718 73.2054C90.2437 73.2681 90.1477 73.2994 90.0677 73.2994C89.7316 73.2994 89.3316 72.9702 89.0755 72.3589L89.0595 72.2021C88.8675 72.0453 88.6914 71.8572 88.5314 71.6377C88.4674 71.6064 88.4034 71.5907 88.3554 71.5907C88.2113 71.5907 88.0193 71.7475 87.7152 71.9983L87.5712 72.0453L87.4432 72.2178C87.3312 72.3589 87.2031 72.4529 87.0431 72.4999L86.8191 72.8291C86.307 73.3935 85.9549 73.7697 85.7148 73.9735C85.4748 74.2871 85.2667 74.3968 84.8507 74.3968C84.6586 74.3968 84.5946 74.3654 84.5466 74.1616L84.5626 73.9422L84.5146 73.8638L84.5466 73.7227C84.8347 72.7664 84.9787 72.2491 84.9787 72.1551C84.9787 72.1394 85.0267 72.0767 85.0747 71.9356L85.1547 71.8102C85.1227 71.7475 85.1227 71.7161 85.1227 71.7004C85.1227 71.5437 85.2988 71.3085 85.2988 71.042C85.2988 70.995 85.2347 70.9636 85.1547 70.9636C84.7386 70.9636 84.6906 71.3242 84.4986 71.4339L84.3065 71.6848L84.1305 71.8415L84.0185 71.8729L83.9705 71.9199L83.9225 71.9983L83.8585 72.0924C83.7784 72.1237 83.7304 72.1551 83.7144 72.2021L83.5704 72.3275C82.8183 72.9075 82.3702 73.2054 82.2421 73.2054C82.1461 73.2054 82.0821 73.1427 82.0821 73.0486C82.0821 72.9389 82.1461 72.8605 82.2901 72.7821V72.641C82.8183 72.014 83.1703 71.7318 83.2183 71.7318C83.2183 71.7161 83.2023 71.6848 83.2023 71.6848C83.2023 71.6534 83.2183 71.6534 83.2503 71.6534H83.2663C83.3144 71.6534 83.3464 71.6064 83.3624 71.4966L83.4744 71.4026L83.6344 71.2615ZM92.6302 73.9422L92.5182 73.9579C92.4862 73.9579 92.4061 73.9422 92.3101 73.9108L92.2461 73.8168V73.613L92.3421 73.3151V73.1897L92.5022 72.6881L92.5502 72.4999L92.6462 72.3432V72.108L92.8062 71.6221C92.8382 71.481 92.8862 71.4026 92.8862 71.3556C92.8862 71.2929 92.8222 71.2615 92.7422 71.2615C92.6942 71.2615 92.6142 71.2929 92.5182 71.3556L92.3581 71.3869C92.2621 71.6691 92.1181 71.8572 91.846 71.9826L91.718 72.0767L91.3499 72.4529C91.2379 72.5156 91.1579 72.594 91.0779 72.7037C90.9338 72.7194 90.8058 72.7821 90.6938 72.9075C90.5818 72.9546 90.5018 73.0173 90.4217 73.08C90.3257 73.174 90.2457 73.2054 90.1177 73.2054C90.0697 73.2054 90.0057 73.174 89.9736 73.08C89.9896 72.8291 90.2457 72.8605 90.2457 72.6724C90.2457 72.641 90.2297 72.6254 90.2297 72.594C90.3417 72.4686 90.4377 72.3589 90.5658 72.2648C90.6138 72.1237 90.6778 72.061 90.8058 72.0453C90.8538 71.9042 90.9498 71.8102 91.0779 71.7475L91.1739 71.6377H91.1899C91.2859 71.6377 91.2859 71.5437 91.3819 71.4339L91.51 71.3242V71.2458C92.9662 69.8193 93.5584 69.0041 94.1825 69.0041C94.4385 69.0041 94.5826 69.1609 94.5826 69.443C94.5826 69.7252 94.5346 70.0387 94.4385 70.2739V70.4777L94.4065 70.6815L94.2945 71.042L94.2785 71.1988L94.2465 71.3556L94.3905 71.2615L94.5506 71.0891L95.1587 70.5561L95.7028 69.9604L96.3269 69.349L96.583 69.0354L96.791 68.8944C96.903 68.816 97.0631 68.816 97.3351 68.816L97.5592 68.8003C97.5912 68.8003 97.6072 68.7846 97.6392 68.7846C97.7672 68.7846 97.8152 68.9571 97.8152 69.3019C97.8152 69.6939 97.7672 70.0858 97.6872 70.4934V70.5561L97.6552 70.6658L97.6392 70.8226L97.6072 70.9323L97.5752 71.1518L97.4792 71.4183C97.4471 71.575 97.4311 71.6848 97.4151 71.7945L97.7672 71.3712C98.3913 70.7442 98.8394 70.3209 99.2075 70.1798H99.3515L99.6716 70.1014C99.9437 70.1641 100.232 70.3993 100.44 70.8069L100.488 70.995L100.568 71.0734C100.904 71.6064 100.936 71.9669 101.32 71.9669C101.416 71.9669 101.496 71.9356 101.592 71.9042L101.72 71.8572L101.768 71.7161L101.96 71.5594C102.104 71.481 102.232 71.4026 102.36 71.3556C102.456 71.2458 102.568 71.1518 102.696 71.1047L102.856 70.9793C102.92 70.948 102.984 70.9323 103.032 70.9323C103.112 70.9323 103.224 70.9793 103.224 71.0577C103.224 71.1047 103.192 71.1674 103.144 71.2458V71.3399C102.984 71.4966 102.84 71.6848 102.648 71.8886V71.9356C102.648 72.014 102.6 72.0453 102.456 72.061C102.376 72.3118 102.2 72.3589 102.072 72.4843C101.784 72.8291 101.576 73.0173 101.288 73.0643L101.128 73.1584C101.032 73.1897 100.968 73.2054 100.888 73.2054C100.728 73.2054 100.584 73.1427 100.456 73.0173L100.232 72.9075L100.024 72.7508L99.6236 72.2648L99.4956 72.1394L99.4476 72.0296L99.1755 71.8729C98.9995 71.7945 98.8714 71.7318 98.7754 71.7318C98.6314 71.7318 98.4874 71.8886 98.2313 72.061L97.8632 72.2961L97.3831 72.9389L97.0311 73.2681L96.887 73.4719L96.551 73.8795C96.3749 74.1146 96.2469 74.2087 95.9909 74.2087C95.7348 74.2087 95.6388 74.0676 95.6388 73.707L95.8148 73.0643L95.9909 72.4529L96.1189 71.9983L96.1829 71.7004L96.1669 71.6221L96.2309 71.3556L96.2789 71.1988V71.0734C96.2789 70.8853 96.2149 70.8069 96.1029 70.8069C96.0069 70.8069 95.8628 70.9009 95.6548 71.0734L95.4788 71.2772L95.2067 71.4653L94.8226 71.8886C94.7106 71.9983 94.5986 72.108 94.4545 72.2021L94.3905 72.3589L93.9584 72.8291L93.8624 72.8919L93.6384 73.1584C93.5584 73.2838 93.3663 73.5032 93.0143 73.8324C92.9182 73.9265 92.8222 73.9735 92.7422 73.9735C92.7262 73.9735 92.6782 73.9735 92.6302 73.9422ZM102.279 72.4686L102.263 72.3275L102.055 72.4686L101.943 72.547L101.782 72.6724C101.67 72.7351 101.558 72.7978 101.462 72.8605L101.366 72.9389L101.206 73.0173C101.142 73.1584 101.046 73.1897 100.854 73.1897C100.758 73.1897 100.742 73.174 100.726 73.0486C100.742 72.9232 100.79 72.8605 100.918 72.7978V72.641C101.046 72.5156 101.158 72.3902 101.254 72.2805L101.366 72.1237L101.478 72.0767C101.542 71.9199 101.654 71.8415 101.814 71.7788L101.862 71.6691L102.071 71.5437L102.247 71.4026C102.295 71.3712 102.311 71.3242 102.311 71.2615V71.1988L102.391 71.0577L102.359 70.9636L102.407 70.8382C102.471 70.509 102.551 70.2582 102.695 70.0544L102.807 69.9917L102.775 69.8976C103.063 69.3646 103.479 68.9884 103.927 68.5965H104.007L104.071 68.5338L104.151 68.5181L104.199 68.4084C104.471 68.1889 104.711 68.0949 105.015 68.0949C105.079 68.0949 105.159 68.0949 105.239 68.1105L105.303 68.1419L105.623 68.2359L105.735 68.377L105.783 68.3927C105.847 68.5651 105.879 68.6906 105.879 68.7376C105.879 68.7689 105.879 68.816 105.863 68.863L105.911 68.9727L105.895 69.1452L105.831 69.349L105.719 69.5057L105.687 69.6782C105.591 69.8506 105.463 69.9917 105.303 70.1485L105.255 70.2425C104.967 70.5874 104.599 70.9009 104.151 71.2458L104.007 71.2929L103.959 71.3869L103.687 71.5594L103.575 71.7004C103.527 71.7318 103.511 71.7631 103.511 71.7945C103.511 71.8886 103.543 71.9983 103.623 72.1707L103.703 72.2648L103.751 72.4216C104.007 72.6097 104.247 72.7037 104.487 72.7037C104.663 72.7037 104.839 72.6254 105.047 72.5156L105.159 72.4843L105.431 72.3118L105.639 72.3275L105.687 72.2021C105.735 72.1551 105.911 72.014 106.183 71.7788L106.311 71.7161L106.407 71.575C106.551 71.481 106.695 71.4183 106.855 71.3712C106.952 71.2145 107.08 71.1518 107.224 71.1204L107.352 70.995C107.448 70.9636 107.528 70.948 107.56 70.948C107.672 70.948 107.72 70.9793 107.72 71.0734C107.72 71.1361 107.688 71.2145 107.64 71.2772L107.608 71.3712C107.512 71.5123 107.352 71.6691 107.16 71.8415V71.8886C107.16 72.014 107.112 72.0453 106.936 72.061C106.791 72.3432 106.551 72.4686 106.311 72.6724L106.183 72.7821L106.103 72.8135C105.991 72.9075 105.879 73.0173 105.799 73.0956L105.703 73.2054L105.511 73.3308C105.127 73.66 104.663 73.8324 104.391 73.8324H104.311L104.135 73.8011L104.055 73.8481H103.831C103.431 73.8481 103.191 73.7697 103.063 73.613L102.951 73.6286L102.759 73.4562L102.663 73.2838L102.583 73.2054C102.471 73.0643 102.407 72.9389 102.359 72.7821L102.279 72.4686ZM104.391 70.1171L104.519 70.0231C104.519 69.882 104.647 69.8193 104.647 69.5841C104.647 69.4744 104.647 69.443 104.583 69.443H104.551L104.423 69.5214L104.119 69.7879L103.831 70.0701L103.575 70.4306C103.495 70.5717 103.463 70.6815 103.463 70.7599C103.463 70.7755 103.479 70.7912 103.495 70.7912C103.527 70.7912 103.559 70.7755 103.607 70.7442C103.687 70.7285 103.719 70.7285 103.751 70.7285C103.783 70.7285 103.815 70.6971 103.863 70.6501L103.943 70.509L104.071 70.3836L104.391 70.1171ZM106.733 71.2615L106.829 71.1518C108.061 69.7879 108.717 68.9884 109.021 68.8944L109.181 68.8473L109.357 68.7376L109.533 68.6749L109.646 68.7062L109.758 68.7219C110.062 68.9414 110.174 69.0981 110.174 69.3019C110.174 69.4117 110.158 69.5371 110.11 69.6939L110.078 69.9604C110.03 70.1641 109.982 70.3366 109.934 70.4777L109.822 70.6344V70.7755C109.646 71.1518 109.517 71.528 109.405 71.8572L109.325 71.9199C109.341 71.9669 109.357 71.9983 109.357 72.0453C109.357 72.1864 109.213 72.2178 109.213 72.3745V72.4372L109.549 72.1394C109.678 71.9356 109.854 71.7475 110.062 71.5594L110.174 71.5123L110.222 71.4339L110.238 71.3399C110.286 71.2458 110.334 71.1674 110.43 71.1047L110.67 70.9636L110.782 70.7912C111.31 70.2896 111.742 70.0231 112.19 70.0231C112.478 70.0231 112.67 70.1171 112.734 70.3052L112.878 70.462C112.99 70.7128 113.118 70.9636 113.246 71.2458L113.198 71.4183C113.422 71.5594 113.406 71.9669 113.694 71.9669C113.758 71.9669 113.822 71.9513 113.918 71.9199L113.982 71.8886L114.046 71.7788L114.238 71.6377L114.366 71.5123C114.895 71.3869 115.167 70.9323 115.471 70.9323C115.583 70.9323 115.615 70.9793 115.615 71.0891C115.615 71.1047 115.567 71.1988 115.535 71.3556L115.423 71.481C115.135 71.8259 114.799 72.1707 114.43 72.5156L114.35 72.594L114.222 72.6724C114.174 72.8448 114.078 72.8762 113.902 72.9702L113.79 73.08L113.47 73.2054C113.342 73.2681 113.246 73.2994 113.166 73.2994C112.83 73.2994 112.43 72.9702 112.174 72.3589L112.158 72.2021C111.966 72.0453 111.79 71.8572 111.63 71.6377C111.566 71.6064 111.502 71.5907 111.454 71.5907C111.31 71.5907 111.118 71.7475 110.814 71.9983L110.67 72.0453L110.542 72.2178C110.43 72.3589 110.302 72.4529 110.142 72.4999L109.918 72.8291C109.405 73.3935 109.053 73.7697 108.813 73.9735C108.573 74.2871 108.365 74.3968 107.949 74.3968C107.757 74.3968 107.693 74.3654 107.645 74.1616L107.661 73.9422L107.613 73.8638L107.645 73.7227C107.933 72.7664 108.077 72.2491 108.077 72.1551C108.077 72.1394 108.125 72.0767 108.173 71.9356L108.253 71.8102C108.221 71.7475 108.221 71.7161 108.221 71.7004C108.221 71.5437 108.397 71.3085 108.397 71.042C108.397 70.995 108.333 70.9636 108.253 70.9636C107.837 70.9636 107.789 71.3242 107.597 71.4339L107.405 71.6848L107.229 71.8415L107.117 71.8729L107.069 71.9199L107.021 71.9983L106.957 72.0924C106.877 72.1237 106.829 72.1551 106.813 72.2021L106.669 72.3275C105.917 72.9075 105.469 73.2054 105.341 73.2054C105.245 73.2054 105.181 73.1427 105.181 73.0486C105.181 72.9389 105.245 72.8605 105.389 72.7821V72.641C105.917 72.014 106.269 71.7318 106.317 71.7318C106.317 71.7161 106.301 71.6848 106.301 71.6848C106.301 71.6534 106.317 71.6534 106.349 71.6534H106.365C106.413 71.6534 106.445 71.6064 106.461 71.4966L106.573 71.4026L106.733 71.2615ZM119.009 65.4299C118.929 65.6807 118.833 66.0256 118.737 66.4331C118.849 66.4331 118.929 66.4488 119.025 66.4959C119.089 66.4959 119.121 66.5115 119.121 66.5742V66.6213C119.137 67.0289 119.185 67.264 119.185 67.3267C119.185 67.6402 119.073 67.7029 118.769 67.7029C118.721 67.7029 118.577 67.6873 118.353 67.6873C118.241 68.0165 118.145 68.2046 118.113 68.2673C118.129 68.33 118.161 68.377 118.161 68.4084C118.161 68.4711 118.113 68.5024 118.049 68.5808C117.697 69.929 117.425 71.0577 117.297 71.9826V72.0296C117.281 72.0767 117.265 72.1237 117.265 72.1551C117.265 72.1707 117.265 72.1864 117.281 72.2178C117.185 72.6724 117.169 72.9546 117.169 73.0329C117.169 73.1113 117.265 73.1897 117.313 73.1897C117.393 73.1897 117.473 73.1113 117.633 73.0016C117.681 73.0016 117.729 72.9859 117.793 72.9859H117.841C117.825 72.9389 117.809 72.8919 117.809 72.8605C117.809 72.8448 117.809 72.8291 117.841 72.7821C118.097 72.5626 118.321 72.3902 118.529 72.2334C118.545 72.1394 118.577 72.108 118.657 72.061C118.833 71.9513 118.961 71.8259 119.073 71.7004L119.137 71.6848L119.185 71.5907C119.329 71.4966 119.457 71.4183 119.617 71.3712C119.729 71.2772 119.841 71.1674 119.969 71.1047L120.065 71.0577C120.177 70.9793 120.273 70.9323 120.369 70.9323C120.449 70.9323 120.529 70.9636 120.529 71.0264C120.529 71.0891 120.497 71.1518 120.449 71.2301L120.417 71.3399C120.289 71.4966 120.129 71.6691 119.937 71.8415C119.921 71.9826 119.889 72.0296 119.729 72.0296L119.617 72.2178L119.361 72.4686C119.137 72.7194 118.993 72.8448 118.913 72.8762C118.833 72.8762 118.817 72.9075 118.801 72.9859C118.561 73.3151 118.369 73.5189 118.161 73.6286C118.049 73.6443 118.017 73.6914 118.001 73.8011C117.745 74.1303 117.409 74.3968 117.009 74.6163H116.977C116.913 74.679 116.817 74.726 116.705 74.726C116.672 74.726 116.64 74.7103 116.592 74.7103C116.576 74.6946 116.56 74.679 116.544 74.679C116.528 74.679 116.496 74.6946 116.448 74.7103C116.384 74.6946 116.352 74.6633 116.304 74.6163C115.84 74.5222 115.792 74.3027 115.792 73.707C115.792 73.6757 115.792 73.613 115.808 73.5032V73.4405C115.808 73.3778 115.792 73.3465 115.776 73.2994V73.0486C115.776 72.8762 115.808 72.6881 115.872 72.5156L115.92 72.4216C115.888 72.3902 115.872 72.3432 115.872 72.2961V72.2334C115.984 71.6691 116.096 71.2458 116.208 70.9636C116.304 70.8696 116.368 70.8069 116.368 70.7599C116.368 70.7285 116.352 70.6971 116.32 70.6501L116.368 70.415L116.272 70.5717C116.128 70.6501 116.064 70.7755 115.952 70.995C115.84 71.1204 115.68 71.1204 115.648 71.3242L115.456 71.4966C115.392 71.6377 115.344 71.7004 115.248 71.7004C115.12 71.7004 115.088 71.7318 115.072 71.8572L115.024 71.9826L114.832 72.1237C114.72 72.1864 114.672 72.2491 114.64 72.3745L114.544 72.4372C114.384 72.5156 114.272 72.5783 114.176 72.6724C114.08 72.7037 114 72.7508 113.904 72.8291C113.776 72.8919 113.664 72.9546 113.584 73.0486L113.44 73.1584C113.36 73.1897 113.296 73.1897 113.28 73.1897C113.136 73.1897 113.088 73.1584 113.088 73.0329V72.9859C113.136 72.8762 113.184 72.8291 113.296 72.7978V72.594C113.472 72.4529 113.584 72.3432 113.648 72.2648L113.632 72.1551L113.888 72.0296C113.952 71.8886 114.048 71.8102 114.192 71.7318L114.288 71.5907C114.368 71.5437 114.432 71.5123 114.464 71.4496C114.512 71.4339 114.592 71.4026 114.656 71.4026V71.2772C114.88 71.0107 115.088 70.7599 115.28 70.5404C115.344 70.3209 115.536 70.1014 115.792 69.7879C115.888 69.7722 115.936 69.7409 115.936 69.6782C115.936 69.6625 115.92 69.6311 115.904 69.5841C116.048 69.396 116.176 69.1922 116.272 68.9727H116.288C116.496 68.9727 116.512 68.5495 116.897 67.9538C116.977 67.8754 117.057 67.75 117.121 67.6089L116.913 67.5775C116.753 67.6402 116.624 67.6716 116.528 67.6716C116.416 67.6716 116.288 67.6402 116.16 67.6402C116.144 67.6402 116.112 67.6559 116.064 67.6716C116.032 67.6559 115.984 67.6559 115.968 67.6559C115.936 67.6559 115.904 67.6559 115.84 67.6873H114.976C114.912 67.6559 114.864 67.6089 114.832 67.5305C114.8 67.5932 114.752 67.6402 114.688 67.6873C114.672 67.6873 114.64 67.7029 114.624 67.7029C114.512 67.7029 114.4 67.6402 114.288 67.5619C114.096 67.5462 114.096 67.4991 114.096 67.3267C114.096 67.2013 114.144 67.0132 114.144 66.731C114.144 66.6683 114.128 66.5899 114.128 66.5115H114.208C114.224 66.5115 114.256 66.4959 114.304 66.4488C114.528 66.4175 114.688 66.3861 114.784 66.3861C114.96 66.3861 115.136 66.4018 115.312 66.4331C115.52 66.4175 115.728 66.4018 115.936 66.4018C115.968 66.4018 116.08 66.4175 116.272 66.4331C116.288 66.4488 116.32 66.4488 116.336 66.4488C116.352 66.4488 116.4 66.4331 116.464 66.4018C116.592 66.3861 116.705 66.3861 116.785 66.3861C116.849 66.3861 116.961 66.4018 117.137 66.4331L117.217 66.4959C117.393 66.4802 117.521 66.4488 117.617 66.4175C117.825 65.9785 117.937 65.6964 117.969 65.5866C118.033 65.4455 118.129 65.3515 118.257 65.3044V65.2731C118.257 65.132 118.497 65.0223 118.689 65.0223C118.817 65.0223 118.881 65.0693 118.929 65.2104C118.977 65.2888 119.009 65.3515 119.009 65.4299Z" fill="#F4B737"/>
<rect y="41" width="121" height="13" fill="#E67015"/>
<path d="M9.4 51V43.65H10.41L11.41 47.48L11.5 47.82H11.56V43.65H12.55V51H11.64L10.54 47.17L10.45 46.83H10.39V51H9.4ZM23.6953 51V43.65H26.1653V44.76H24.7753V46.74H25.7753V47.82H24.7753V49.89H26.1653V51H23.6953ZM38.0368 51V44.76H37.0168V43.65H40.1368V44.76H39.1168V51H38.0368ZM51.7271 51L50.7371 43.65H51.7371L52.1671 47.47L52.1871 47.71H52.2671L52.2971 47.47L52.7571 43.65H53.5371L53.9971 47.47L54.0271 47.71H54.1071L54.1271 47.47L54.5571 43.65H55.5571L54.5671 51H53.7271L53.2271 47.52L53.1671 47.09H53.1271L53.0671 47.52L52.5671 51H51.7271ZM67.8443 51.08C67.5443 51.08 67.286 51.01 67.0693 50.87C66.856 50.73 66.691 50.54 66.5743 50.3C66.461 50.06 66.4043 49.79 66.4043 49.49V45.16C66.4043 44.8567 66.461 44.5867 66.5743 44.35C66.691 44.11 66.856 43.92 67.0693 43.78C67.286 43.64 67.5443 43.57 67.8443 43.57C68.1443 43.57 68.401 43.64 68.6143 43.78C68.831 43.92 68.996 44.11 69.1093 44.35C69.226 44.59 69.2843 44.86 69.2843 45.16V49.49C69.2843 49.79 69.226 50.06 69.1093 50.3C68.996 50.54 68.831 50.73 68.6143 50.87C68.401 51.01 68.1443 51.08 67.8443 51.08ZM67.8443 50.03C67.9776 50.03 68.071 49.975 68.1243 49.865C68.1776 49.7517 68.2043 49.6267 68.2043 49.49V45.16C68.2043 45.0233 68.176 44.9 68.1193 44.79C68.0626 44.6767 67.971 44.62 67.8443 44.62C67.721 44.62 67.6293 44.6767 67.5693 44.79C67.5126 44.9 67.4843 45.0233 67.4843 45.16V49.49C67.4843 49.6267 67.5126 49.7517 67.5693 49.865C67.626 49.975 67.7176 50.03 67.8443 50.03ZM80.3883 51V43.65H81.4683C82.1149 43.65 82.5916 43.83 82.8983 44.19C83.2049 44.5467 83.3583 45.0733 83.3583 45.77C83.3583 46.1833 83.2849 46.5417 83.1383 46.845C82.9949 47.145 82.8199 47.365 82.6133 47.505L83.3483 51H82.2683L81.6583 47.9H81.4683V51H80.3883ZM81.4683 46.9C81.6683 46.9 81.8266 46.8567 81.9433 46.77C82.0599 46.68 82.1433 46.5533 82.1933 46.39C82.2433 46.2267 82.2683 46.0333 82.2683 45.81C82.2683 45.46 82.2099 45.1917 82.0933 45.005C81.9799 44.815 81.7716 44.72 81.4683 44.72V46.9ZM94.3125 51V43.65H95.3925V46.1V46.22H95.4325L95.4825 46.1L96.3225 43.65H97.4325L96.4425 46.07L97.5625 51H96.4525L95.7325 47.65H95.7025L95.3925 48.4V51H94.3125ZM109.713 51.08C109.416 51.08 109.169 51.0317 108.973 50.935C108.776 50.835 108.621 50.6917 108.508 50.505C108.394 50.3183 108.313 50.0933 108.263 49.83C108.216 49.5667 108.193 49.27 108.193 48.94L109.253 48.84C109.253 49 109.258 49.155 109.268 49.305C109.281 49.4517 109.303 49.585 109.333 49.705C109.366 49.8217 109.413 49.915 109.473 49.985C109.536 50.055 109.616 50.09 109.713 50.09C109.873 50.09 109.986 50.0167 110.053 49.87C110.119 49.72 110.153 49.54 110.153 49.33C110.153 49.12 110.098 48.9017 109.988 48.675C109.878 48.4483 109.746 48.2333 109.593 48.03C109.333 47.6833 109.104 47.3617 108.908 47.065C108.714 46.7683 108.563 46.4767 108.453 46.19C108.346 45.9033 108.293 45.6033 108.293 45.29C108.293 45.0433 108.324 44.8167 108.388 44.61C108.451 44.4 108.543 44.2183 108.663 44.065C108.786 43.9083 108.934 43.7867 109.108 43.7C109.281 43.6133 109.479 43.57 109.703 43.57C109.979 43.57 110.213 43.6167 110.403 43.71C110.596 43.8033 110.751 43.9367 110.868 44.11C110.988 44.2833 111.074 44.49 111.128 44.73C111.184 44.9667 111.213 45.23 111.213 45.52L110.153 45.62C110.153 45.4967 110.146 45.3733 110.133 45.25C110.123 45.1233 110.103 45.0083 110.073 44.905C110.043 44.8017 109.999 44.7183 109.943 44.655C109.886 44.5917 109.813 44.56 109.723 44.56C109.583 44.56 109.486 44.62 109.433 44.74C109.379 44.8567 109.353 45.0233 109.353 45.24C109.353 45.52 109.428 45.79 109.578 46.05C109.728 46.31 109.929 46.6133 110.183 46.96C110.486 47.37 110.733 47.7467 110.923 48.09C111.116 48.4333 111.213 48.8133 111.213 49.23C111.213 49.4933 111.184 49.7383 111.128 49.965C111.071 50.1883 110.981 50.3833 110.858 50.55C110.738 50.7167 110.583 50.8467 110.393 50.94C110.206 51.0333 109.979 51.08 109.713 51.08Z" fill="black"/>
</svg>
