<?xml version="1.0" encoding="UTF-8"?>
<svg xmlns="http://www.w3.org/2000/svg" width="210" height="100" viewBox="0 0 210 100" fill="none">
  <g id="ey 1" clip-path="url(#clip0_1485_369)">
    <path id="Vector" d="M94.142 0L0.0410156 34.3732L94.142 17.7538V0Z" fill="#FFE500"></path>
    <path id="Vector_2" d="M91.9306 76.0068C91.9306 74.2488 90.7391 73.4544 90.0584 73.1711C90.9092 72.717 91.4764 71.696 91.4764 70.6754C91.4764 68.5767 90.0584 67.3855 87.5627 67.3855H82.2312V80.0344H87.563C90.2857 80.0912 91.9306 78.5597 91.9306 76.0068ZM87.563 77.9354H84.5568V74.3619H87.563C88.8109 74.3619 89.4916 74.9858 89.4916 76.177C89.4916 77.2547 88.7542 77.9354 87.563 77.9354ZM87.5063 72.2632H84.5568V69.5406H87.3929C88.5273 69.5406 89.0378 69.9944 89.0378 70.9019C89.0945 71.5258 88.8109 72.2632 87.5063 72.2632ZM93.5755 76.0636V70.8452H95.8444V75.9505C95.8444 77.482 96.4116 78.2193 97.546 78.2193C98.6808 78.2193 99.2477 77.482 99.2477 75.9505V70.8452H101.517V80.0908H99.2477V79.3534C98.6808 79.9773 97.9431 80.3177 97.0355 80.3177C94.0293 80.2613 93.5755 77.6518 93.5755 76.0636ZM128.402 80.0911H126.134V70.8455H128.402V71.64C128.969 71.0157 129.764 70.6754 130.728 70.6754C132.94 70.6754 134.131 72.1505 134.131 74.8728V80.0911H131.862V74.9858C131.862 73.4544 131.352 72.717 130.217 72.717C129.082 72.717 128.459 73.5115 128.459 74.9858V80.0911H128.402ZM105.884 75.3829V80.0908H103.615V70.8452H105.884V75.3829ZM107.926 68.1225L110.195 66.9881V80.0908H107.926V68.1225ZM117.455 71.4695C116.888 70.9023 116.207 70.6183 115.413 70.6183C113.201 70.6183 111.783 72.4334 111.783 75.3262C111.783 78.3895 113.144 80.2613 115.357 80.2613C116.151 80.2613 116.831 79.9773 117.455 79.3538V80.0344H119.724V66.9318L117.455 68.0662V71.4695ZM115.867 78.1623C115.073 78.1623 114.109 77.6518 114.109 75.3262C114.109 73.1711 115.016 72.7737 115.81 72.7737C116.661 72.7737 117.172 73.2842 117.456 73.6813V77.3114C117.115 77.7085 116.718 78.1623 115.867 78.1623ZM167.2 70.6183C166.463 70.6183 165.725 70.959 165.158 71.4695V67.215L162.889 68.3498V80.0344H165.158V79.3538C165.725 79.921 166.463 80.2613 167.257 80.2613C169.526 80.2613 170.83 78.4462 170.83 75.3262C170.83 72.4334 169.469 70.6183 167.2 70.6183ZM166.803 72.717C167.653 72.717 168.505 73.3976 168.505 75.2698C168.505 77.198 167.937 78.1055 166.803 78.1055C165.952 78.1055 165.385 77.5383 165.158 77.2547V73.6245C165.555 73.0573 166.122 72.717 166.803 72.717ZM141.278 71.4695C140.711 70.9023 140.03 70.6183 139.236 70.6183C137.024 70.6183 135.606 72.4334 135.606 75.3262C135.606 78.3895 136.967 80.2613 139.18 80.2613C139.974 80.2613 140.711 79.9773 141.278 79.3538V79.5807C141.278 80.6016 141.278 81.963 138.329 82.0197H138.215L139.009 83.8348H139.066C142.072 83.7781 143.547 82.3033 143.547 79.2403V70.8452H141.278V71.4695ZM141.278 73.6245V77.2547C140.938 77.7085 140.484 78.1623 139.633 78.1623C138.839 78.1623 137.931 77.6518 137.931 75.3262C137.931 73.1711 138.839 72.7737 139.633 72.7737C140.484 72.717 140.995 73.2275 141.278 73.6245ZM150.637 73.114C151.375 72.717 152.055 72.4901 153.02 72.4901C154.097 72.4901 154.665 72.9439 154.665 73.7947V74.419C154.154 74.135 153.36 73.9649 152.68 73.9649C150.978 73.9649 148.993 74.7593 148.993 76.9711C148.993 79.3534 150.865 80.2609 152.396 80.2609C153.02 80.2609 153.985 80.0341 154.609 79.2963V80.0337H156.877V73.7943C156.877 71.8094 155.459 70.5612 153.133 70.5612C151.886 70.5612 150.751 70.8448 149.673 71.4687L150.637 73.114ZM151.318 77.0278C151.318 76.2337 151.885 75.7232 152.906 75.7232C153.587 75.7232 154.154 75.8367 154.721 76.177V77.4249C154.438 77.9354 153.757 78.3895 152.906 78.3895C151.885 78.3895 151.318 77.8786 151.318 77.0278ZM178.204 77.3681C177.807 77.7652 177.239 78.1626 176.389 78.1626C175.935 78.1626 174.46 77.9925 174.347 76.1206H180.019V75.44C180.019 72.4905 178.487 70.6183 176.162 70.6183C173.779 70.6183 172.021 72.6606 172.021 75.44C172.021 78.3328 173.723 80.2613 176.389 80.2613C177.58 80.2613 178.771 79.8072 179.622 78.7862L178.204 77.3681ZM174.347 74.4754C174.403 73.3409 175.084 72.5468 176.049 72.5468C177.24 72.5468 177.75 73.5115 177.807 74.4754H174.347ZM200.212 77.3681C199.815 77.7652 199.248 78.1626 198.397 78.1626C197.943 78.1626 196.468 77.9925 196.354 76.1206H202.027V75.44C202.027 72.4905 200.495 70.6183 198.17 70.6183C195.788 70.6183 194.029 72.6606 194.029 75.44C194.029 78.3328 195.731 80.2613 198.397 80.2613C199.588 80.2613 200.779 79.8072 201.687 78.7862L200.212 77.3681ZM196.355 74.4754C196.411 73.3409 197.092 72.5468 198.057 72.5468C199.248 72.5468 199.758 73.5115 199.814 74.4754H196.355ZM190.852 76.8577C190.852 77.6521 191.136 78.1055 191.817 78.1055C192.271 78.1055 192.781 77.9354 193.178 77.7085L192.894 79.8639C192.384 80.1475 191.703 80.3177 190.966 80.3177C189.151 80.3177 188.527 78.7862 188.527 77.482V73.001H187.166V70.8455H188.584V68.4632L190.852 67.3288V70.8452H192.951V73.0006H190.852V76.8577ZM186.429 79.8639C185.918 80.1475 185.237 80.3177 184.5 80.3177C182.685 80.3177 182.061 78.7862 182.061 77.482V73.001H180.643V70.8455H182.061V68.4632L184.33 67.3288V70.8452H186.258V73.0006H184.33V76.9144C184.33 77.7085 184.613 78.1623 185.294 78.1623C185.748 78.1623 186.259 77.9921 186.656 77.7652L186.429 79.8639ZM208.947 73.3976C208.507 73.0621 207.968 72.8825 207.415 72.8872C206.281 72.8872 205.77 73.5678 205.77 75.0426V80.0341H203.501V70.7888H205.77V71.5829C206.337 70.9023 207.018 70.5619 207.812 70.5619C208.437 70.5619 209.117 70.7885 209.514 71.1292L208.947 73.3976ZM105.884 68.3498V69.4842H103.615V67.2154H105.884V68.3498ZM121.766 70.8452H124.035V80.0908H121.766V70.8452ZM124.035 68.3498V69.4842H121.766V67.2154H124.035V68.3498ZM186.712 87.6347C186.145 87.0675 185.464 86.7839 184.67 86.7839C182.458 86.7839 181.04 88.599 181.04 91.4918C181.04 94.5548 182.401 96.4266 184.613 96.4266C185.408 96.4266 186.089 96.143 186.712 95.5194V96.2001H188.981V83.097L186.712 84.2318V87.6347ZM185.124 94.3279C184.33 94.3279 183.366 93.8174 183.366 91.4922C183.366 89.3368 184.273 88.9397 185.067 88.9397C185.918 88.9397 186.429 89.4502 186.712 89.8469V93.4771C186.372 93.8174 185.974 94.3279 185.124 94.3279ZM109.23 89.5633C108.791 89.2277 108.252 89.048 107.699 89.0528C106.564 89.0528 106.054 89.7334 106.054 91.2078V96.1997H103.785V86.9541H106.054V87.7482C106.621 87.0675 107.301 86.7272 108.096 86.7272C108.72 86.7272 109.4 86.9541 109.797 87.2944L109.23 89.5633ZM91.2496 86.9541H93.5184L90.9092 96.1997H88.9243L87.9034 92.3426C87.7332 91.662 87.5063 90.8675 87.3929 90.3574C87.279 90.7544 87.0525 91.8889 86.8824 92.4561L85.8614 96.2001H83.9328L81.3237 86.9544H83.6489L84.5001 90.4145C84.6135 90.9817 84.8404 92.0027 84.9538 92.6833C85.0673 92.0027 85.3509 90.9817 85.521 90.3577L86.4853 86.9544H88.4138L89.3781 90.3577C89.5483 90.9821 89.7752 91.9459 89.9453 92.6833C90.0588 92.1161 90.2289 91.2082 90.4558 90.3577L91.2496 86.9541ZM98.1699 86.7839C95.7313 86.7839 93.9729 88.8259 93.9729 91.6052C93.9729 94.3846 95.7313 96.4266 98.1699 96.4266C100.609 96.4266 102.367 94.3846 102.367 91.6052C102.367 88.7695 100.609 86.7839 98.1699 86.7839ZM98.1699 94.2715C97.0355 94.2715 96.2981 93.1938 96.2981 91.6056C96.2981 89.9607 97.0355 88.9401 98.1699 88.9401C99.3047 88.9401 100.042 90.0174 100.042 91.6056C100.042 93.1938 99.3044 94.2715 98.1699 94.2715ZM175.481 89.5633C175.042 89.2277 174.503 89.048 173.95 89.0528C172.815 89.0528 172.305 89.7334 172.305 91.2078V96.1997H170.036V86.9541H172.305V87.7482C172.872 87.0675 173.552 86.7272 174.347 86.7272C174.971 86.7272 175.652 86.9541 176.049 87.2944L175.481 89.5633ZM157.557 86.9541H159.826L157.217 96.1997H155.232L154.211 92.3426C154.041 91.662 153.814 90.8675 153.7 90.3574C153.587 90.7544 153.36 91.8889 153.19 92.4561L152.169 96.2001H150.184V96.1433L147.575 86.9544H149.9L150.751 90.4145C150.865 90.9817 151.091 92.0027 151.205 92.6833C151.318 92.0027 151.602 90.9817 151.772 90.3577L152.736 86.9544H154.665L155.629 90.3577C155.799 90.9821 156.026 91.9459 156.196 92.6833C156.31 92.1161 156.48 91.2082 156.707 90.3577L157.557 86.9541ZM164.421 86.7839C161.982 86.7839 160.223 88.8259 160.223 91.6052C160.223 94.3846 161.982 96.4266 164.421 96.4266C166.86 96.4266 168.618 94.3846 168.618 91.6052C168.618 88.8259 166.86 86.7839 164.421 86.7839ZM164.421 94.2715C163.286 94.2715 162.549 93.2505 162.549 91.6056C162.549 89.9607 163.286 88.9401 164.421 88.9401C165.555 88.9401 166.292 90.0174 166.292 91.6056C166.292 93.1938 165.555 94.2715 164.421 94.2715ZM116.037 90.017L118.873 96.2001H116.378L114.449 91.8888L113.258 93.4207V96.2001H110.989V84.2882L113.258 83.1537V90.5275C113.532 90.1427 113.816 89.7644 114.109 89.3931L115.924 87.0108H118.533L116.037 90.017ZM126.871 96.2001H124.602V86.9541H126.871V87.7482C127.438 87.1243 128.232 86.7839 129.196 86.7839C131.408 86.7839 132.6 88.259 132.6 90.9813V96.1997H130.331V91.0944C130.331 89.5629 129.82 88.8255 128.686 88.8255C127.551 88.8255 126.927 89.62 126.927 91.0944V96.1997L126.871 96.2001ZM139.747 87.6347C139.18 87.0675 138.499 86.7839 137.705 86.7839C135.492 86.7839 134.075 88.599 134.075 91.4918C134.075 94.5548 135.436 96.4266 137.648 96.4266C138.442 96.4266 139.18 96.143 139.747 95.5194V95.7459C139.747 96.7669 139.747 98.1282 136.797 98.1849H136.683L137.478 100H137.535C140.541 99.9433 142.016 98.4682 142.016 95.4052V87.0104H139.747V87.6347ZM139.747 89.7905V93.4207C139.406 93.8745 138.952 94.3279 138.102 94.3279C137.307 94.3279 136.4 93.8174 136.4 91.4922C136.4 89.3368 137.307 88.9397 138.102 88.9397C138.952 88.8826 139.463 89.3931 139.747 89.7905ZM120.235 86.9541H122.503V96.2001H120.235V86.9541ZM122.503 84.5151V85.6499H120.235V83.381H122.503V84.5151ZM177.183 84.2882L179.451 83.1537V96.2001H177.183V84.2882ZM15.1297 77.4249H32.3159V67.4419H15.1297V59.6143H34.1877L27.892 48.6104H0.892578V96.2001H38.9527V85.2524H15.1297V77.4249ZM64.3072 48.6104L56.2528 64.152L48.1979 48.6104H32.3726L48.992 77.4249V96.2001H63.2291V77.4249L79.8482 48.6104H64.3072Z" fill="#58595B"></path>
  </g>
  <defs>
    <clipPath id="clip0_1485_369">
      <rect width="209.556" height="100" fill="white"></rect>
    </clipPath>
  </defs>
</svg>
