<?xml version="1.0" encoding="UTF-8"?>
<svg xmlns="http://www.w3.org/2000/svg" width="15" height="15" viewBox="0 0 15 15" fill="none">
  <g id="Group 344">
    <g id="Group 343">
      <g id="Group 342">
        <path id="Vector" fill-rule="evenodd" clip-rule="evenodd" d="M13.1674 0C14.1788 0 15 0.821191 15 1.83264V13.1674C15 14.1788 14.1788 15 13.1674 15H10.0482V9.34819H11.9994L12.3706 6.92766H10.0482V5.35685C10.0482 4.69465 10.3726 4.04915 11.4128 4.04915H12.4688V1.98841C12.4688 1.98841 11.5104 1.82487 10.5943 1.82487C8.68154 1.82487 7.43139 2.98412 7.43139 5.0828V6.92766H5.30522V9.34819H7.43139V15H1.83264C0.821191 15 0 14.1788 0 13.1674V1.83264C0 0.821191 0.821162 0 1.83264 0H13.1674V0Z" fill="white"></path>
      </g>
    </g>
  </g>
</svg>
