<?xml version="1.0" encoding="UTF-8"?>
<svg xmlns="http://www.w3.org/2000/svg" width="176" height="90" viewBox="0 0 176 90" fill="none">
  <path d="M67.5586 15.6097C67.3824 17.1334 67.2638 18.649 67.2013 20.1551C67.1404 21.6612 67.11 23.1864 67.11 24.726C67.11 26.2512 67.1356 27.7669 67.1885 29.2729C67.2414 30.779 67.3647 32.2931 67.5586 33.8183H61.8064C62.0179 32.3122 62.1445 30.8014 62.1878 29.2857C62.2326 27.77 62.2551 26.2512 62.2551 24.726C62.2551 23.1864 62.2278 21.6612 62.1749 20.1551C62.1221 18.649 62.0003 17.1334 61.8064 15.6097H67.5586Z" fill="#19398A"></path>
  <path d="M74.5765 15.6097C76.1419 17.4492 77.7474 19.2361 79.3913 20.9688C81.0369 22.703 82.7209 24.4213 84.4449 26.1204C84.4097 24.3511 84.344 22.5945 84.2478 20.8507C84.1501 19.1085 83.9883 17.3615 83.7591 15.6097H87.2697C87.1271 16.9403 87.0086 18.2932 86.9124 19.6685C86.8163 21.0437 86.7666 22.4238 86.7666 23.807C86.7666 25.4886 86.781 27.1574 86.8067 28.8135C86.8339 30.4679 86.8644 32.1367 86.8996 33.8183H84.2607C82.5014 31.8559 80.7388 29.9287 78.9699 28.0381C77.2026 26.1459 75.3856 24.2793 73.5222 22.4413C73.4677 23.1242 73.4421 23.807 73.4421 24.4899C73.4421 26.0661 73.4821 27.6312 73.5622 29.1804C73.6407 30.7312 73.8026 32.2771 74.0493 33.8183H70.6188C70.8111 32.1894 70.9393 30.5732 71.0018 28.9714C71.0627 27.3664 71.0931 25.7439 71.0931 24.0958C71.0931 22.6599 71.0675 21.2448 71.0146 19.8536C70.9617 18.4607 70.8912 17.0472 70.8031 15.6097H74.5765Z" fill="#19398A"></path>
  <path d="M97.9837 15.6097C98.8105 15.6097 99.6324 15.6321 100.45 15.6752C101.268 15.7198 102.073 15.8554 102.864 16.0836C104.712 16.6085 106.083 17.5051 106.982 18.7751C107.878 20.0466 108.326 21.6261 108.326 23.5183C108.326 25.27 108.014 26.8032 107.391 28.1163C106.764 29.4293 105.917 30.5254 104.845 31.4013C103.771 32.2771 102.509 32.9376 101.057 33.3844C99.6068 33.8311 98.0622 34.0544 96.4263 34.0544C95.4937 34.0544 94.4907 34.0289 93.4188 33.9763C92.3453 33.9236 91.3615 33.7561 90.4626 33.4769C90.6212 32.199 90.7141 30.9194 90.7398 29.6399C90.767 28.362 90.7798 27.0745 90.7798 25.7774C90.7798 24.0783 90.7574 22.3839 90.7141 20.6944C90.6709 19.0032 90.5427 17.3089 90.3312 15.6097H97.9837ZM95.662 24.8584C95.662 25.6992 95.6652 26.5751 95.6748 27.4861C95.6828 28.3971 95.7132 29.273 95.7661 30.1137C95.7837 30.4456 95.8206 30.7264 95.8719 30.9545C95.9247 31.1811 96.0129 31.3614 96.1362 31.4922C96.2596 31.6246 96.4311 31.7156 96.6506 31.7682C96.8701 31.8209 97.1553 31.848 97.5078 31.848C98.4932 31.848 99.3296 31.6326 100.015 31.2034C100.701 30.7743 101.259 30.2174 101.69 29.5362C102.122 28.8518 102.443 28.086 102.653 27.2356C102.864 26.3868 102.98 25.5413 102.997 24.7005C103.032 23.8246 102.957 22.971 102.773 22.1382C102.587 21.307 102.276 20.5667 101.836 19.919C101.395 19.2712 100.82 18.7495 100.107 18.3555C99.3937 17.9614 98.5381 17.7652 97.535 17.7652H95.662V24.8584Z" fill="#19398A"></path>
  <path d="M115.925 15.6097C115.749 17.1334 115.63 18.649 115.569 20.1551C115.507 21.6612 115.476 23.1864 115.476 24.726C115.476 26.2512 115.502 27.7669 115.555 29.2729C115.608 30.779 115.731 32.2931 115.925 33.8183H110.173C110.383 32.3122 110.511 30.8014 110.556 29.2857C110.598 27.77 110.622 26.2512 110.622 24.726C110.622 23.1864 110.594 21.6612 110.541 20.1551C110.49 18.649 110.367 17.1334 110.173 15.6097H115.925Z" fill="#19398A"></path>
  <path d="M128.697 15.6097C129.418 17.5896 130.169 19.5504 130.953 21.4952C131.735 23.4401 132.549 25.3753 133.395 27.301C133.886 28.405 134.398 29.4947 134.923 30.5732C135.452 31.6501 135.981 32.7318 136.506 33.8183H130.385C130.051 32.9249 129.7 32.0538 129.33 31.2034C128.961 30.3546 128.6 29.4915 128.248 28.6156H122.523C122.206 29.474 121.884 30.3323 121.558 31.1906C121.233 32.049 120.946 32.9249 120.701 33.8183H117.059C118.644 30.6306 120.147 27.4238 121.573 24.2011C122.188 22.7828 122.794 21.3644 123.393 19.9445C123.991 18.5262 124.545 17.0807 125.055 15.6097H128.697ZM123.207 26.3549H127.456L125.241 20.8379L123.207 26.3549Z" fill="#19398A"></path>
  <path d="M141.493 15.6097C143.057 17.4492 144.664 19.2361 146.308 20.9688C147.954 22.703 149.638 24.4213 151.362 26.1204C151.325 24.3511 151.259 22.5945 151.165 20.8507C151.065 19.1085 150.904 17.3615 150.676 15.6097H154.185C154.044 16.9403 153.925 18.2932 153.828 19.6685C153.732 21.0437 153.683 22.4238 153.683 23.807C153.683 25.4886 153.696 27.1574 153.724 28.8135C153.751 30.4679 153.78 32.1367 153.816 33.8183H151.176C149.418 31.8559 147.654 29.9287 145.887 28.0381C144.118 26.1459 142.302 24.2793 140.437 22.4413C140.385 23.1242 140.359 23.807 140.359 24.4899C140.359 26.0661 140.399 27.6312 140.477 29.1804C140.556 30.7312 140.718 32.2771 140.966 33.8183H137.534C137.728 32.1894 137.856 30.5732 137.917 28.9714C137.98 27.3664 138.008 25.7439 138.008 24.0958C138.008 22.6599 137.983 21.2448 137.931 19.8536C137.877 18.4607 137.806 17.0472 137.72 15.6097H141.493Z" fill="#19398A"></path>
  <path d="M61.8064 56.8646C62.0003 55.341 62.1221 53.8253 62.1749 52.3193C62.2278 50.8132 62.2551 49.2975 62.2551 47.7739C62.2551 46.2327 62.2278 44.7091 62.1749 43.203C62.1221 41.6969 62.0003 40.1813 61.8064 38.6576H69.5118C70.3017 38.6576 71.0548 38.7231 71.7678 38.8539C72.4792 38.9847 73.1041 39.2224 73.6409 39.5638C74.176 39.9053 74.599 40.3695 74.9083 40.9567C75.2143 41.5438 75.3681 42.292 75.3681 43.203C75.3681 44.114 75.2095 44.9197 74.8939 45.6201C74.5766 46.3205 74.1408 46.9028 73.588 47.3671C73.0336 47.8313 72.3831 48.1807 71.6364 48.4169C70.8865 48.6546 70.0742 48.7726 69.1945 48.7726C68.983 48.7726 68.7715 48.7647 68.5616 48.7455C68.3501 48.7296 68.1386 48.7024 67.9287 48.6673L67.3487 47.5378C67.9287 47.5027 68.403 47.3671 68.7715 47.1309C69.1417 46.8932 69.4269 46.5917 69.6304 46.2247C69.8322 45.8562 69.9684 45.4366 70.0389 44.9628C70.1094 44.4905 70.1447 44.0087 70.1447 43.5173C70.1447 42.4851 69.946 41.7703 69.5502 41.3762C69.1561 40.9822 68.4639 40.7859 67.4785 40.7859C67.3038 40.7859 67.1789 40.7939 67.11 40.8115V49.7985C67.11 50.9887 67.1452 52.1709 67.2157 53.3435C67.2846 54.5178 67.4 55.692 67.5586 56.8646H61.8064Z" fill="#19398A"></path>
  <path d="M88.7865 49.4821C89.0413 49.7805 89.2913 50.1043 89.538 50.4553C89.7848 50.8047 90.0139 51.1461 90.2254 51.4796C90.4353 51.8114 90.6035 52.0747 90.7269 52.2677C91.2364 53.0383 91.7427 53.8041 92.2427 54.5667C92.7458 55.3277 93.2505 56.0951 93.76 56.8641H87.3493C86.6443 55.4985 85.9152 54.1774 85.1574 52.8979C84.9635 52.5645 84.7664 52.2278 84.5645 51.8864C84.3626 51.545 84.1383 51.2259 83.8916 50.9276C83.7874 50.7872 83.6897 50.6787 83.6016 50.5989C83.5134 50.5207 83.3804 50.4713 83.2058 50.4553C83.241 51.5402 83.2795 52.6139 83.3244 53.6733C83.3676 54.7326 83.4606 55.7968 83.6016 56.8641H77.8478C78.0432 55.3405 78.165 53.8264 78.2179 52.3204C78.2708 50.8127 78.298 49.2986 78.298 47.7734C78.298 46.2338 78.2708 44.7086 78.2179 43.2025C78.165 41.6964 78.0432 40.1808 77.8478 38.6572H86.1075C86.8462 38.6572 87.5688 38.7353 88.2706 38.8933C88.9756 39.0512 89.6053 39.3145 90.1597 39.6814C90.7125 40.05 91.1579 40.5318 91.4912 41.1269C91.8261 41.7236 91.9927 42.4591 91.9927 43.3333C91.9927 44.8059 91.6194 45.9754 90.8711 46.8417C90.1228 47.7096 89.0365 48.327 87.6121 48.694C87.7002 48.7291 87.7835 48.7594 87.8636 48.7865C87.9421 48.812 88.0158 48.8423 88.0879 48.8774C88.2978 48.9827 88.5318 49.1838 88.7865 49.4821ZM83.2058 48.0893C83.2587 48.0893 83.35 48.0941 83.483 48.1037C83.6144 48.1116 83.7073 48.1164 83.7602 48.1164C84.2873 48.1164 84.736 47.9936 85.1045 47.7479C85.4746 47.5038 85.7694 47.1879 85.9906 46.8034C86.2085 46.4173 86.3671 45.9833 86.4648 45.5015C86.561 45.0197 86.6106 44.5522 86.6106 44.096C86.6106 43.2201 86.3991 42.4973 85.9761 41.9294C85.5547 41.3598 84.877 41.0742 83.9444 41.0742H83.2058V48.0893Z" fill="#19398A"></path>
  <path d="M107.377 56.8646C106.075 56.7769 104.774 56.7242 103.471 56.7083C102.17 56.6891 100.877 56.6812 99.5934 56.6812H98.3789C97.9912 56.6812 97.597 56.6987 97.1916 56.7338C96.8744 56.7689 96.5587 56.796 96.2415 56.812C95.9242 56.8295 95.6086 56.8487 95.2913 56.8646C95.4852 55.341 95.6086 53.8253 95.6614 52.3193C95.7143 50.8132 95.7416 49.2975 95.7416 47.7739C95.7416 46.2327 95.7143 44.7091 95.6614 43.203C95.6086 41.6969 95.4852 40.1813 95.2913 38.6576C95.8377 38.6576 96.3729 38.6704 96.9016 38.6975C97.4304 38.7231 97.9655 38.7358 98.5103 38.7358C99.813 38.7358 101.101 38.7326 102.377 38.7231C103.652 38.7135 104.94 38.6927 106.243 38.6576V41.4943C105.381 41.2502 104.522 41.0795 103.67 40.9822C102.816 40.8865 101.941 40.837 101.044 40.837C100.975 40.837 100.903 40.8418 100.834 40.8514C100.763 40.8593 100.693 40.8641 100.622 40.8641V46.4864C100.71 46.5055 100.779 46.5135 100.834 46.5135H101.071C101.809 46.5135 102.598 46.4784 103.433 46.4082C104.267 46.338 105.056 46.2598 105.794 46.1705V48.8524C105.056 48.7647 104.315 48.6897 103.577 48.6275C102.838 48.5668 102.09 48.5365 101.335 48.5365C101.212 48.5365 101.092 48.5413 100.978 48.5493C100.862 48.5588 100.745 48.562 100.622 48.562V51.0589C100.622 51.6189 100.632 52.1709 100.648 52.7149C100.665 53.2574 100.718 53.7998 100.806 54.3423C101.298 54.4651 101.809 54.5257 102.338 54.5257C103.235 54.5257 104.118 54.4651 104.988 54.3423C105.86 54.221 106.727 54.0982 107.589 53.9737L107.377 56.8646Z" fill="#19398A"></path>
  <path d="M115.184 38.6576C116.081 40.7413 116.979 42.8185 117.876 44.8846C118.773 46.9523 119.759 48.9832 120.832 50.9791C121.835 48.9657 122.784 46.9379 123.681 44.8974C124.578 42.8568 125.397 40.7764 126.136 38.6576H130.358C130.499 41.7241 130.734 44.7649 131.069 47.7883C131.402 50.81 131.843 53.8349 132.389 56.8646H126.69C126.69 55.0091 126.628 53.1696 126.504 51.3476C126.382 49.5257 126.214 47.6877 126.003 45.8291C125.107 47.6351 124.253 49.4555 123.444 51.295C122.635 53.1345 121.878 54.9916 121.173 56.8646H117.743C116.935 55.0091 116.125 53.1696 115.317 51.3476C114.508 49.5257 113.655 47.7053 112.757 45.8833C112.616 47.407 112.507 48.913 112.428 50.4016C112.348 51.8901 112.308 53.3978 112.308 54.9214V55.9201C112.308 56.2344 112.318 56.5503 112.334 56.8646H108.905C109.22 55.4989 109.475 54.1285 109.669 52.7532C109.863 51.378 110.029 49.9995 110.17 48.6147C110.347 46.9523 110.505 45.2962 110.645 43.6497C110.786 42.0033 110.856 40.3392 110.856 38.6576H115.184Z" fill="#19398A"></path>
  <path d="M140.412 38.6573C140.236 40.1809 140.117 41.6966 140.056 43.2027C139.994 44.7087 139.963 46.234 139.963 47.7735C139.963 49.2988 139.989 50.8128 140.042 52.3189C140.095 53.8266 140.218 55.3406 140.412 56.8643H134.66C134.87 55.3582 134.998 53.8473 135.041 52.3333C135.084 50.8176 135.108 49.2988 135.108 47.7735C135.108 46.234 135.081 44.7087 135.028 43.2027C134.975 41.6966 134.852 40.1809 134.66 38.6573H140.412Z" fill="#19398A"></path>
  <path d="M155.61 56.8648C154.308 56.777 153.007 56.7244 151.704 56.7084C150.401 56.6893 149.11 56.6813 147.825 56.6813H146.612C146.226 56.6813 145.828 56.6989 145.425 56.734C145.107 56.7691 144.792 56.7962 144.474 56.8121C144.157 56.8297 143.841 56.8488 143.524 56.8648C143.717 55.3411 143.841 53.8255 143.894 52.3194C143.947 50.8133 143.973 49.2977 143.973 47.7741C143.973 46.2329 143.947 44.7092 143.894 43.2032C143.841 41.6971 143.717 40.1814 143.524 38.6578C144.069 38.6578 144.606 38.6706 145.135 38.6977C145.662 38.7232 146.198 38.736 146.745 38.736C148.044 38.736 149.334 38.7328 150.61 38.7232C151.885 38.7136 153.173 38.6929 154.476 38.6578V41.4945C153.612 41.2504 152.757 41.0797 151.903 40.9823C151.049 40.8866 150.175 40.8371 149.278 40.8371C149.206 40.8371 149.137 40.8419 149.067 40.8515C148.996 40.8595 148.926 40.8643 148.855 40.8643V46.4865C148.943 46.5057 149.014 46.5137 149.067 46.5137H149.304C150.042 46.5137 150.829 46.4786 151.665 46.4084C152.5 46.3382 153.289 46.26 154.027 46.1707V48.8526C153.289 48.7648 152.548 48.6898 151.81 48.6276C151.071 48.567 150.323 48.5367 149.568 48.5367C149.443 48.5367 149.326 48.5415 149.211 48.5494C149.097 48.559 148.977 48.5622 148.855 48.5622V51.059C148.855 51.619 148.863 52.171 148.882 52.7151C148.898 53.2575 148.951 53.8 149.039 54.3424C149.531 54.4653 150.042 54.5259 150.571 54.5259C151.467 54.5259 152.351 54.4653 153.221 54.3424C154.093 54.2212 154.958 54.0983 155.822 53.9739L155.61 56.8648Z" fill="#19398A"></path>
  <path d="M168.658 49.4822C168.913 49.7806 169.163 50.1045 169.41 50.4555C169.657 50.8049 169.886 51.1463 170.097 51.4797C170.307 51.8116 170.475 52.0748 170.597 52.2679C171.107 53.0384 171.613 53.8043 172.114 54.5669C172.616 55.3279 173.121 56.0953 173.632 56.8643H167.219C166.516 55.4986 165.785 54.1776 165.029 52.898C164.835 52.5646 164.638 52.228 164.436 51.8866C164.234 51.5451 164.01 51.226 163.763 50.9277C163.658 50.7873 163.561 50.6788 163.473 50.599C163.385 50.5209 163.252 50.4714 163.078 50.4555C163.113 51.5403 163.151 52.6141 163.196 53.6734C163.239 54.7328 163.332 55.7969 163.473 56.8643H157.72C157.915 55.3406 158.038 53.8266 158.091 52.3205C158.143 50.8128 158.17 49.2988 158.17 47.7735C158.17 46.234 158.143 44.7087 158.091 43.2027C158.038 41.6966 157.915 40.1809 157.72 38.6573H165.979C166.718 38.6573 167.441 38.7355 168.144 38.8934C168.847 39.0514 169.475 39.3146 170.03 39.6816C170.584 40.0501 171.028 40.5319 171.363 41.127C171.696 41.7237 171.864 42.4592 171.864 43.3335C171.864 44.8061 171.49 45.9755 170.743 46.8418C169.995 47.7097 168.908 48.3272 167.485 48.6941C167.572 48.7292 167.655 48.7595 167.735 48.7866C167.814 48.8122 167.888 48.8425 167.96 48.8776C168.17 48.9829 168.402 49.1839 168.658 49.4822ZM163.078 48.0894C163.129 48.0894 163.222 48.0942 163.355 48.1038C163.486 48.1118 163.579 48.1166 163.632 48.1166C164.159 48.1166 164.608 47.9937 164.978 47.748C165.346 47.5039 165.641 47.188 165.862 46.8035C166.08 46.4174 166.239 45.9835 166.337 45.5017C166.433 45.0198 166.481 44.5524 166.481 44.0961C166.481 43.2202 166.271 42.4975 165.848 41.9295C165.427 41.3599 164.749 41.0744 163.816 41.0744H163.078V48.0894Z" fill="#19398A"></path>
  <path d="M73.8918 79.9125C72.5891 79.8248 71.2881 79.7721 69.9854 79.7546C68.6844 79.737 67.3913 79.729 66.1079 79.729H64.8934C64.4896 79.729 64.0842 79.7466 63.6805 79.7817C63.3632 79.8168 63.0508 79.8423 62.7431 79.8599C62.4355 79.8774 62.123 79.895 61.8074 79.9125C61.9997 78.3889 62.123 76.8732 62.1759 75.3672C62.2288 73.8611 62.256 72.3454 62.256 70.8218C62.256 69.2806 62.2288 67.757 62.1759 66.2493C62.123 64.7432 61.9997 63.2292 61.8074 61.7039H67.5596C67.3833 63.2292 67.2648 64.7432 67.2023 66.2493C67.1414 67.757 67.1109 69.2806 67.1109 70.8218C67.1109 71.3307 67.1142 71.8381 67.1238 72.3454C67.1318 72.8544 67.1366 73.3617 67.1366 73.8707C67.1366 74.4482 67.1462 75.0353 67.1638 75.6304C67.1798 76.2255 67.2327 76.8126 67.3208 77.3902C67.5852 77.4779 67.84 77.5306 68.0867 77.5481C68.3335 77.5657 68.5883 77.5736 68.8526 77.5736C69.7483 77.5736 70.6328 77.513 71.5044 77.3902C72.3744 77.2689 73.2413 77.1445 74.1033 77.0232L73.8918 79.9125Z" fill="#19398A"></path>
  <path d="M88.061 79.9125C86.7583 79.8248 85.4573 79.7721 84.1562 79.7546C82.8536 79.737 81.5605 79.729 80.2755 79.729H79.0626C78.6764 79.729 78.279 79.7466 77.8753 79.7817C77.558 79.8168 77.2408 79.8423 76.9251 79.8599C76.6095 79.8774 76.2922 79.895 75.975 79.9125C76.1688 78.3889 76.2922 76.8732 76.3451 75.3672C76.398 73.8611 76.4252 72.3454 76.4252 70.8218C76.4252 69.2806 76.398 67.757 76.3451 66.2493C76.2922 64.7432 76.1688 63.2292 75.975 61.7039C76.5213 61.7039 77.0581 61.7183 77.5853 61.7438C78.114 61.771 78.6492 61.7837 79.1955 61.7837C80.4966 61.7837 81.7848 61.7789 83.0602 61.771C84.3357 61.763 85.6239 61.7406 86.9266 61.7039V64.5422C86.0629 64.2981 85.2073 64.1274 84.3533 64.0301C83.5009 63.9344 82.626 63.8849 81.7288 63.8849C81.6583 63.8849 81.5878 63.8897 81.5173 63.8993C81.4451 63.9072 81.3763 63.912 81.3058 63.912V69.5343C81.3939 69.5518 81.4644 69.5598 81.5173 69.5598H81.7544C82.493 69.5598 83.2798 69.5263 84.1162 69.4561C84.9509 69.3859 85.7393 69.3077 86.4779 69.2184V71.8987C85.7393 71.811 85.0006 71.7376 84.2604 71.6769C83.5217 71.6147 82.7734 71.5844 82.0188 71.5844C81.8954 71.5844 81.7768 71.5892 81.6615 71.5972C81.5477 71.6051 81.4275 71.6099 81.3058 71.6099V74.1052C81.3058 74.6668 81.3138 75.2188 81.3314 75.7612C81.349 76.3037 81.4019 76.8477 81.49 77.3902C81.9819 77.513 82.493 77.5736 83.0218 77.5736C83.9191 77.5736 84.8019 77.513 85.6736 77.3902C86.5436 77.2689 87.4104 77.1445 88.2709 77.0232L88.061 79.9125Z" fill="#19398A"></path>
  <path d="M100.593 61.7043C101.314 63.6842 102.067 65.6466 102.851 67.5898C103.631 69.5346 104.446 71.4699 105.291 73.3971C105.783 74.4996 106.294 75.5892 106.821 76.6677C107.348 77.7447 107.877 78.8264 108.404 79.9128H102.282C101.949 79.0194 101.596 78.1483 101.227 77.2979C100.857 76.4492 100.497 75.5876 100.144 74.7102H94.4194C94.1038 75.5685 93.7801 76.4268 93.4564 77.2852C93.1296 78.1435 92.8444 79.0194 92.5976 79.9128H88.9572C90.5403 76.7252 92.0432 73.52 93.4693 70.2956C94.0845 68.8773 94.6918 67.459 95.2894 66.039C95.8871 64.6207 96.4415 63.1768 96.951 61.7043H100.593ZM95.1052 72.451H99.3528L97.1369 66.9325L95.1052 72.451Z" fill="#19398A"></path>
  <path d="M125.238 71.5051C125.117 72.416 125.019 73.3222 124.948 74.2253C124.878 75.1267 124.843 76.0345 124.843 76.9439C124.843 77.3475 124.855 77.7352 124.883 78.1085C124.908 78.4834 124.966 78.8695 125.054 79.2684C124.58 79.4423 124.033 79.5923 123.418 79.7231C122.801 79.8523 122.165 79.956 121.505 80.0342C120.845 80.1124 120.194 80.1666 119.552 80.2033C118.911 80.2368 118.334 80.2544 117.825 80.2544C116.487 80.2544 115.221 80.0581 114.024 79.6641C112.829 79.27 111.781 78.6908 110.884 77.9282C109.988 77.1672 109.278 76.2387 108.761 75.1442C108.241 74.0498 107.982 72.7926 107.982 71.3726C107.982 69.7453 108.289 68.3094 108.905 67.065C109.52 65.8222 110.347 64.7835 111.385 63.9507C112.423 63.1195 113.628 62.4893 115.001 62.0601C116.373 61.631 117.825 61.4156 119.353 61.4156C120.234 61.4156 121.127 61.4682 122.032 61.5735C122.939 61.6788 123.779 61.9756 124.553 62.467L123.681 66.0136H123.181C122.67 65.1904 122.059 64.5729 121.346 64.1613C120.635 63.7497 119.794 63.5439 118.826 63.5439C117.805 63.5439 116.943 63.7593 116.24 64.19C115.537 64.6192 114.971 65.1808 114.538 65.8732C114.107 66.5672 113.801 67.3474 113.615 68.2169C113.43 69.0848 113.338 69.9575 113.338 70.835C113.338 71.6423 113.422 72.4767 113.588 73.335C113.756 74.1965 114.04 74.9815 114.447 75.6915C114.851 76.403 115.384 76.9853 116.043 77.4416C116.701 77.8979 117.515 78.1261 118.483 78.1261C118.748 78.1261 119.007 78.1165 119.262 78.0989C119.517 78.083 119.767 78.0479 120.013 77.9952C120.031 77.7846 120.041 77.5741 120.041 77.3635V76.7077C120.041 75.8318 120.01 74.9639 119.948 74.1056C119.887 73.2473 119.794 72.3809 119.67 71.5051H125.238Z" fill="#19398A"></path>
  <path d="M133.762 61.7045C133.515 63.5089 133.374 65.3213 133.34 67.1433C133.305 68.9653 133.288 70.7873 133.288 72.6092C133.288 73.3096 133.323 73.9797 133.393 74.6179C133.462 75.2592 133.63 75.8224 133.895 76.3138C134.158 76.8036 134.541 77.1977 135.042 77.496C135.544 77.7928 136.225 77.9427 137.087 77.9427C138.178 77.9427 139.005 77.7178 139.569 77.2727C140.129 76.8259 140.54 76.2564 140.794 75.564C141.049 74.8731 141.19 74.1026 141.216 73.2522C141.243 72.4034 141.256 71.585 141.256 70.7952C141.256 69.2541 141.203 67.7304 141.097 66.2244C140.993 64.7183 140.852 63.2122 140.676 61.7045H144.159C144 63.1771 143.869 64.6481 143.763 66.1191C143.693 67.2231 143.645 68.316 143.618 69.4024C143.592 70.4889 143.579 71.585 143.579 72.6874C143.579 75.28 142.985 77.1801 141.797 78.3879C140.61 79.5972 138.705 80.2019 136.084 80.2019C134.994 80.2019 133.981 80.1109 133.05 79.9258C132.118 79.7424 131.309 79.4137 130.621 78.9399C129.936 78.4676 129.399 77.8327 129.013 77.0349C128.625 76.2388 128.431 75.2273 128.431 74.0004C128.431 73.3878 128.441 72.7879 128.458 72.2008C128.474 71.6153 128.484 71.0154 128.484 70.4012C128.484 68.9477 128.45 67.4991 128.38 66.0536C128.309 64.6082 128.184 63.1595 128.01 61.7045H133.762Z" fill="#19398A"></path>
  <path d="M159.277 79.9125C157.974 79.8248 156.674 79.7721 155.372 79.7546C154.069 79.737 152.776 79.729 151.493 79.729H150.278C149.892 79.729 149.496 79.7466 149.091 79.7817C148.775 79.8168 148.458 79.8423 148.142 79.8599C147.825 79.8774 147.508 79.895 147.192 79.9125C147.384 78.3889 147.508 76.8732 147.561 75.3672C147.614 73.8611 147.641 72.3454 147.641 70.8218C147.641 69.2806 147.614 67.757 147.561 66.2493C147.508 64.7432 147.384 63.2292 147.192 61.7039C147.737 61.7039 148.274 61.7183 148.801 61.7438C149.33 61.771 149.865 61.7837 150.411 61.7837C151.712 61.7837 153 61.7789 154.277 61.771C155.551 61.763 156.84 61.7406 158.142 61.7039V64.5422C157.28 64.2981 156.423 64.1274 155.57 64.0301C154.716 63.9344 153.842 63.8849 152.944 63.8849C152.874 63.8849 152.803 63.8897 152.734 63.8993C152.662 63.9072 152.593 63.912 152.521 63.912V69.5343C152.609 69.5518 152.68 69.5598 152.734 69.5598H152.97C153.709 69.5598 154.497 69.5263 155.332 69.4561C156.167 69.3859 156.955 69.3077 157.694 69.2184V71.8987C156.955 71.811 156.216 71.7376 155.478 71.6769C154.739 71.6147 153.991 71.5844 153.234 71.5844C153.111 71.5844 152.992 71.5892 152.879 71.5972C152.763 71.6051 152.645 71.6099 152.521 71.6099V74.1052C152.521 74.6668 152.531 75.2188 152.549 75.7612C152.565 76.3037 152.617 76.8477 152.707 77.3902C153.199 77.513 153.709 77.5736 154.237 77.5736C155.135 77.5736 156.018 77.513 156.889 77.3902C157.759 77.2689 158.626 77.1445 159.49 77.0232L159.277 79.9125Z" fill="#19398A"></path>
  <path d="M56.4887 62.1935C56.4695 61.9622 56.3397 61.6287 56.2484 61.4867C56.0241 61.1628 55.7052 60.9012 55.3207 60.8023C54.4074 60.5598 53.486 61.1565 52.7907 61.7356C52.6529 61.4053 52.5167 61.0703 52.4253 60.7145L51.7508 59.2866C51.496 58.6708 50.9961 58.2991 50.8631 57.5604C49.5012 55.5661 48.8603 52.8555 46.8045 51.5456C46.3847 51.0271 45.9457 50.5246 45.417 50.1145C44.861 49.17 43.7554 48.8175 43.4285 47.7166C43.3532 47.4693 43.4285 47.1311 43.3019 46.8774C43.2186 46.7099 42.9879 46.6541 42.7492 46.453C42.5633 46.2983 42.3999 46.0638 42.2492 45.9505C41.9384 45.7271 41.5667 45.5468 41.267 45.3394C37.9519 48.9483 34.225 51.8823 30.3619 54.0568C30.442 54.1653 30.5173 54.2658 30.5846 54.3616C30.9403 54.888 31.4226 55.3427 31.4995 56.0032C31.5332 56.292 31.6742 56.5489 31.711 56.8297C31.7351 57.061 31.8296 57.2461 31.9241 57.4519C32.0315 57.7024 32.0059 57.964 32.0267 58.2273C32.0427 58.4442 32.1421 58.6245 32.1917 58.8303C32.2142 58.9261 32.1645 59.0266 32.1917 59.1191C32.2094 59.1813 32.2847 59.2021 32.3087 59.2595C32.3728 59.4095 32.3407 59.6472 32.3824 59.8115C32.4433 60.1083 32.541 60.4114 32.5186 60.7225C32.4753 61.3607 32.6147 62.0228 32.6644 62.6562C32.7509 63.6134 32.7798 64.5723 32.7509 65.5327C32.7301 66.0289 32.698 66.5235 32.6484 67.0133C32.6227 67.2653 32.5907 67.5142 32.5602 67.7631C32.5378 67.9179 32.5458 68.3869 32.4449 68.4986C31.9113 69.0825 31.7175 69.8579 31.2191 70.4323C30.8474 70.8614 30.2818 71.2013 29.8252 71.5666C29.5544 71.79 29.282 72.0149 29.0064 72.2367C28.7965 72.409 28.5225 72.5478 28.3703 72.7791C28.2581 72.9482 28.1908 73.1588 28.1011 73.3471C27.8928 73.7906 27.6589 74.2262 27.4346 74.6665C27.2759 74.9712 27.1654 75.2951 27.0148 75.6014C26.8754 75.8727 26.6927 76.096 26.5261 76.3433C26.3242 76.6401 26.2665 76.9942 25.9989 77.2591C25.8018 77.4569 25.5951 77.6946 25.467 77.8717C25.0744 78.3743 24.9029 78.5705 24.544 79.097C24.1883 79.6283 23.8631 80.2553 23.4449 80.6972C23.078 81.0881 22.5572 81.4024 22.139 81.747C21.6952 82.106 21.285 82.3533 20.8348 82.8143C20.5512 83.3823 20.6152 84.0476 20.4887 84.6539C20.4342 84.9059 20.2788 85.0958 20.2788 85.367C20.2788 85.6686 20.4278 86.0052 20.4887 86.3307C20.6088 86.9401 20.4614 87.7984 20.9774 88.2484C21.583 88.7732 22.5748 89.0349 23.3375 89.0349C24.6129 88.9152 25.5711 88.8227 26.8722 88.7286C27.207 88.577 27.1269 87.9149 27.1141 87.8064C27.0997 87.6086 26.9891 87.4953 27.1221 87.2991C28.8398 85.1931 30.2337 82.7729 32.36 81.0769C32.6548 81.4981 33.0217 81.8826 33.3726 82.3357C33.6867 82.733 33.9959 83.3424 34.3885 83.5977C34.8467 83.904 35.3498 84.1497 35.9907 84.1864C36.6957 83.8131 36.3528 80.8743 37.0498 79.7288C37.5642 79.6283 37.9535 79.3922 38.4454 79.2677C41.5923 76.1152 45.1221 72.902 48.4965 69.8435C48.9852 69.4016 49.49 68.84 49.977 68.5417C50.8695 67.9929 51.9366 67.8046 52.8483 67.3212C54.3353 65.5806 56.7611 62.7966 56.4887 62.1935ZM26.0165 87.5623C25.7025 87.891 25.1801 87.8766 23.98 87.824C22.7831 87.7681 22.8616 87.7267 22.1775 87.4315C21.6039 87.189 21.4164 87.2767 21.5462 85.7754C21.6856 84.188 22.9321 84.4816 24.2829 84.9075C25.656 85.3335 25.6656 85.4755 25.7281 85.7611C25.797 86.0515 26.0694 86.9002 26.0694 86.9002C26.0694 86.9002 26.2216 87.3453 26.0165 87.5623ZM35.893 82.248C35.8513 82.6452 35.9347 82.9021 35.478 82.8335C34.7554 82.7186 34.7361 82.157 34.4413 81.7231C34.1 81.2285 33.9142 80.8759 33.9142 80.8759C34.0808 80.4531 34.1802 80.6127 34.5967 80.5281C34.9941 80.4419 35.4395 80.2633 35.6398 80.2633C35.8465 80.2633 35.7488 80.1181 35.8818 80.9222C35.9971 81.597 35.9427 81.8172 35.893 82.248ZM42.5361 64.8371C41.501 64.4749 40.232 63.9277 38.7402 64.25C38.7258 64.2819 38.697 64.2931 38.697 64.3345C38.7915 64.2245 39.8346 64.3409 39.5398 64.376C38.721 64.4239 37.8061 64.4622 37.1748 64.6664C38.3765 63.5145 41.0171 63.7682 42.4159 64.5435C42.6418 64.6568 42.6771 64.6728 42.8677 64.7861C43.0119 65.0924 42.8309 64.9328 42.5361 64.8371ZM55.8911 62.6514C55.7421 62.7902 55.7421 62.8061 55.5962 62.9529C55.3367 63.2257 55.412 63.2257 55.0771 63.4842C54.9169 63.6453 54.8223 63.7028 54.5452 63.9405C54.2247 64.2356 54.01 64.3473 53.6094 64.6664C53.2297 64.9775 52.9397 65.2471 52.5119 65.5949C52.3709 65.7002 51.935 65.9762 51.1371 66.3799C50.8038 66.5841 50.3888 66.7931 49.937 66.691C50.3215 66.3256 50.6885 65.8374 51.2444 65.3843C52.0376 64.743 53.3274 64.5435 53.2729 63.4076C53.2441 62.8396 53.0406 62.3339 52.8259 61.8218C52.9621 61.7324 53.1159 61.6431 53.2201 61.5617C53.4636 61.3766 53.7841 61.2219 54.0549 61.0831C54.4362 60.8916 54.8288 60.8565 55.2582 60.9427C55.6828 61.0288 55.9263 61.4309 56.1234 61.7962C56.2115 61.959 56.274 62.1217 56.2324 62.2398C56.0433 62.4057 55.9904 62.5078 55.8911 62.6514Z" fill="#263D88"></path>
  <path d="M9.22165 16.3104C6.57788 19.9703 4.60868 23.8232 3.28359 27.6538C4.51575 24.6656 6.17251 21.6965 8.30354 18.887C9.0454 17.909 9.8193 16.9836 10.6204 16.103C10.1141 16.1859 9.62382 16.2609 9.22165 16.3104Z" fill="#5091CD"></path>
  <path d="M46.6688 3.23928C37.1144 -3.93853 20.9938 1.26096 10.3419 14.8157C10.8033 14.7822 11.3753 14.7439 11.9538 14.6976C21.513 5.14262 34.3505 2.13844 42.4372 8.217C51.6054 15.1044 51.192 31.0475 41.5159 43.8317C36.536 50.4032 30.0724 54.8528 23.7225 56.6924C31.1619 54.9613 38.9987 49.7714 44.9832 41.8709C55.6223 27.8264 56.3754 10.532 46.6688 3.23928Z" fill="#5091CD"></path>
  <path d="M32.3965 10.4727C32.6289 10.4647 32.8532 10.4822 33.0919 10.5333C33.1224 10.5413 33.1592 10.5413 33.1848 10.5445C33.273 10.5859 33.2826 10.7072 33.4156 10.7008C33.5598 10.6019 33.8065 10.6099 34.0469 10.6178C34.2247 10.7072 34.2952 10.9066 34.4314 11.0358C34.5212 10.688 35.0275 10.5939 35.3175 10.7822C35.5114 10.9098 35.4088 11.1252 35.6107 11.205C35.5658 10.913 35.7501 10.8508 35.9264 10.7886C36.0882 10.8125 36.1154 10.8604 36.1891 10.9353C36.2019 10.9481 36.274 11.1252 36.274 11.1252C36.3526 11.3932 36.4183 11.6692 36.5144 11.9341C36.5833 12.1239 36.6089 12.3569 36.6698 12.4669L36.6682 12.4653V12.6775C36.5288 12.7493 36.3494 12.7796 36.1619 12.8052C36.2148 12.9615 36.3397 13.0461 36.3718 13.2232C36.0305 13.488 35.5674 13.086 35.2326 13.2232C35.2438 13.5199 35.505 13.5694 35.5706 13.8135C35.3495 14.2155 34.8849 13.8709 34.5147 13.8566C34.3449 13.847 34.2071 13.9698 34.0469 13.9379C33.8883 13.9044 33.7505 13.6188 33.6271 13.7704C33.5886 13.9283 34.0869 14.0129 34.0068 14.2315C34.6525 14.1948 35.0868 14.7691 35.6956 14.8234C35.851 14.833 36.0449 14.7532 36.2019 14.7803C36.6762 14.8585 37.1168 15.6578 37.1649 16.8815C37.1649 16.6023 37.386 14.9765 37.386 14.6942C37.6776 14.5777 37.8715 14.3623 38.1471 14.2315C38.1856 13.7273 38.2208 13.2072 38.2705 12.7206C37.7978 12.6392 37.2963 12.577 36.8236 12.4893C36.6987 12.0793 36.4904 10.9672 36.0161 10.7503C36.0225 10.7471 36.0273 10.7439 36.0353 10.7423C35.6444 10.5253 35.0082 10.5141 34.5804 10.4902C34.2808 10.4743 33.9812 10.4727 33.6864 10.479C33.5518 10.4838 33.273 10.5461 33.1464 10.4982C32.8516 10.3833 32.6721 10.3227 32.3581 10.3626C32.2603 10.412 32.2299 10.4487 32.2235 10.4695C32.1594 10.5381 32.0761 10.6242 32.1898 10.6577C32.2107 10.5508 32.3052 10.5221 32.3965 10.4727ZM27.7948 11.4554C27.7243 11.0087 28.0431 10.9561 28.2963 10.83C28.386 10.8253 28.4741 10.8205 28.5719 10.8125C28.7882 10.8428 28.9003 11.0997 29.0221 11.205C29.0446 10.996 29.1583 10.8827 29.2609 10.7582C29.4259 10.7423 29.5973 10.7215 29.7656 10.7008C30.0251 10.7423 30.0043 11.0598 30.2062 11.1619C30.1758 10.6354 30.9401 10.5094 31.2621 10.8253C31.2589 10.6737 31.198 10.5812 31.1756 10.4455L27.508 10.8237C27.2981 10.8189 27.1138 10.8253 27.0353 10.8683C27.4903 10.8619 27.5576 11.2448 27.7948 11.4554ZM20.6614 30.1857C20.655 30.1985 20.6518 30.2128 20.6438 30.2288C20.5188 30.6005 20.3938 30.9707 20.2657 31.344C20.2304 31.4509 20.2112 31.5307 20.1903 31.5801C20.9931 31.5147 21.7862 31.3998 22.5633 31.2148C22.7091 31.1781 22.8485 31.1334 22.9927 31.0919C23.185 31.0106 23.4141 30.91 23.5696 30.8526C23.5583 30.7314 23.5535 30.6085 23.5487 30.5654C23.5039 30.165 23.4318 29.7645 23.3388 29.3705C23.286 29.3896 23.2283 29.4072 23.1754 29.4247C22.7284 29.5699 22.2781 29.6975 21.8215 29.7996C21.4578 29.8954 21.0924 29.9799 20.7431 30.0086C20.7127 30.0693 20.6887 30.1267 20.6614 30.1857ZM39.2911 43.7644C39.2527 43.6032 39.2142 43.4437 39.2046 43.257C38.2208 41.8419 37.37 40.3597 36.4551 38.9239C36.1523 38.4436 35.8623 37.8884 35.5274 37.4529C35.2197 37.0556 34.7375 36.7094 34.3449 36.3169C33.1592 35.1331 31.9014 34.0722 30.6677 32.9937C31.5986 31.1781 32.4606 29.2125 33.4572 27.4847C33.7937 26.9071 34.2391 26.2929 34.4715 25.7153C34.6525 25.2702 34.7246 24.7054 34.8544 24.2013C35.2438 22.6489 35.5706 21.2067 35.9904 19.6575C36.2372 19.4661 36.4679 19.2619 36.4551 18.8167C36.1042 18.7737 35.9376 18.5487 35.6956 18.3971C35.0403 18.7035 33.744 18.5758 33.6271 17.9775C33.4701 17.1655 34.6285 17.0985 34.7246 16.5464C34.4282 16.5544 33.8899 16.8145 33.7537 16.5895C34.0293 16.3853 34.3801 16.2577 34.6397 16.0407C34.1222 15.6035 33.3771 15.3961 32.7394 15.0739C32.6545 14.4134 32.3324 13.997 32.3581 13.2232C32.4382 13.0094 32.56 12.8961 32.6224 12.6041C32.6625 12.4893 32.6625 12.4334 32.584 12.242C32.3821 12.2356 32.2203 12.2755 32.1081 12.2133C31.8838 12.0011 32.1113 11.5719 31.9383 11.2879C31.8453 11.5895 31.8181 11.9564 31.6435 12.1718C31.629 11.9452 31.5569 11.7793 31.472 11.6246C31.5169 12.2532 31.7188 12.7286 31.855 13.2647C31.3839 13.1897 31.2092 13.4051 30.8039 13.3923C30.8039 13.5199 30.7574 13.6077 30.6677 13.6444C29.7159 13.9682 28.5639 14.0943 27.7099 14.5266C27.3269 14.1294 27.2292 13.4386 26.8719 13.0126C27.0305 13.6523 27.3958 14.1501 27.5865 14.8665C28.8347 14.525 29.8361 13.9347 31.1756 13.6858C31.3054 13.5439 31.6162 13.4561 31.855 13.5598C31.8838 13.7895 32.0552 14.0687 31.9383 14.316C31.4528 14.2458 31.7428 14.3081 31.4336 14.4038C31.3294 14.3479 31.3086 14.4868 31.1243 14.5139C30.9128 14.5841 30.8039 14.5841 30.6036 14.7101C30.3953 14.8026 30.4337 14.8202 30.2254 14.8489C30.0412 14.9351 30.2559 14.8489 30.0412 14.9351C29.8393 14.9702 29.8185 14.9925 29.6214 15.0595C29.3153 15.1473 29.4259 15.1169 29.1663 15.1855C28.7706 15.294 29.0093 15.227 28.5959 15.3387C27.9919 15.4663 28.5334 15.3228 27.9662 15.4951C27.705 15.1393 27.4471 14.7803 27.1218 14.4852C26.9904 14.6016 26.9472 14.2793 26.9103 13.981C26.5594 13.8645 26.4537 13.5119 26.4424 13.0541C26.3255 13.0333 26.1492 13.3189 25.9377 13.3492C25.6109 13.2184 25.3737 12.7796 24.9251 12.7206C24.563 12.6664 23.9926 12.861 23.5343 12.9296C23.1802 12.9823 22.8325 12.9918 22.5489 13.0716C20.3281 13.2838 12.6805 14.5187 11.2785 14.7356C12.7461 14.608 21.0331 13.6188 22.8646 13.2088C23.6769 13.1434 24.5181 12.9121 25.2632 12.9296C25.3385 13.0333 25.409 13.1482 25.3849 13.3492C24.2393 13.7337 23.0424 13.847 21.8407 14.0257C21.1485 14.1246 18.9566 14.5729 18.5448 14.6527C16.7711 15.0053 14.7602 15.3738 12.8006 15.7057C12.2286 15.803 11.6358 15.8955 11.0702 16.0008C7.68454 16.6134 4.09543 16.8751 0.551185 16.4619C0.267581 16.422 0.157023 16.481 0.100943 16.5337C0.137796 16.3853 0.251557 16.2385 0.370125 16.1715C0.805946 15.9657 1.3363 15.7647 1.85544 15.6626H2.1102C2.20955 15.5748 1.94997 15.6259 1.85544 15.6211C1.41962 15.6083 0.693789 15.6307 0.376537 15.6211C0.293218 15.7344 0.141002 15.8971 0.108956 16.0854C0.0977404 16.1077 0.00160228 16.5656 0 16.5895V16.6326C0.145808 17.3282 0.246751 18.0621 0.629696 18.5248C1.86185 18.5423 2.98665 18.8869 4.13869 18.9013C5.07763 18.9141 6.01496 18.7737 6.92987 18.7338C7.68294 18.6987 8.43922 18.7114 9.20991 18.6508C10.5494 18.5423 11.9226 18.1961 13.2653 17.9775C17.404 17.3043 21.4818 16.5624 25.3481 15.7471C25.7214 15.3578 25.9986 14.7899 26.8254 15.0739C27.1298 15.7232 27.3766 16.4316 27.6297 17.1352C28.2498 17.3234 28.7097 17.8116 29.4868 17.5149C29.1423 15.921 30.626 15.7838 31.5986 15.2845C31.5457 15.444 31.6338 15.5014 31.6435 15.6211C32.5087 15.637 32.3965 16.6358 32.7811 17.1352C31.9383 16.8304 31.0843 17.1718 30.5443 17.4702C30.3392 17.5835 29.9146 17.8084 29.8697 17.9775C29.7752 18.3062 30.0075 18.9986 30.0764 19.4916C30.1565 20.0245 30.32 20.6132 30.2927 21.0471C30.2527 21.5688 29.9258 22.1272 29.7816 22.5612C29.5973 23.1292 29.4579 23.6046 29.3217 24.1598C28.1809 25.1889 27.2164 26.3854 25.981 27.3155C25.9313 27.1416 25.9073 26.9374 25.8656 26.7508C25.7278 26.88 25.5628 26.9917 25.3801 27.089C25.3705 27.0938 25.3609 27.0986 25.3513 27.1065C25.3144 27.1241 25.2792 27.1432 25.2407 27.1624C25.2808 27.2565 25.3096 27.3586 25.3305 27.4607C25.4202 27.6649 25.4939 27.8692 25.55 28.0845C25.5788 28.067 25.6029 28.051 25.6253 28.0335C25.7134 27.9537 25.8015 27.8771 25.8913 27.7942C25.9538 27.6953 26.013 27.5947 26.1076 27.5246C26.2021 27.7687 26.0948 27.9043 25.9505 28.0303C25.8528 28.1452 25.7439 28.2537 25.6173 28.3542C25.7535 28.9461 25.8015 29.5603 25.7871 30.1363C24.164 31.336 21.8872 31.7556 19.9067 31.8753C19.3251 31.9056 18.7579 31.419 18.3013 31.1047C17.9135 30.8367 17.5306 30.5559 17.1524 30.2671C17.146 30.2639 17.1412 30.2559 17.1348 30.2495C16.6317 29.889 16.167 29.4423 16.0677 28.7849C16.0645 28.7754 16.0645 28.7706 16.0597 28.7594C16.0613 28.7642 16.0645 28.7642 16.0645 28.7594C16.0356 28.552 16.0404 28.3255 16.0917 28.0718C16.127 28.2489 16.1398 28.4419 16.1558 28.6366C16.1943 28.7323 16.2471 28.828 16.276 28.9493C16.4362 29.471 16.8896 29.7438 17.2998 30.0501C17.9135 30.5128 18.532 30.9723 19.1905 31.3679C19.4421 31.5147 19.6231 31.6232 19.9003 31.6088V31.6056L19.9035 31.6088C20.0814 31.0903 20.2608 30.5463 20.4435 30.023C20.3313 30.0326 20.2208 30.0533 20.1118 30.0581C19.362 30.0996 18.5785 30.4218 17.9776 29.9161C17.7933 29.8267 17.6635 29.6927 17.6155 29.5013C17.8975 29.5204 18.0401 29.6816 18.1987 29.822C18.2916 29.8523 18.383 29.8762 18.4503 29.8922C18.516 29.9097 18.5881 29.9145 18.657 29.9257C19.088 29.9257 19.4901 29.8954 19.8859 29.8603C19.9035 29.8539 19.9212 29.8523 19.9372 29.8523C20.1471 29.814 20.3426 29.7901 20.53 29.7613C20.6422 29.4231 20.7624 29.0785 20.8793 28.7371C20.8954 28.6988 20.9002 28.6669 20.913 28.6366C20.6438 28.6988 20.3778 28.7546 20.115 28.8137C19.3251 29.0211 18.5352 29.2221 17.7389 29.4072C17.5786 29.4423 17.4376 29.4407 17.3014 29.4135C17.295 29.4167 17.2822 29.4199 17.279 29.4199C17.2742 29.4167 17.2678 29.4119 17.2678 29.4119C17.0819 29.3625 16.9233 29.2556 16.7855 29.0482C16.7711 29.0211 16.739 28.9317 16.707 28.8184C16.5387 28.544 16.4506 28.2106 16.5612 27.7782C16.5307 28.4499 16.989 29.0897 17.4328 29.1934C17.6187 29.1934 17.8302 29.1152 17.9824 29.0833C18.0962 29.0593 18.2099 29.029 18.3205 29.0003C18.3269 29.0003 18.3301 28.9987 18.3333 28.9987C18.3333 28.9987 18.3397 28.9955 18.3445 28.9955C19.1617 28.7993 19.9628 28.5903 20.7704 28.3653C21.8808 28.0558 22.9911 27.732 24.0759 27.3299C24.1977 27.2852 24.3226 27.2342 24.4476 27.1863C24.5341 27.1496 24.5678 27.1385 24.6062 27.1241C24.7761 27.0571 24.9427 26.9789 25.1061 26.9007C25.1142 26.8928 25.119 26.8928 25.1222 26.8864C25.2439 26.821 25.3385 26.7715 25.4474 26.7157C25.5243 26.6662 25.6109 26.6199 25.6878 26.5609C25.7214 26.5322 25.7535 26.5099 25.7759 26.4987C25.7871 26.2354 25.7727 26.2929 25.691 26.0791C25.542 26.1158 25.3128 26.2578 25.1638 26.2865C24.6863 26.3902 24.8097 26.3758 24.414 26.4301C24.3098 26.0073 24.0615 25.7201 23.9541 25.2989C24.5309 24.9575 25.2808 24.7948 25.3032 23.9093C24.5486 23.6636 24.1544 23.335 23.459 23.0334C23.3372 22.8755 23.0264 22.3793 22.8613 22.0522C22.5729 21.5944 22.6611 21.8002 22.2637 21.3008C21.9561 20.9083 21.5619 20.519 21.235 20.3563C20.9386 20.2111 20.4563 20.0564 20.0638 19.9543C19.6728 19.8506 19.2819 19.6639 18.8845 19.6575C18.6121 19.6527 18.2612 19.766 17.9536 19.8282C17.0739 20.0021 16.8143 20.1234 16.26 20.5446C16.0196 20.7296 15.6927 20.9386 15.5453 21.1317C15.4812 21.2162 15.3034 21.4189 15.2473 21.5114C15.1271 21.7172 15.0134 21.7986 14.9108 21.9868C14.7266 22.3283 14.733 22.3681 14.6144 22.6027C14.3276 23.1866 14.0616 23.7913 13.9495 24.5156C13.9639 26.5609 15.148 27.373 15.5453 29.0386C15.5726 28.8137 15.4172 28.5504 15.5453 28.3669C15.6831 28.5775 15.6335 28.9812 15.6719 29.2939C15.9876 29.6497 16.5307 29.7837 16.6894 30.3006C16.2904 30.2288 15.9699 29.6241 15.6575 29.605C16.1558 30.0262 16.6076 30.492 17.1524 30.7649C17.2325 30.8047 17.3559 30.7649 17.4488 30.8063C17.9087 31.0169 18.2548 31.5674 18.6682 31.6918C18.8621 31.7476 18.9085 31.6631 19.0543 31.8689C18.0994 32.0316 17.819 30.7553 17.2438 31.0185C16.8143 31.2116 16.7182 31.1494 16.2199 31.2291C16.1398 31.6232 16.6461 32.2039 16.7182 32.5773C17.0483 33.0495 16.7278 33.2808 17.0146 33.7962C17.311 34.061 17.4905 34.1312 17.7421 34.2971C17.8863 35.2927 17.7901 36.352 18.1218 37.3268C18.4935 38.0528 19.3508 38.5362 19.942 39.1759C20.5845 39.8779 21.4642 40.6246 21.9641 41.1144C23.7058 42.7975 25.3737 44.2031 27.1667 45.8225C27.6185 46.2341 28.7081 47.0031 28.9356 47.5072C29.1391 47.9412 29.216 48.5283 29.3554 49.0628C29.5028 49.5877 29.7319 50.1572 29.7816 50.6199C29.8793 51.4527 29.5717 52.2472 29.7816 53.1423C29.8185 53.2843 29.9066 53.4422 30.0203 53.6033C33.4749 51.3825 36.7403 48.4948 39.5635 45.0024C39.7686 44.744 39.9673 44.4871 40.166 44.2239C39.9321 43.9989 39.6645 43.8186 39.2911 43.7644ZM24.9892 27.3491C24.9459 27.3267 24.893 27.3235 24.8386 27.3427C24.8225 27.3475 24.8097 27.3538 24.7969 27.3586C24.7793 27.3714 24.7649 27.3746 24.7536 27.3746C24.4252 27.5022 24.0935 27.6075 23.8131 27.708C23.6529 27.7639 23.483 27.8117 23.3228 27.866C23.2908 27.8787 23.2651 27.8899 23.2331 27.9011C23.2395 27.9968 23.2491 28.0798 23.2587 28.1643C23.3388 28.4579 23.4173 28.7451 23.4959 29.0322C23.9926 28.8583 24.4845 28.6717 24.9651 28.4531C25.0853 28.3972 25.1991 28.3334 25.3096 28.2648C25.2728 28.1276 25.2359 27.9904 25.1959 27.8548C25.1382 27.6841 25.0709 27.515 24.9892 27.3491ZM23.2795 29.1056C23.209 28.7626 23.1321 28.3143 22.9559 28.0143C22.9479 28.008 22.9447 27.9968 22.9399 27.9904C22.5986 28.0989 22.2541 28.2138 21.9112 28.3143C21.6917 28.3909 21.4642 28.4659 21.2302 28.5297C21.1069 28.8902 20.9787 29.2508 20.8601 29.613C20.8473 29.6497 20.8425 29.6832 20.8361 29.7183C21.0267 29.6911 21.2158 29.664 21.4209 29.6209C21.9561 29.5124 22.4848 29.3689 23.0024 29.2029C23.0985 29.1774 23.185 29.1375 23.2795 29.1056ZM23.576 29.3497C23.6833 29.8028 23.7698 30.2671 23.8195 30.7393C24.3178 30.6117 24.7889 30.3644 25.2183 30.1873C25.2263 30.1809 25.2359 30.173 25.2487 30.1698C25.3705 30.0884 25.4522 30.023 25.5211 29.9959C25.5227 29.5204 25.4731 29.0482 25.3801 28.5855C25.3401 28.5855 25.3016 28.5935 25.2632 28.6015C24.736 28.9158 24.0935 29.1327 23.5728 29.3003C23.5728 29.3146 23.576 29.3306 23.576 29.3497Z" fill="#263D88"></path>
  <path d="M173.669 12.2183C174.148 12.3922 174.561 12.6379 174.904 12.9554C175.25 13.2729 175.518 13.6558 175.71 14.1041C175.904 14.5508 176 15.0534 176 15.6102C176 16.1574 175.885 16.6584 175.657 17.1099C175.428 17.5614 175.124 17.9459 174.744 18.2634C174.362 18.5808 173.922 18.8265 173.42 19.0004C172.919 19.1743 172.395 19.2605 171.848 19.2605C171.283 19.2605 170.759 19.1743 170.277 19.0004C169.791 18.8265 169.376 18.5808 169.025 18.2634C168.678 17.9459 168.404 17.5646 168.207 17.1162C168.011 16.6679 167.91 16.167 167.91 15.6102C167.91 15.0534 168.027 14.5508 168.261 14.1041C168.493 13.6558 168.801 13.2729 169.187 12.9554C169.573 12.6379 170.019 12.3922 170.523 12.2183C171.031 12.0444 171.557 11.9582 172.103 11.9582C172.667 11.9582 173.19 12.0444 173.669 12.2183ZM170.725 12.7209C170.336 12.8804 169.996 13.1006 169.705 13.3814C169.413 13.6638 169.185 13.9956 169.019 14.3753C168.854 14.7566 168.771 15.1634 168.771 15.5958C168.771 16.0553 168.849 16.4749 169.006 16.8546C169.163 17.2359 169.383 17.5662 169.665 17.8438C169.947 18.1198 170.285 18.3352 170.679 18.4851C171.073 18.6367 171.507 18.7133 171.983 18.7133C172.44 18.7133 172.86 18.6319 173.246 18.466C173.63 18.3016 173.963 18.0767 174.245 17.7911C174.528 17.5055 174.747 17.1721 174.904 16.7908C175.061 16.4095 175.14 16.0026 175.14 15.5703C175.14 15.1188 175.061 14.7072 174.904 14.3306C174.747 13.9525 174.531 13.6287 174.252 13.3558C173.975 13.083 173.643 12.8692 173.258 12.7129C172.872 12.5565 172.448 12.4799 171.983 12.4799C171.534 12.4799 171.115 12.5597 170.725 12.7209ZM170.599 17.3093C170.642 16.9966 170.668 16.6775 170.672 16.352C170.677 16.0266 170.679 15.7075 170.679 15.3964C170.679 15.0837 170.677 14.7662 170.672 14.4391C170.668 14.1137 170.642 13.7946 170.599 13.4819H172.036C172.225 13.4819 172.404 13.4946 172.574 13.517C172.744 13.5393 172.895 13.5856 173.023 13.6574C173.154 13.7276 173.258 13.8297 173.34 13.9653C173.42 14.0977 173.46 14.2764 173.46 14.4982C173.46 14.8651 173.34 15.1507 173.097 15.3549C172.856 15.5607 172.565 15.6724 172.225 15.6899C172.385 15.7075 172.521 15.7569 172.635 15.8367C172.746 15.9165 172.852 16.025 172.949 16.1574C173.093 16.3457 173.236 16.5323 173.379 16.7206C173.523 16.9072 173.661 17.1035 173.797 17.3093H172.787C172.672 17.1131 172.555 16.92 172.44 16.7333C172.323 16.5467 172.188 16.368 172.036 16.1973C171.964 16.1175 171.895 16.0425 171.828 15.9707C171.76 15.9005 171.667 15.8638 171.554 15.8638H171.39C171.4 16.1047 171.406 16.3457 171.411 16.5866C171.416 16.8275 171.435 17.0684 171.472 17.3093H170.599ZM171.39 15.4091C171.427 15.4091 171.462 15.4123 171.499 15.4155C171.534 15.4187 171.57 15.4219 171.607 15.4219C171.893 15.4219 172.137 15.3613 172.339 15.2416C172.541 15.122 172.64 14.9002 172.64 14.5795C172.64 14.42 172.614 14.2971 172.56 14.211C172.505 14.1264 172.435 14.0642 172.345 14.0243C172.255 13.9844 172.153 13.9621 172.036 13.9573C171.919 13.9525 171.799 13.9509 171.674 13.9509H171.39V15.4091Z" fill="#5091CD"></path>
</svg>
