<?xml version="1.0" encoding="UTF-8"?>
<svg xmlns="http://www.w3.org/2000/svg" width="162" height="87" viewBox="0 0 162 87" fill="none">
  <g id="Group 456">
    <path id="Vector" d="M41.688 0C18.657 0 0 19.251 0 43.038C0 66.798 18.657 86.076 41.688 86.076C64.719 86.076 83.376 66.825 83.376 43.038C83.376 19.251 64.719 0 41.688 0Z" fill="#292929"></path>
    <path id="Vector_2" d="M29.1594 25.5416H27.7284C25.0284 25.5416 23.5434 27.1076 23.5434 30.2666V45.4406C23.5434 49.3556 22.2744 50.7056 19.2774 50.7056C16.9284 50.7056 15.0114 49.6526 13.4724 47.7086C13.3374 47.5196 10.2324 49.0316 10.2324 52.7846C10.2324 56.8346 13.9044 59.3186 20.7354 59.3186C29.0514 59.3186 33.3984 54.9986 33.3984 45.5756V30.2666C33.4524 27.1076 31.9674 25.5416 29.1594 25.5416ZM42.0384 33.1826H41.0664C38.6634 33.1826 36.8274 34.3436 36.8274 37.9076V54.1346C36.8274 57.7256 38.6094 58.8596 41.1474 58.8596H42.1194C44.5224 58.8596 46.2504 57.6446 46.2504 54.1346V37.9076C46.2504 34.2626 44.5764 33.1826 42.0384 33.1826ZM41.4984 21.4376C38.4474 21.4376 36.5304 23.2196 36.5304 26.0006C36.5304 28.8356 38.5014 30.6176 41.6334 30.6176C44.6844 30.6176 46.6014 28.8356 46.6014 26.0006C46.6014 23.1386 44.6304 21.4376 41.4984 21.4376ZM62.2614 32.9396C54.1884 32.9396 48.8424 38.2046 48.8424 46.0616C48.8424 54.1346 53.9994 59.2916 62.0994 59.2916C70.1454 59.2916 75.4644 54.1076 75.4644 46.1156C75.4644 38.2046 70.1994 32.9396 62.2614 32.9396ZM62.1534 51.8396C59.0214 51.8396 56.8614 49.4636 56.8614 46.0616C56.8614 42.7136 59.0754 40.3376 62.1534 40.3376C65.2584 40.3376 67.4454 42.7136 67.4454 46.1156C67.4454 49.4096 65.2044 51.8396 62.1534 51.8396Z" fill="white"></path>
    <path id="Vector_3" d="M98.1721 27.3513C99.0091 27.3513 99.7651 27.4863 100.494 27.7563C101.196 28.0263 101.817 28.4313 102.357 28.9713C102.87 29.5113 103.275 30.1863 103.572 31.0233C103.869 31.8333 104.004 32.8053 104.004 33.8853C104.004 34.8573 103.896 35.7483 103.653 36.5583C103.41 37.3683 103.059 38.0703 102.573 38.6643C102.087 39.2583 101.493 39.7173 100.764 40.0683C100.035 40.3923 99.1981 40.5813 98.1991 40.5813H92.6641V27.3243M97.9831 38.1513L99.1711 37.9353L100.197 37.2603C100.494 36.9363 100.737 36.5313 100.926 36.0183C101.115 35.5053 101.196 34.8843 101.196 34.1553C101.196 33.4803 101.142 32.8863 101.007 32.3463C100.872 31.8063 100.683 31.3473 100.386 30.9693C100.089 30.5913 99.7111 30.2943 99.2521 30.0783C98.7661 29.8623 98.1991 29.7813 97.4971 29.7813H95.4991V38.1243H97.9831V38.1513Z" fill="#292929"></path>
    <path id="Vector_4" d="M108.945 27.3516H106.137V40.6086H108.945V27.3516Z" fill="#292929"></path>
    <path id="Vector_5" d="M119.232 40.4994C118.611 40.7694 118.017 40.9044 117.369 40.9044C116.397 40.9044 115.506 40.7154 114.723 40.3644C113.94 40.0134 113.265 39.5274 112.752 38.9064C112.212 38.2854 111.807 37.5564 111.51 36.7194C111.213 35.8824 111.078 34.9914 111.078 34.0194C111.078 33.0204 111.213 32.1024 111.51 31.2654C111.807 30.4284 112.212 29.6724 112.752 29.0514C113.292 28.4304 113.94 27.9174 114.723 27.5664C115.506 27.2154 116.397 27.0264 117.369 27.0264C118.017 27.0264 118.665 27.1344 119.286 27.3234C119.907 27.5394 120.447 27.8364 120.96 28.2144C121.473 28.6194 121.878 29.1054 122.202 29.6724C122.526 30.2664 122.715 30.9144 122.796 31.6704H120.096C119.934 30.9414 119.61 30.3744 119.124 29.9964C118.638 29.6184 118.071 29.4294 117.369 29.4294C116.721 29.4294 116.208 29.5644 115.749 29.8074C115.29 30.0504 114.939 30.4014 114.669 30.8334C114.399 31.2654 114.183 31.7514 114.075 32.2914C113.94 32.8314 113.886 33.3984 113.886 33.9924C113.886 34.5594 113.94 35.0994 114.075 35.6124C114.21 36.1524 114.399 36.6114 114.669 37.0434C114.939 37.4754 115.29 37.7994 115.749 38.0424C116.181 38.2854 116.721 38.4204 117.369 38.4204C118.314 38.4204 119.016 38.1774 119.529 37.6914C120.042 37.2054 120.339 36.5034 120.42 35.5584H117.585V33.3984H122.985V40.5534H121.176L120.879 39.0414C120.393 39.7704 119.826 40.2294 119.232 40.4994Z" fill="#292929"></path>
    <path id="Vector_6" d="M128.276 27.3516H125.441V40.6086H128.276V27.3516Z" fill="#292929"></path>
    <path id="Vector_7" d="M129.924 29.8086V27.3516H140.427V29.8086H136.593V40.6086H133.785V29.8086" fill="#292929"></path>
    <path id="Vector_8" d="M146.825 27.3516L151.631 40.6086H148.688L147.716 37.6656H142.91L141.911 40.6086H139.076L143.936 27.3516M146.987 35.4786L145.367 30.6186H145.34L143.666 35.4786H146.987Z" fill="#292929"></path>
    <path id="Vector_9" d="M155.736 27.3516V38.1516H162V40.6086H152.928V27.3516" fill="#292929"></path>
    <path id="Vector_10" d="M95.4717 45.7656V56.5656H101.736V58.9956H92.6367V45.7656" fill="#292929"></path>
    <path id="Vector_11" d="M106.325 45.7656H103.49V59.0226H106.325V45.7656Z" fill="#292929"></path>
    <path id="Vector_12" d="M117.991 45.7656V48.1956H111.781V51.2736H117.154V53.5416H111.781V58.9956H108.973V45.7656" fill="#292929"></path>
    <path id="Vector_13" d="M129.411 45.7656V48.1956H122.634V51.0306H128.844V53.2986H122.634V56.5656H129.546V58.9956H119.799V45.7656" fill="#292929"></path>
  </g>
</svg>
