<svg width="92" height="90" viewBox="0 0 92 90" fill="none" xmlns="http://www.w3.org/2000/svg">
<path d="M60.1035 46.0004L38.9497 58.7687L38.9497 33.2321L60.1035 46.0004Z" fill="white"/>
<path d="M30.77 80.3208L29.0172 86.6725L27.1979 85.6046L28.3482 82.094L25.8099 84.7899L24.1474 83.8141L25.1611 80.2128L22.6025 82.9074L21.0185 81.9776L25.6728 77.3289L27.4137 78.3508L26.3646 82.1212L29.0291 79.299L30.77 80.3208Z" fill="white"/>
<path d="M17.9312 70.6853L11.4202 72.4812L10.2583 70.8194L14.1535 65.2826L15.3885 67.0487L14.7287 67.9141L15.8177 69.4716L16.8526 69.1428L17.9312 70.6853ZM14.3255 69.9557L13.7732 69.1658L12.6244 70.5537L14.3255 69.9557Z" fill="white"/>
<path d="M10.5023 56.6633L5.90361 57.7632L6.32146 59.5238L4.72962 59.9045L3.42777 54.4192L5.01961 54.0385L5.43746 55.7991L10.0361 54.6992L10.5023 56.6633Z" fill="white"/>
<path d="M9.51617 41.4047C9.4311 41.9926 9.25017 42.5023 8.97338 42.9336C8.6906 43.3641 8.29316 43.6768 7.78108 43.8717C7.26987 44.0606 6.62136 44.0977 5.83554 43.9831L5.66458 43.9582C5.10672 43.8769 4.64111 43.7294 4.26778 43.5156C3.89444 43.3019 3.60177 43.0387 3.38976 42.726C3.17861 42.4073 3.03997 42.0532 2.97381 41.6637C2.90766 41.2743 2.90496 40.8696 2.96572 40.4496C3.02128 40.0656 3.11835 39.7122 3.25694 39.3894C3.39639 39.0605 3.58376 38.7815 3.81904 38.5524C4.04919 38.3164 4.33151 38.1432 4.666 38.0327C5.00137 37.9162 5.39573 37.8787 5.84909 37.9203L5.55744 39.9361C5.23943 39.9327 5.0083 40.0062 4.86402 40.1567C4.72061 40.3011 4.63372 40.4784 4.60334 40.6884C4.57643 40.8744 4.59968 41.0523 4.67308 41.2223C4.74736 41.3863 4.88896 41.5295 5.09789 41.6518C5.30082 41.7733 5.58824 41.8612 5.96015 41.9154L6.14011 41.9416C6.43404 41.9845 6.68688 41.9938 6.89865 41.9695C7.10441 41.9444 7.27679 41.896 7.41578 41.8244C7.55477 41.7528 7.66294 41.6613 7.74028 41.5501C7.8125 41.432 7.85859 41.3039 7.87856 41.1659C7.91241 40.9319 7.88063 40.7282 7.78323 40.5547C7.67983 40.3804 7.47777 40.2529 7.17705 40.1723L7.46871 38.1564C7.92113 38.2469 8.29502 38.3933 8.59037 38.5957C8.8806 38.7911 9.10302 39.0318 9.25765 39.3178C9.41228 39.6038 9.50985 39.9243 9.55035 40.2794C9.58485 40.6336 9.57346 41.0087 9.51617 41.4047Z" fill="white"/>
<path d="M12.2784 30.6136L6.82308 27.3343L7.85721 25.6006L9.82112 26.7812L10.7807 25.1725L8.81681 23.9919L9.85094 22.2583L15.3062 25.5376L14.2721 27.2713L12.1913 26.0204L11.2317 27.6291L13.3125 28.88L12.2784 30.6136Z" fill="white"/>
<path d="M28.7399 13.3371L26.1963 7.50232L30.4422 5.63715L31.0417 7.0125L28.6441 8.06577L29.1201 9.15771L31.2679 8.21415L31.8384 9.52282L29.6905 10.4664L30.588 12.5252L28.7399 13.3371Z" fill="white"/>
<path d="M43.6561 9.33764C43.0688 9.36807 42.5523 9.29771 42.1065 9.12656C41.6606 8.95541 41.3065 8.67936 41.0441 8.29839C40.7817 7.91743 40.635 7.42425 40.6039 6.81885L40.4078 3.00482L42.4328 2.89991L42.6172 6.48691C42.6378 6.88647 42.7111 7.19225 42.8374 7.40423C42.9693 7.60985 43.2139 7.70341 43.5711 7.6849C43.9283 7.6664 44.1589 7.54822 44.2631 7.33037C44.3669 7.10647 44.4085 6.79473 44.388 6.39517L44.2036 2.80817L46.2286 2.70326L46.4247 6.51728C46.4558 7.12268 46.3604 7.62841 46.1385 8.03447C45.9165 8.44052 45.5926 8.75171 45.1667 8.96802C44.7468 9.18401 44.2433 9.30722 43.6561 9.33764Z" fill="white"/>
<path d="M54.7319 10.084L56.6631 4.01897L58.5852 4.63573L57.1506 9.14121L59.5576 9.91354L59.061 11.4731L54.7319 10.084Z" fill="white"/>
<path d="M66.3628 15.1529L70.2212 10.0907L71.8221 11.3203L68.9558 15.0809L70.9606 16.6207L69.9684 17.9224L66.3628 15.1529Z" fill="white"/>
<path d="M80.7188 33.4002L86.0311 29.158L86.7071 31.233L83.3838 33.6545L87.4818 33.6105L88.0874 35.4694L81.347 35.3282L80.7188 33.4002Z" fill="white"/>
<path d="M82.9946 45.3052L89.3594 45.372L89.3383 47.3997L82.9735 47.3329L82.9946 45.3052Z" fill="white"/>
<path d="M82.0072 55.3931L88.0117 57.5051L87.1427 59.9948C86.9329 60.5957 86.6435 61.0755 86.2744 61.434C85.9052 61.7926 85.4653 62.0138 84.9545 62.0976C84.4474 62.1891 83.8794 62.1242 83.2503 61.903L83.0788 61.8426C82.4383 61.6174 81.9398 61.3071 81.5834 60.9118C81.227 60.5166 81.0133 60.0526 80.9424 59.52C80.8772 58.9894 80.9524 58.4151 81.1682 57.7969L82.0072 55.3931ZM82.886 57.8421L82.7272 58.2971C82.6552 58.5031 82.6342 58.7014 82.6641 58.8918C82.6976 59.09 82.8004 59.2739 82.9723 59.4436C83.1442 59.6133 83.4074 59.7605 83.762 59.8852L83.9335 59.9456C84.2652 60.0622 84.5442 60.109 84.7706 60.0858C84.995 60.0683 85.1752 59.9936 85.3112 59.8615C85.4509 59.7371 85.5567 59.5719 85.6286 59.3659L85.8024 58.8679L82.886 57.8421Z" fill="white"/>
<path d="M76.0762 68.0566L80.945 72.1563L77.8549 75.8546L76.7073 74.8882L78.503 72.739L77.7727 72.1241L76.1518 74.0639L75.1433 73.2146L76.7641 71.2748L75.9295 70.572L74.1337 72.7211L72.986 71.7548L76.0762 68.0566Z" fill="white"/>
<path d="M64.3907 78.3622C64.7691 78.1573 65.1577 78.0158 65.5562 77.9378C65.9523 77.8681 66.3426 77.8773 66.7272 77.9655C67.1065 78.0565 67.4656 78.2447 67.8047 78.5298C68.1466 78.8203 68.4539 79.2192 68.7265 79.7265L68.8125 79.8867C69.0737 80.3726 69.227 80.8308 69.2724 81.2611C69.3179 81.6915 69.273 82.0881 69.1376 82.4509C68.9998 82.822 68.7917 83.1519 68.5133 83.4405C68.2324 83.7374 67.9027 83.9883 67.5242 84.1933C67.1404 84.4011 66.7505 84.5399 66.3544 84.6096C65.9559 84.6876 65.567 84.6811 65.1877 84.59C64.8113 84.5043 64.4538 84.3256 64.1151 84.054C63.7765 83.7825 63.4766 83.4037 63.2155 82.9178L63.1294 82.7576C62.8597 82.2556 62.7004 81.78 62.6517 81.3307C62.6058 80.8868 62.6477 80.4781 62.7773 80.1046C62.9098 79.7364 63.1164 79.4039 63.3973 79.107C63.6758 78.8183 64.0069 78.5701 64.3907 78.3622ZM65.1741 79.82C64.9928 79.9181 64.8532 80.0489 64.7552 80.2123C64.6547 80.3839 64.6164 80.5942 64.6401 80.8433C64.6614 81.1007 64.7682 81.4082 64.9604 81.766L65.0465 81.9262C65.2273 82.2626 65.4147 82.5024 65.6086 82.6455C65.8 82.7969 65.9919 82.8722 66.1842 82.8715C66.3741 82.879 66.5596 82.8337 66.7408 82.7355C66.9221 82.6374 67.0617 82.5066 67.1597 82.3432C67.2606 82.1852 67.3033 81.9828 67.2877 81.7362C67.275 81.4949 67.1783 81.206 66.9975 80.8696L66.9114 80.7094C66.7192 80.3517 66.5218 80.0932 66.3192 79.934C66.1196 79.7802 65.9234 79.6968 65.7307 79.684C65.5408 79.6765 65.3553 79.7218 65.1741 79.82Z" fill="white"/>
<circle cx="48.5221" cy="85.5221" r="3.52207" fill="#BFBFBF"/>
</svg>
