<?xml version="1.0" encoding="UTF-8"?>
<svg xmlns="http://www.w3.org/2000/svg" width="145" height="100" viewBox="0 0 145 100" fill="none">
  <g id="Group 472">
    <path id="Vector" fill-rule="evenodd" clip-rule="evenodd" d="M81.0943 42.5085C79.4027 43.7041 77.1792 43.8839 75.4567 43.1068C75.4567 43.1068 74.9871 42.9274 74.5489 42.4492C74.1719 41.9994 64.6505 31.7447 64.6505 31.7447L64.6196 31.7143C67.5643 32.2229 70.7905 30.8779 72.4503 28.4259C74.1092 26.0936 74.048 22.7748 72.4817 20.4424C70.6029 17.9013 66.9376 17.0644 63.8681 17.4525C58.5438 18.1703 54.7227 22.6851 53.5333 27.4102C52.3107 32.7909 53.1886 37.8741 55.1002 42.6579C55.5374 43.6752 56.1328 44.7213 56.8535 45.617C51.2463 43.2861 46.2975 38.9805 43.6986 33.2093C40.8171 26.9903 40.8797 19.1273 44.2939 12.8185C46.9869 7.94502 51.7472 3.43018 57.636 1.51625C63.8054 -0.905323 72.1056 -0.397193 78.1198 2.83189C85.4168 6.3001 90.9291 14.9422 90.9605 22.6557C91.2112 30.6388 87.514 37.8741 81.0943 42.5085Z" fill="#BFA161"></path>
    <path id="Vector_2" fill-rule="evenodd" clip-rule="evenodd" d="M60.6097 45.5291C57.8854 42.7175 55.6923 39.0705 57.3531 35.2735C58.824 32.3732 60.1396 29.4126 60.7664 26.0635C61.0171 29.5625 63.2415 32.6721 64.305 36.0212C64.7123 37.6353 64.7441 39.3101 64.0866 40.9839C63.3663 42.8077 62.2069 44.362 60.8286 45.7673L60.6097 45.5291Z" fill="#BFA161"></path>
    <g id="Group">
      <path id="Vector_3" fill-rule="evenodd" clip-rule="evenodd" d="M26.2454 77.1241H18.9922C17.3854 74.7175 15.9338 72.6382 14.6297 70.8867C13.2653 69.0477 11.8583 67.2406 10.4099 65.467H7.6557V73.6289C7.6557 74.0498 7.72705 74.4205 7.86349 74.7425C7.99944 75.0573 8.29737 75.3061 8.75778 75.4724C8.98436 75.5592 9.38064 75.6392 9.95048 75.7077C10.5208 75.7819 11.001 75.8253 11.3963 75.8374V77.1246H0V75.8374C0.304685 75.8118 0.746286 75.7699 1.32287 75.7077C1.89946 75.6522 2.30153 75.5713 2.52812 75.4724C2.90512 75.3172 3.18281 75.0887 3.35154 74.7859C3.52558 74.4822 3.61091 74.0989 3.61091 73.6289V55.0267C3.61091 54.5995 3.54631 54.2288 3.41566 53.901C3.29369 53.5727 2.99479 53.3249 2.5286 53.1576C2.2109 53.0467 1.79678 52.9484 1.29057 52.8606C0.863845 52.7794 0.433018 52.7215 0 52.6871L0 51.4003H12.4396C13.5802 51.4003 14.649 51.5127 15.6479 51.7349C16.6449 51.9577 17.5536 52.3163 18.3645 52.811C19.1355 53.2805 19.7805 53.9308 20.2437 54.7056C20.7114 55.4852 20.95 56.4252 20.95 57.5273C20.95 58.5175 20.7885 59.3964 20.4703 60.1562C20.1568 60.9105 19.6784 61.585 19.0703 62.1304C18.5 62.6496 17.812 63.1028 17.0156 63.4798C16.2187 63.8635 15.3365 64.1856 14.3781 64.4507C15.4918 65.8584 16.5958 67.2737 17.6901 68.6965C18.5713 69.8406 19.6464 71.2391 20.9298 72.8787C21.4876 73.6091 21.9865 74.1409 22.4416 74.4875C22.8885 74.8279 23.3349 75.1137 23.7765 75.3292C24.1068 75.4845 24.5146 75.6084 25.0136 75.6942C25.5063 75.7752 25.9151 75.8248 26.2454 75.8369V77.1241ZM16.2573 57.9414C16.2573 56.3823 15.7896 55.1511 14.851 54.2356C13.9172 53.3254 12.588 52.8683 10.8833 52.8683H7.6557V63.9069H10.1453C11.8885 63.9069 13.3478 63.3752 14.5063 62.3039C15.6744 61.2342 16.2578 59.7792 16.2578 57.941L16.2573 57.9414ZM43.4292 72.9168C42.6453 74.3467 41.5944 75.4792 40.2802 76.3267C38.9631 77.1737 37.4469 77.5946 35.7417 77.5946C34.2308 77.5946 32.9157 77.3405 31.7818 76.8334C30.6469 76.3267 29.7131 75.6392 28.9817 74.7671C28.249 73.8998 27.6974 72.8792 27.3354 71.7222C26.9777 70.5589 26.7978 69.3339 26.7978 68.0404C26.7978 66.8834 26.9917 65.7451 27.3735 64.6243C27.7519 63.5216 28.3301 62.4981 29.0791 61.6049C29.7984 60.7506 30.6922 60.0574 31.762 59.5319C32.8313 59.0054 34.0312 58.7412 35.3604 58.7412C36.7271 58.7412 37.9001 58.9442 38.8729 59.3593C39.8516 59.7667 40.6432 60.3302 41.2463 61.0418C41.8282 61.723 42.2621 62.5209 42.548 63.4369C42.8334 64.3586 42.9761 65.3556 42.9761 66.4259V67.6263H30.5765C30.5765 68.7954 30.6922 69.8603 30.9251 70.812C31.1579 71.7714 31.5287 72.6068 32.0402 73.3382C32.5334 74.0367 33.175 74.5873 33.9729 74.9961C34.7698 75.3977 35.7229 75.6026 36.825 75.6026C37.9516 75.6026 38.925 75.348 39.7402 74.8476C40.5521 74.3462 41.3418 73.4428 42.1006 72.1363L43.4292 72.9168ZM39.236 66.1033C39.236 65.4236 39.1781 64.6995 39.0542 63.9252C38.9308 63.1524 38.7423 62.5088 38.4776 61.9891C38.1942 61.4443 37.7821 60.9768 37.2772 60.6272C36.7734 60.2753 36.1177 60.1017 35.3208 60.1017C33.9917 60.1017 32.8901 60.6272 32.0079 61.6854C31.1271 62.7436 30.6532 64.2164 30.576 66.1033H39.236ZM54.0146 77.1241H45.1971V75.9719C45.4786 75.9473 45.779 75.9179 46.0986 75.888C46.3652 75.8707 46.6295 75.8268 46.8873 75.7569C47.2311 75.6551 47.487 75.469 47.6563 75.2073C47.825 74.944 47.919 74.6027 47.9132 74.1852L47.6254 55.0956C47.623 54.8796 47.5242 54.2568 47.4051 53.8277C47.3511 53.6329 47.2928 53.4767 47.2373 53.4165C47.179 53.3524 47.1592 53.2873 47.0773 53.2174C46.7605 52.9469 47.1539 53.3225 46.8579 53.0713C46.6627 52.905 46.9384 53.0086 46.3527 52.8929C45.7717 52.7787 44.7989 53.0351 44.4421 53.0115L44.4103 51.7532L50.9861 51.411L51.2985 51.6665L51.3241 73.976C51.3241 74.3824 51.4022 74.7155 51.5617 74.9792C51.7203 75.2405 51.9754 75.4459 52.3316 75.5828C52.5869 75.6966 52.8529 75.7846 53.1257 75.8456C53.3894 75.9058 53.6887 75.9468 54.0146 75.9719V77.1241ZM65.3458 77.1241H56.3678V75.9396L57.2601 75.8663C57.5696 75.8422 57.8324 75.794 58.0575 75.7188C58.4118 75.6151 58.6756 75.4247 58.8419 75.1547C59.0087 74.8847 59.0998 74.5347 59.0998 74.1052V63.1587C59.0998 62.773 59.0029 62.4225 58.8226 62.1029C58.6423 61.7847 58.3853 61.5205 58.0575 61.306C57.8203 61.159 57.479 61.036 57.0234 60.9382C56.6156 60.8411 56.2006 60.7773 55.7825 60.7472V59.582L62.339 59.1828L62.6018 59.435V73.8907C62.6018 74.3086 62.6852 74.6572 62.8524 74.9339C63.0197 75.2039 63.2902 75.4112 63.6561 75.5414C63.9319 75.6522 64.2028 75.7376 64.466 75.8046C64.7552 75.8732 65.0494 75.9183 65.3458 75.9396V77.1241ZM62.9744 52.1948C62.9744 52.8756 62.743 53.4705 62.2677 53.9801C61.7981 54.4887 61.2201 54.7466 60.5254 54.7466C59.889 54.7466 59.3298 54.5017 58.8607 54.0167C58.3921 53.5322 58.1534 52.9729 58.1534 52.3535C58.1534 51.6911 58.3921 51.1202 58.8607 50.6295C59.3302 50.1387 59.8895 49.8933 60.5254 49.8933C61.2461 49.8933 61.8304 50.1199 62.2865 50.5813C62.743 51.0465 62.9744 51.5807 62.9744 52.1948ZM85.3741 76.7963C84.7777 77.0002 84.259 77.1675 83.8121 77.2976C83.3589 77.4215 82.8527 77.489 82.2829 77.489C81.2907 77.489 80.5068 77.2663 79.9163 76.8276C79.3267 76.3821 78.9511 75.7381 78.7882 74.8968H78.6725C77.849 75.7626 76.9673 76.4308 76.0209 76.8893C75.0804 77.3468 73.946 77.5763 72.6178 77.5763C71.2115 77.5763 70.0574 77.167 69.1501 76.345C68.2423 75.5216 67.7886 74.4456 67.7886 73.1207C67.7886 72.428 67.8928 71.8152 68.0933 71.2709C68.299 70.7251 68.6095 70.2247 69.0074 69.7981C69.3251 69.439 69.7392 69.1174 70.2584 68.832C70.7296 68.5697 71.2192 68.3422 71.7235 68.1513C72.2934 67.9483 73.4475 67.5641 75.185 67.0068C76.9292 66.4495 78.1017 66.0175 78.711 65.7018V63.9069C78.711 63.7522 78.6787 63.4489 78.6069 63.0039C78.5362 62.5574 78.3847 62.1274 78.16 61.7351C77.9069 61.2838 77.5497 60.8938 77.0835 60.566C76.624 60.2304 75.9689 60.0646 75.1199 60.0646C74.5365 60.0646 73.9985 60.1567 73.4991 60.349C73.0001 60.5351 72.6438 60.7318 72.4433 60.9372C72.4433 61.1782 72.5011 61.5302 72.6255 62.007C72.7465 62.477 72.8058 62.9104 72.8058 63.3134C72.8058 63.7334 72.6048 64.1176 72.2095 64.47C71.8079 64.8234 71.2568 64.9965 70.5433 64.9965C69.9147 64.9965 69.4485 64.7795 69.1501 64.3529C68.8512 63.9252 68.7032 63.4426 68.7032 62.9104C68.7032 62.3531 68.9105 61.8218 69.3188 61.3142C69.7339 60.8075 70.2647 60.3548 70.9271 59.959C71.4964 59.6187 72.183 59.3342 72.9934 59.0927C73.8033 58.8574 74.5949 58.7408 75.3667 58.7408C76.4293 58.7408 77.3563 58.815 78.1542 58.95C78.9299 59.0831 79.6653 59.3902 80.3053 59.8481C80.9537 60.2931 81.4397 60.8991 81.7772 61.6661C82.1137 62.4351 82.2834 63.4248 82.2834 64.631C82.2834 66.3632 82.2631 67.8929 82.2236 69.2283C82.1855 70.5656 82.1662 72.0254 82.1662 73.6096C82.1662 74.0801 82.2496 74.4513 82.4251 74.729C82.5938 75.0086 82.859 75.2434 83.2095 75.4411C83.4038 75.5462 83.7027 75.6089 84.11 75.6209C84.5246 75.6325 84.9465 75.6392 85.3741 75.6392V76.7963ZM78.7501 67.2237C77.6736 67.5265 76.7272 67.8235 75.9168 68.1142C75.1069 68.4058 74.3548 68.764 73.6615 69.2037C73.0257 69.613 72.5267 70.1014 72.1569 70.6635C71.7939 71.2213 71.6059 71.8895 71.6059 72.6628C71.6059 73.6655 71.8855 74.4075 72.4361 74.8775C72.9881 75.348 73.6876 75.5838 74.5293 75.5838C75.4308 75.5838 76.2215 75.3731 76.9085 74.959C77.5902 74.5444 78.1663 74.0498 78.6324 73.4799L78.7501 67.2237ZM107.912 77.1241H98.7407V75.9304C99.0319 75.9063 99.3554 75.8812 99.6991 75.8567C100.05 75.8316 100.334 75.7824 100.568 75.7082C100.918 75.6031 101.184 75.4107 101.353 75.1393C101.527 74.8664 101.612 74.514 101.612 74.0806V64.8856C101.612 63.6167 101.294 62.6395 100.671 61.952C100.043 61.265 99.2778 60.9189 98.3835 60.9189C97.71 60.9189 97.0944 61.0177 96.5356 61.2154C95.9855 61.4135 95.4861 61.6608 95.0585 61.952C94.6434 62.2302 94.3064 62.5276 94.0596 62.8497C93.8137 63.1712 93.6329 63.4253 93.5225 63.6162V73.9003C93.5225 74.3091 93.6059 74.65 93.7886 74.9161C93.9641 75.1812 94.2283 75.3861 94.5855 75.5283C94.8607 75.6535 95.15 75.7451 95.447 75.8012C95.7585 75.862 96.0762 75.9063 96.4069 75.9304V77.1246H87.2345V75.9304C87.5257 75.9063 87.8246 75.8812 88.1351 75.8567C88.4098 75.8381 88.6815 75.7883 88.945 75.7082C89.296 75.6031 89.5611 75.4107 89.7308 75.1393C89.9063 74.8664 89.9902 74.514 89.9902 74.0806V63.0406C89.9902 62.626 89.8986 62.2485 89.7106 61.9086C89.5312 61.566 89.268 61.2745 88.9455 61.0611C88.7059 60.9189 88.42 60.8138 88.0897 60.7453C87.7389 60.676 87.3837 60.6306 87.0267 60.6094V59.434L93.2554 59.0319L93.5225 59.285V61.8035H93.6126C93.9173 61.5191 94.3001 61.1662 94.7528 60.7641C95.2074 60.3616 95.6423 60.0275 96.0439 59.7749C96.5173 59.4837 97.0746 59.2417 97.7158 59.0493C98.3647 58.8579 99.0902 58.7591 99.9011 58.7591C101.696 58.7591 103.031 59.2971 103.9 60.3616C104.768 61.4328 105.195 62.8559 105.195 64.631V73.9321C105.195 74.3583 105.275 74.6996 105.43 74.9595C105.579 75.2198 105.838 75.4232 106.207 75.5659C106.511 75.6894 106.771 75.7704 106.992 75.8186C107.213 75.8677 107.524 75.9063 107.913 75.9304L107.912 77.1241ZM118.873 77.5946C116.164 77.5946 114.044 76.7346 112.508 75.0202C110.978 73.3068 110.214 71.0043 110.214 68.1142C110.214 66.8588 110.421 65.6834 110.829 64.5876C111.244 63.4935 111.852 62.4831 112.625 61.6049C113.37 60.7506 114.31 60.0574 115.438 59.5319C116.56 59.0054 117.79 58.7412 119.119 58.7412C120.954 58.7412 122.452 59.1611 123.599 60.0024C124.753 60.8437 125.329 61.9886 125.329 63.4369C125.329 64.0429 125.18 64.5746 124.875 65.0398C124.571 65.5089 124.071 65.7389 123.371 65.7389C122.626 65.7389 122.049 65.5586 121.635 65.1936C121.226 64.8354 121.019 64.4271 121.019 63.9807C121.019 63.4369 121.097 62.8796 121.245 62.3039C121.401 61.7293 121.485 61.3089 121.511 61.0418C121.285 60.6706 120.948 60.4175 120.494 60.2931C120.047 60.1629 119.561 60.1012 119.041 60.1012C118.442 60.1002 117.851 60.2268 117.305 60.4724C116.754 60.7202 116.222 61.1787 115.703 61.8402C115.231 62.4471 114.855 63.2638 114.562 64.2902C114.272 65.318 114.122 66.5425 114.122 67.9667C114.122 70.218 114.647 72.05 115.691 73.4732C116.734 74.891 118.109 75.6026 119.8 75.6026C121.031 75.6026 122.062 75.3172 122.893 74.7488C123.716 74.179 124.486 73.3305 125.194 72.1922L126.412 72.9539C125.576 74.3829 124.474 75.51 123.106 76.345C121.738 77.1805 120.325 77.5946 118.874 77.5946H118.873ZM144.509 72.9168C143.725 74.3467 142.675 75.4792 141.36 76.3267C140.043 77.1737 138.527 77.5946 136.823 77.5946C135.312 77.5946 133.996 77.3405 132.862 76.8334C131.727 76.3267 130.793 75.6392 130.061 74.7671C129.329 73.8998 128.778 72.8792 128.415 71.7222C128.058 70.5589 127.876 69.3339 127.876 68.0404C127.876 66.8834 128.071 65.7451 128.454 64.6243C128.832 63.5219 129.41 62.4985 130.158 61.6049C130.878 60.7506 131.772 60.0574 132.842 59.5319C133.912 59.0054 135.111 58.7412 136.439 58.7412C137.807 58.7412 138.98 58.9442 139.952 59.3593C140.931 59.7667 141.723 60.3302 142.325 61.0418C142.908 61.723 143.342 62.5209 143.627 63.4369C143.913 64.3586 144.055 65.3556 144.055 66.4259V67.6263H131.655C131.655 68.7954 131.772 69.8603 132.005 70.812C132.238 71.7714 132.609 72.6068 133.121 73.3382C133.614 74.0367 134.255 74.5873 135.051 74.9961C135.849 75.3977 136.802 75.6026 137.904 75.6026C139.033 75.6026 140.004 75.348 140.822 74.8476C141.631 74.3462 142.423 73.4428 143.181 72.1363L144.509 72.9168ZM140.315 66.1033C140.315 65.4236 140.257 64.6995 140.134 63.9252C140.01 63.1524 139.823 62.5088 139.558 61.9891C139.274 61.4448 138.863 60.9774 138.359 60.6272C137.852 60.2753 137.199 60.1017 136.401 60.1017C135.071 60.1017 133.97 60.6272 133.088 61.6854C132.206 62.7436 131.734 64.2164 131.655 66.1033H140.315Z" fill="#1F1917"></path>
      <path id="Vector_4" d="M5.2834 99.7889H0.0078125V99.2586C0.157263 99.2466 0.370832 99.2326 0.652858 99.2123C0.934403 99.194 1.13158 99.1641 1.2468 99.1231C1.42662 99.0595 1.55872 98.9703 1.64405 98.858C1.72552 98.7462 1.76554 98.5899 1.76554 98.3913V90.7101C1.76554 90.5375 1.73709 90.3904 1.6749 90.2743C1.61561 90.1566 1.47194 90.0592 1.2468 89.9782C1.08048 89.9194 0.875587 89.8635 0.624897 89.81C0.421414 89.766 0.215285 89.7352 0.0078125 89.7179V89.1876H5.2834V89.7179C5.11129 89.7227 4.90881 89.7415 4.67114 89.7743C4.43491 89.8047 4.22905 89.8486 4.05164 89.8973C3.84386 89.958 3.7026 90.0544 3.6327 90.1875C3.55942 90.3225 3.52568 90.4734 3.52568 90.6358V98.3098C3.52568 98.4723 3.56424 98.6184 3.64379 98.7461C3.72237 98.8734 3.86073 98.9751 4.05164 99.0489C4.16735 99.0904 4.35633 99.1328 4.61859 99.1796C4.87796 99.2278 5.09924 99.2528 5.28388 99.2581L5.2834 99.7889ZM15.9267 99.7889H11.9426V99.2962C12.0694 99.2871 12.2097 99.2755 12.3591 99.2654C12.5115 99.2557 12.6354 99.235 12.7361 99.2046C12.8894 99.1612 13.0042 99.0827 13.0775 98.9703C13.1536 98.8585 13.1908 98.7124 13.1908 98.5345V94.7438C13.1908 94.2212 13.0524 93.8191 12.7824 93.5361C12.5086 93.2527 12.1769 93.11 11.7883 93.11C11.4943 93.11 11.2267 93.1504 10.9852 93.2324C10.7456 93.3134 10.5286 93.4156 10.3425 93.5361C10.1632 93.6509 10.0161 93.7728 9.91009 93.9059C9.82542 94.0058 9.74732 94.1111 9.67627 94.2212V98.4598C9.67627 98.6285 9.71195 98.7693 9.79101 98.8792C9.8667 98.9886 9.9824 99.072 10.1372 99.1309C10.2529 99.1815 10.3763 99.2176 10.5117 99.2432C10.6477 99.2678 10.7851 99.2866 10.9292 99.2962V99.7894H6.94423V99.2962C7.07054 99.2871 7.19974 99.2755 7.33521 99.2654C7.47019 99.2557 7.5859 99.235 7.68714 99.2046C7.83948 99.1612 7.95567 99.0827 8.0275 98.9703C8.10463 98.8585 8.14079 98.7124 8.14079 98.5345V93.9845C8.14079 93.8133 8.10126 93.6576 8.0193 93.5173C7.94015 93.375 7.82599 93.2552 7.68762 93.1692C7.58349 93.11 7.45959 93.0661 7.31544 93.0386C7.17129 93.0111 7.01654 92.9923 6.85407 92.9822V92.4972L9.56009 92.3323L9.67579 92.4365V93.4744H9.71436C9.84693 93.3573 10.0133 93.2117 10.2109 93.0463C10.4081 92.88 10.5961 92.7426 10.7711 92.638C10.9999 92.5083 11.2442 92.408 11.4981 92.3396C11.8075 92.2569 12.1267 92.2168 12.4469 92.2205C13.2264 92.2205 13.8074 92.4422 14.1839 92.88C14.5618 93.3216 14.7479 93.9088 14.7479 94.6396V98.4723C14.7479 98.6492 14.7817 98.7891 14.8492 98.8961C14.9143 99.0036 15.0266 99.088 15.1866 99.1458C15.3192 99.1974 15.4315 99.2297 15.528 99.2504C15.6234 99.2712 15.7589 99.2866 15.9267 99.2962V99.7889ZM26.2459 99.6539L23.4078 99.8188L23.2835 99.7142V99.0258L23.2184 99.0118C22.931 99.303 22.5796 99.5373 22.1568 99.7234C21.7374 99.908 21.3035 99.9996 20.858 99.9996C20.3967 99.9992 19.9404 99.9033 19.5178 99.7181C19.0918 99.536 18.7082 99.2676 18.3911 98.9298C18.0567 98.5703 17.7948 98.1496 17.6198 97.6908C17.4308 97.2068 17.3353 96.6736 17.3353 96.0917C17.3331 95.5708 17.4364 95.0549 17.6391 94.575C17.8379 94.107 18.1239 93.6809 18.4818 93.3197C18.8168 92.9856 19.2276 92.7204 19.7155 92.5194C20.1877 92.3233 20.6938 92.2221 21.2051 92.2214C21.585 92.2214 21.9567 92.2648 22.3236 92.3516C22.689 92.4403 23.0043 92.5498 23.2666 92.6852V90.1229C23.2666 89.9127 23.2295 89.7213 23.1509 89.5511C23.0857 89.3909 22.9738 89.254 22.8298 89.1582C22.6755 89.0637 22.4692 88.9957 22.2074 88.9514C21.9271 88.9089 21.6452 88.8783 21.3623 88.8598V88.396L24.6864 88.2253L24.8093 88.3372V98.2722C24.8093 98.4482 24.8459 98.5962 24.9226 98.7187C24.9949 98.8392 25.1053 98.9433 25.249 99.0272C25.3531 99.0894 25.5026 99.1241 25.7021 99.1391C25.8998 99.1535 26.0796 99.1651 26.2459 99.1704V99.6554V99.6539ZM23.2666 98.36V94.051C23.2139 93.9029 23.1419 93.7623 23.0525 93.633C22.9492 93.4785 22.8238 93.34 22.6804 93.2218C22.5105 93.0901 22.3214 92.9854 22.1197 92.9113C21.9061 92.8299 21.6554 92.7889 21.371 92.7889C21.0388 92.7889 20.7346 92.865 20.4589 93.0203C20.1802 93.1731 19.9353 93.3963 19.7212 93.6846C19.5149 93.9642 19.3549 94.3186 19.2363 94.7491C19.1186 95.1806 19.0588 95.6569 19.0588 96.1804C19.0588 96.5984 19.1046 96.9788 19.1914 97.3206C19.2782 97.6624 19.4276 97.9791 19.6364 98.2713C19.8279 98.5501 20.0816 98.7807 20.3774 98.9448C20.6753 99.113 21.0301 99.2003 21.4447 99.2003C21.8835 99.2003 22.2498 99.1111 22.5372 98.9366C22.8062 98.7796 23.0517 98.5855 23.2666 98.36ZM36.1675 99.6539L33.5165 99.8188L33.3935 99.7142V98.7789H33.3453C33.2132 98.9043 33.0642 99.0383 32.897 99.1796C32.7228 99.3292 32.5323 99.4585 32.329 99.5652C32.101 99.6915 31.8604 99.7937 31.6112 99.8704C31.3788 99.9413 31.0525 99.9745 30.6306 99.9745C29.9089 99.9745 29.3608 99.7634 28.9833 99.3382C28.6087 98.911 28.4192 98.292 28.4192 97.4806V93.9536C28.4192 93.7748 28.3807 93.6248 28.3069 93.5029C28.2251 93.372 28.1132 93.2625 27.9805 93.1837C27.8658 93.12 27.7411 93.0763 27.6117 93.0545C27.4562 93.0259 27.2991 93.0069 27.1412 92.9976V92.5107L29.8535 92.3323L29.9779 92.4365V97.5544C29.9779 98.0886 30.1095 98.4882 30.3741 98.7587C30.6393 99.0258 30.9546 99.1612 31.3239 99.1612C31.6242 99.1612 31.8952 99.1178 32.1309 99.033C32.3671 98.9501 32.5653 98.8503 32.7253 98.7355C32.8748 98.6314 33.004 98.5191 33.1173 98.4043C33.2306 98.2867 33.3174 98.1768 33.3762 98.078V93.9011C33.3762 93.7372 33.3405 93.592 33.2605 93.4648C33.1808 93.3331 33.0711 93.222 32.9403 93.1408C32.8415 93.0791 32.6954 93.0434 32.4978 93.0309C32.2792 93.0177 32.0605 93.0065 31.8416 92.9971V92.5102L34.7959 92.3323L34.9198 92.4365V98.2867C34.9198 98.4574 34.9599 98.6001 35.0351 98.7206C35.1132 98.8402 35.2216 98.9424 35.3585 99.0258C35.4579 99.0827 35.5755 99.1174 35.711 99.1362C35.8493 99.1501 36.0007 99.1641 36.167 99.1689L36.1675 99.6539ZM42.9429 96.1804C43.1676 96.3588 43.343 96.5651 43.464 96.7999C43.5846 97.0347 43.6439 97.3206 43.6439 97.6595C43.6439 98.3421 43.3628 98.8985 42.7992 99.3324C42.2366 99.7663 41.5038 99.9827 40.6086 99.9827C40.1347 99.9827 39.6984 99.9066 39.3007 99.7504C38.9015 99.5975 38.617 99.4548 38.4445 99.3247L38.2825 99.8116H37.663L37.5805 97.2488H38.1494C38.1947 97.4426 38.2873 97.6696 38.431 97.9266C38.5717 98.1869 38.7467 98.4222 38.9492 98.6314C39.1637 98.8503 39.4226 99.033 39.721 99.1844C40.0228 99.3329 40.3579 99.4086 40.732 99.4086C41.2623 99.4086 41.6663 99.2991 41.9541 99.0826C42.2386 98.8657 42.3813 98.5572 42.3813 98.1508C42.3813 97.9425 42.3379 97.7646 42.2477 97.6108C42.1456 97.4491 42.0088 97.3123 41.8471 97.2102C41.6357 97.0831 41.411 96.9796 41.177 96.9016C40.9118 96.81 40.6202 96.7184 40.2952 96.6297C40.0032 96.5474 39.7154 96.4508 39.4328 96.3405C39.1155 96.2185 38.8451 96.0758 38.6199 95.91C38.3805 95.7392 38.1783 95.5215 38.0255 95.2702C37.8708 95.0147 37.7956 94.7168 37.7956 94.3726C37.7956 93.7699 38.0429 93.2584 38.538 92.8395C39.0336 92.4206 39.6955 92.2128 40.5266 92.2128C40.8448 92.2128 41.1707 92.2504 41.5038 92.3246C41.8365 92.4008 42.1065 92.4909 42.3176 92.5951L42.5056 92.2046H43.1015L43.2244 94.5736H42.6556C42.5399 94.0457 42.2892 93.6176 41.9064 93.2864C41.5265 92.9538 41.0589 92.7889 40.5098 92.7889C40.0585 92.7889 39.7042 92.8906 39.4443 93.0945C39.1845 93.2985 39.0558 93.5458 39.0558 93.8341C39.0558 94.0582 39.0982 94.2453 39.1854 94.3957C39.2708 94.5427 39.3976 94.6705 39.5687 94.7746C39.735 94.8744 39.9399 94.9684 40.1906 95.0562C40.4418 95.1425 40.7518 95.2413 41.1211 95.3507C41.4841 95.4558 41.8249 95.5788 42.1455 95.7166C42.47 95.8565 42.7346 96.0122 42.9429 96.1804ZM50.3074 99.4674C49.9487 99.6024 49.6108 99.7142 49.2931 99.8063C48.9715 99.8988 48.5834 99.9461 48.1216 99.9461C47.4399 99.9461 46.9593 99.7894 46.6825 99.477C46.4034 99.1665 46.2655 98.7278 46.2655 98.159V93.1692H44.7951V92.4519H46.2964V90.159H47.8005V92.4519H50.1353V93.1692H47.815V97.2873C47.815 97.5959 47.8285 97.8533 47.8535 98.0601C47.8762 98.266 47.936 98.4472 48.0314 98.6001C48.1182 98.7461 48.2508 98.8556 48.4258 98.9289C48.6027 99.0036 48.8394 99.0412 49.1359 99.0412C49.2733 99.0412 49.4758 99.0316 49.7405 99.0084C50.0085 98.9848 50.1965 98.9573 50.3074 98.9212V99.4674ZM57.7524 93.3703C57.7524 93.6248 57.6825 93.849 57.5471 94.0486C57.4087 94.2453 57.198 94.3412 56.9107 94.3412C56.6031 94.3412 56.3669 94.2704 56.2068 94.1248C56.0429 93.9821 55.9619 93.821 55.9619 93.648C55.9619 93.5385 55.973 93.4383 55.9904 93.35C56.0097 93.2584 56.0289 93.1693 56.0434 93.0791C55.7865 93.0791 55.4827 93.1731 55.1366 93.3621C54.7833 93.5588 54.4811 93.8358 54.2543 94.1706V98.4598C54.2543 98.6338 54.2915 98.776 54.3652 98.884C54.4409 98.9935 54.5566 99.0773 54.7172 99.1309C54.8546 99.1815 55.0315 99.2176 55.2494 99.2432C55.4663 99.2678 55.6544 99.2866 55.812 99.2962V99.7894H51.5228V99.2962C51.6496 99.2871 51.7783 99.2755 51.9147 99.2654C52.0497 99.2557 52.1654 99.235 52.2667 99.2046C52.419 99.1612 52.5337 99.0827 52.6075 98.9703C52.6832 98.8585 52.7203 98.7124 52.7203 98.5345V93.9845C52.7203 93.8288 52.6798 93.6788 52.5998 93.5279C52.5198 93.3775 52.4069 93.258 52.2662 93.1692C52.1501 93.1057 52.0244 93.0615 51.894 93.0386C51.7418 93.0097 51.5878 92.9909 51.4331 92.9822V92.4972L54.1396 92.3323L54.2543 92.4365V93.4744H54.2939C54.6347 93.0714 55.0151 92.7653 55.4345 92.5565C55.8515 92.3478 56.2348 92.2431 56.5814 92.2431C56.9281 92.2431 57.2091 92.3449 57.4265 92.5488C57.642 92.7527 57.7524 93.0285 57.7524 93.3703ZM62.8043 99.7889H58.8704V99.2962C58.9967 99.2871 59.1259 99.2755 59.2609 99.2654C59.3974 99.2557 59.5116 99.235 59.6104 99.2046C59.7662 99.1612 59.8814 99.0827 59.9542 98.9703C60.0279 98.8585 60.067 98.7124 60.067 98.5345V93.9845C60.067 93.8244 60.0246 93.6788 59.9465 93.5458C59.863 93.4096 59.7477 93.2958 59.6104 93.2141C59.5068 93.1533 59.3569 93.1018 59.1578 93.0608C58.9784 93.0209 58.7963 92.9946 58.613 92.9822V92.4972L61.4863 92.3323L61.602 92.4365V98.4448C61.602 98.6184 61.6391 98.764 61.7109 98.8787C61.7852 98.9911 61.9033 99.0773 62.0634 99.1309C62.1848 99.1771 62.303 99.2128 62.4182 99.2403C62.5339 99.2654 62.6607 99.2866 62.8043 99.2962V99.7889ZM61.7659 89.4277C61.7659 89.7097 61.6647 89.958 61.4559 90.1692C61.3579 90.2727 61.2394 90.3545 61.1078 90.4095C60.9763 90.4645 60.8348 90.4913 60.6923 90.4883C60.5565 90.489 60.4219 90.4625 60.2966 90.4104C60.1712 90.3582 60.0576 90.2814 59.9624 90.1846C59.7575 89.9835 59.6534 89.7512 59.6534 89.4933C59.6534 89.2189 59.7575 88.9813 59.9624 88.7778C60.1692 88.5729 60.4141 88.4707 60.6923 88.4707C61.0076 88.4707 61.2645 88.5657 61.4636 88.7571C61.6642 88.9499 61.7659 89.1722 61.7659 89.4272M71.4377 98.0548C71.1089 98.6317 70.6383 99.115 70.0705 99.4592C69.4978 99.8092 68.8387 99.9827 68.0987 99.9827C67.4431 99.9827 66.8703 99.8781 66.3776 99.6694C65.8849 99.4592 65.48 99.1771 65.1603 98.817C64.8385 98.4521 64.5953 98.0247 64.4459 97.5616C64.2887 97.0718 64.2098 96.5603 64.2121 96.0459C64.2121 95.5682 64.2959 95.0986 64.4628 94.6372C64.6283 94.1794 64.8796 93.7572 65.2033 93.3934C65.5161 93.0415 65.9047 92.7556 66.369 92.5382C66.8342 92.3217 67.3553 92.2123 67.9329 92.2123C68.5268 92.2123 69.0369 92.2962 69.4597 92.4668C69.8839 92.6356 70.2277 92.8675 70.4894 93.1611C70.743 93.4407 70.932 93.7699 71.0564 94.1484C71.1803 94.5273 71.2415 94.9385 71.2415 95.3801V95.8743H65.8541C65.8541 96.3564 65.9047 96.7946 66.0064 97.188C66.1072 97.5833 66.2677 97.9266 66.4905 98.2284C66.71 98.5213 66.9983 98.7558 67.3298 98.911C67.6759 99.0774 68.0905 99.1612 68.5693 99.1612C69.0591 99.1612 69.4814 99.0566 69.8357 98.8503C70.1886 98.6439 70.5324 98.2713 70.8616 97.7333L71.4377 98.0548ZM69.6159 95.2466C69.6159 94.967 69.5908 94.6681 69.5378 94.3494C69.4838 94.0308 69.4028 93.7651 69.2871 93.5501C69.1618 93.3236 68.9831 93.1311 68.7664 92.9894C68.5471 92.8448 68.2622 92.773 67.9155 92.773C67.3385 92.773 66.8588 92.9899 66.477 93.4262C66.0942 93.8615 65.8874 94.4695 65.8541 95.2466H69.6159ZM78.1572 96.1804C78.3833 96.3588 78.5578 96.5651 78.6788 96.7999C78.7998 97.0347 78.8591 97.3206 78.8591 97.6595C78.8591 98.3421 78.5776 98.8985 78.014 99.3324C77.4514 99.7663 76.7191 99.9827 75.8229 99.9827C75.3504 99.9827 74.9132 99.9066 74.5164 99.7504C74.1167 99.5975 73.8318 99.4548 73.6602 99.3247L73.4972 99.8116H72.8778L72.7958 97.2488H73.3647C73.409 97.4426 73.5035 97.6696 73.6467 97.9266C73.7875 98.1869 73.961 98.4222 74.1645 98.6314C74.379 98.8503 74.6369 99.033 74.9358 99.1844C75.2371 99.3329 75.5722 99.4086 75.9473 99.4086C76.4766 99.4086 76.8821 99.2991 77.1689 99.0826C77.4543 98.8657 77.5975 98.5572 77.5975 98.1508C77.5975 97.9425 77.5522 97.7646 77.4625 97.6108C77.3608 97.449 77.224 97.3121 77.0624 97.2102C76.8509 97.0832 76.6262 96.9797 76.3922 96.9016C76.1271 96.81 75.834 96.7184 75.511 96.6297C75.2191 96.5475 74.9314 96.451 74.649 96.3405C74.3298 96.2185 74.0603 96.0758 73.8342 95.91C73.5953 95.7389 73.3935 95.5213 73.2408 95.2702C73.0855 95.0147 73.0094 94.7168 73.0094 94.3726C73.0094 93.7699 73.2572 93.2584 73.7532 92.8395C74.2488 92.4206 74.9103 92.2128 75.7414 92.2128C76.0596 92.2128 76.3865 92.2504 76.7191 92.3246C77.0513 92.4008 77.3217 92.4909 77.5324 92.5951L77.7214 92.2046H78.3158L78.4397 94.5736H77.8704C77.7546 94.0457 77.504 93.6176 77.1207 93.2864C76.7413 92.9538 76.2732 92.7889 75.725 92.7889C75.2733 92.7889 74.9185 92.8906 74.6596 93.0945C74.4007 93.2985 74.271 93.5458 74.271 93.8341C74.271 94.0582 74.3134 94.2453 74.4007 94.3957C74.4856 94.5427 74.6128 94.6705 74.784 94.7746C74.9503 94.8744 75.1552 94.9684 75.4059 95.0562C75.6566 95.1425 75.967 95.2413 76.3358 95.3507C76.6993 95.4558 77.0397 95.5788 77.3613 95.7166C77.6852 95.8565 77.9494 96.0122 78.1572 96.1804ZM93.7796 96.637L93.5322 99.7894H84.382V99.2581C84.5141 99.2466 84.7055 99.2297 84.9562 99.2051C85.2069 99.181 85.3819 99.1477 85.4803 99.1087C85.6442 99.0436 85.7647 98.9496 85.838 98.8247C85.9137 98.6994 85.9498 98.5422 85.9498 98.3475V90.7564C85.9498 90.5876 85.9199 90.4377 85.8544 90.308C85.7931 90.1769 85.6663 90.0727 85.4803 89.9946C85.353 89.9349 85.1765 89.8765 84.9475 89.8172C84.7622 89.769 84.5732 89.7358 84.3825 89.7179V89.1876H89.324V89.7179C89.1697 89.7227 88.9726 89.7464 88.7277 89.7922C88.4823 89.838 88.3049 89.8765 88.1954 89.9117C88.0064 89.971 87.8801 90.0727 87.8093 90.2183C87.7418 90.363 87.708 90.5163 87.708 90.6821V97.8022C87.708 98.13 87.7249 98.3855 87.7615 98.5673C87.7972 98.749 87.8801 98.8884 88.0122 98.9911C88.1395 99.0802 88.3275 99.1381 88.5782 99.1641C88.8289 99.1921 89.1775 99.2046 89.6292 99.2046C89.8341 99.2046 90.0452 99.2027 90.2656 99.1931C90.4758 99.1828 90.6855 99.1624 90.8937 99.1318C91.0737 99.104 91.2515 99.0631 91.4255 99.0094C91.5865 98.9554 91.707 98.8893 91.7822 98.8098C92.0083 98.5808 92.2701 98.2337 92.5714 97.7699C92.8703 97.3037 93.0791 96.9262 93.1943 96.6379H93.7796V96.637ZM98.7244 99.7889H94.791V99.2962C94.9173 99.2871 95.047 99.2755 95.1825 99.2654C95.3174 99.2557 95.4332 99.235 95.5315 99.2046C95.6863 99.1612 95.8015 99.0827 95.8743 98.9703C95.948 98.8585 95.9866 98.7124 95.9866 98.5345V93.9845C95.9866 93.8244 95.9456 93.6788 95.8661 93.5458C95.7832 93.4096 95.6683 93.2958 95.5315 93.2141C95.4269 93.1533 95.2779 93.1018 95.0774 93.0608C94.8983 93.0209 94.7165 92.9947 94.5336 92.9822V92.4972L97.4069 92.3323L97.5226 92.4365V98.4448C97.5226 98.6184 97.5587 98.764 97.632 98.8787C97.7053 98.9911 97.8234 99.0773 97.9839 99.1309C98.1054 99.1771 98.2231 99.2128 98.3383 99.2403C98.454 99.2654 98.5808 99.2866 98.7249 99.2962L98.7244 99.7889ZM97.6855 89.4277C97.6855 89.7097 97.5843 89.958 97.3755 90.1692C97.1701 90.3813 96.917 90.4883 96.6128 90.4883C96.3332 90.4883 96.0883 90.3861 95.8829 90.1846C95.6776 89.9835 95.5734 89.7512 95.5734 89.4933C95.5734 89.2189 95.6776 88.9813 95.8829 88.7778C95.9773 88.6797 96.0907 88.6018 96.2162 88.549C96.3417 88.4962 96.4767 88.4696 96.6128 88.4707C96.9281 88.4707 97.1841 88.5657 97.3842 88.7571C97.5843 88.9499 97.6855 89.1722 97.6855 89.4272M114.067 99.7889H110.1V99.2962C110.226 99.2871 110.353 99.2755 110.482 99.2654C110.612 99.2557 110.727 99.235 110.826 99.2046C110.981 99.1612 111.093 99.0827 111.167 98.9703C111.242 98.8585 111.28 98.7124 111.28 98.5345V94.7317C111.28 94.2111 111.15 93.8128 110.888 93.5299C110.626 93.2502 110.299 93.1095 109.911 93.1095C109.64 93.1095 109.387 93.1476 109.151 93.2213C108.915 93.2951 108.697 93.4007 108.499 93.5356C108.351 93.6348 108.217 93.7537 108.1 93.889C107.989 94.0177 107.911 94.1219 107.854 94.2082V98.4593C107.854 98.6333 107.888 98.7756 107.953 98.8884C108.021 99.0002 108.133 99.0875 108.292 99.1453C108.418 99.1916 108.534 99.2254 108.634 99.247C108.736 99.2683 108.868 99.2861 109.035 99.2957V99.7889H105.148V99.2957C105.275 99.2866 105.399 99.275 105.517 99.2649C105.635 99.2552 105.742 99.2345 105.841 99.2041C105.996 99.1607 106.108 99.0822 106.185 98.9698C106.257 98.858 106.295 98.7119 106.295 98.534V94.7317C106.295 94.2111 106.165 93.8128 105.902 93.5299C105.641 93.2502 105.317 93.1095 104.926 93.1095C104.655 93.1095 104.404 93.1476 104.168 93.2242C103.932 93.3033 103.712 93.4074 103.514 93.5424C103.354 93.6523 103.222 93.7738 103.112 93.9126C103.003 94.0505 102.918 94.1522 102.864 94.2212V98.4444C102.864 98.6131 102.9 98.7558 102.98 98.8705C103.056 98.9853 103.17 99.0716 103.327 99.1304C103.442 99.181 103.559 99.2172 103.68 99.2427C103.802 99.2673 103.937 99.2861 104.084 99.2957V99.7889H100.132V99.2957C100.259 99.2866 100.388 99.275 100.524 99.2649C100.658 99.2552 100.774 99.2345 100.876 99.2041C101.027 99.1607 101.143 99.0822 101.217 98.9698C101.292 98.858 101.329 98.7119 101.329 98.534V93.9531C101.331 93.8007 101.289 93.651 101.208 93.5221C101.122 93.3913 101.009 93.2807 100.876 93.1982C100.753 93.1328 100.622 93.0841 100.487 93.0535C100.33 93.015 100.17 92.9909 100.008 92.9817V92.4967L102.731 92.3318L102.847 92.436V93.4898H102.902C103.041 93.3645 103.21 93.2184 103.408 93.0482C103.605 92.8795 103.79 92.7426 103.96 92.6375C104.153 92.5179 104.393 92.4177 104.683 92.3391C104.988 92.2577 105.303 92.2177 105.618 92.22C106.147 92.22 106.601 92.3502 106.981 92.6052C107.358 92.8617 107.631 93.1712 107.798 93.5356C107.995 93.3592 108.17 93.2064 108.322 93.0762C108.471 92.9441 108.671 92.8038 108.918 92.6524C109.148 92.5134 109.397 92.4079 109.657 92.3391C109.965 92.2569 110.284 92.2169 110.603 92.22C111.29 92.22 111.833 92.423 112.237 92.8323C112.636 93.242 112.839 93.8688 112.839 94.7163V98.4593C112.839 98.6333 112.87 98.7756 112.937 98.8884C113.002 99.0002 113.115 99.0875 113.276 99.1453C113.403 99.1916 113.526 99.2254 113.651 99.247C113.775 99.2683 113.914 99.2861 114.067 99.2957L114.067 99.7889ZM119.375 99.7889H115.441V99.2962C115.568 99.2871 115.698 99.2755 115.833 99.2654C115.968 99.2557 116.083 99.235 116.182 99.2046C116.337 99.1612 116.452 99.0827 116.525 98.9703C116.599 98.8585 116.638 98.7124 116.638 98.5345V93.9845C116.638 93.8244 116.596 93.6788 116.516 93.5458C116.433 93.4097 116.319 93.2959 116.182 93.2141C116.078 93.1533 115.929 93.1018 115.729 93.0608C115.55 93.0208 115.368 92.9946 115.185 92.9822V92.4972L118.057 92.3323L118.173 92.4365V98.4448C118.173 98.6184 118.21 98.764 118.283 98.8787C118.356 98.9911 118.474 99.0773 118.635 99.1309C118.756 99.1771 118.874 99.2128 118.99 99.2403C119.105 99.2654 119.232 99.2866 119.375 99.2962V99.7889ZM118.337 89.4277C118.337 89.7097 118.235 89.958 118.026 90.1692C117.928 90.2727 117.81 90.3546 117.678 90.4096C117.547 90.4646 117.406 90.4914 117.263 90.4883C117.128 90.4891 116.993 90.4626 116.868 90.4104C116.743 90.3583 116.629 90.2815 116.534 90.1846C116.328 89.9835 116.225 89.7512 116.225 89.4933C116.225 89.2189 116.328 88.9813 116.534 88.7778C116.628 88.6799 116.742 88.6021 116.867 88.5493C116.993 88.4965 117.127 88.4698 117.263 88.4707C117.579 88.4707 117.835 88.5657 118.035 88.7571C118.236 88.9499 118.337 89.1722 118.337 89.4272M125.807 99.4674C125.45 99.6024 125.112 99.7142 124.794 99.8063C124.473 99.8988 124.083 99.9461 123.622 99.9461C122.941 99.9461 122.459 99.7894 122.183 99.477C121.905 99.1665 121.766 98.7278 121.766 98.159V93.1692H120.296V92.4519H121.797V90.159H123.301V92.4519H125.636V93.1692H123.315V97.2873C123.315 97.5959 123.33 97.8533 123.354 98.0601C123.377 98.266 123.436 98.4472 123.533 98.6001C123.619 98.7461 123.752 98.8556 123.926 98.9289C124.104 99.0036 124.34 99.0412 124.636 99.0412C124.774 99.0412 124.977 99.0316 125.241 99.0084C125.509 98.9848 125.698 98.9573 125.807 98.9212V99.4674ZM134.25 98.0548C133.921 98.6318 133.449 99.1152 132.881 99.4592C132.31 99.8092 131.651 99.9827 130.91 99.9827C130.254 99.9827 129.683 99.8781 129.19 99.6694C128.696 99.4592 128.291 99.1771 127.973 98.817C127.65 98.4525 127.406 98.025 127.257 97.5616C127.1 97.0717 127.022 96.5602 127.024 96.0459C127.024 95.5682 127.108 95.0986 127.274 94.6372C127.441 94.1797 127.692 93.7577 128.015 93.3934C128.328 93.0415 128.717 92.7556 129.182 92.5382C129.645 92.3217 130.167 92.2123 130.744 92.2123C131.338 92.2123 131.848 92.2962 132.271 92.4668C132.696 92.6356 133.04 92.8675 133.301 93.1611C133.555 93.4407 133.743 93.7699 133.867 94.1484C133.991 94.5273 134.053 94.9385 134.053 95.3801V95.8743H128.665C128.665 96.3564 128.717 96.7946 128.818 97.188C128.919 97.5833 129.08 97.9266 129.302 98.2284C129.521 98.5211 129.81 98.7555 130.141 98.911C130.487 99.0774 130.902 99.1612 131.38 99.1612C131.87 99.1612 132.294 99.0566 132.648 98.8503C133 98.6439 133.343 98.2713 133.673 97.7333L134.25 98.0548ZM132.428 95.2466C132.428 94.967 132.403 94.6681 132.349 94.3494C132.296 94.0308 132.214 93.7651 132.099 93.5501C131.973 93.3236 131.795 93.1312 131.578 92.9894C131.358 92.8448 131.074 92.773 130.727 92.773C130.149 92.773 129.671 92.9899 129.287 93.4262C128.905 93.8615 128.699 94.4695 128.665 95.2466H132.428ZM144.509 99.6539L141.671 99.8188L141.546 99.7142V99.0258L141.483 99.0118C141.195 99.303 140.843 99.5373 140.42 99.7234C140.001 99.908 139.567 99.9996 139.122 99.9996C138.659 99.9996 138.213 99.9046 137.781 99.7181C137.355 99.5362 136.972 99.2678 136.655 98.9298C136.32 98.5706 136.058 98.1499 135.884 97.6908C135.694 97.2068 135.599 96.6736 135.599 96.0917C135.599 95.559 135.7 95.0547 135.903 94.575C136.102 94.107 136.387 93.681 136.745 93.3197C137.08 92.9856 137.491 92.7204 137.978 92.5194C138.451 92.3233 138.957 92.2221 139.469 92.2214C139.849 92.2214 140.22 92.2648 140.586 92.3516C140.953 92.4403 141.268 92.5498 141.529 92.6852V90.1229C141.529 89.9127 141.493 89.7213 141.415 89.5511C141.338 89.3776 141.231 89.2474 141.094 89.1582C140.939 89.0637 140.733 88.9957 140.471 88.9514C140.191 88.909 139.909 88.8784 139.627 88.8598V88.396L142.949 88.2253L143.073 88.3372V98.2722C143.073 98.4482 143.109 98.5962 143.187 98.7187C143.259 98.8392 143.369 98.9433 143.512 99.0272C143.616 99.0894 143.766 99.1241 143.966 99.1391C144.163 99.1535 144.344 99.1651 144.509 99.1704V99.6554V99.6539ZM141.529 98.36V94.051C141.488 93.9208 141.415 93.7825 141.316 93.633C141.213 93.4784 141.088 93.3398 140.944 93.2218C140.774 93.0901 140.585 92.9854 140.383 92.9113C140.169 92.8299 139.919 92.7889 139.634 92.7889C139.302 92.7889 138.998 92.865 138.723 93.0203C138.443 93.1731 138.198 93.3963 137.984 93.6846C137.778 93.9642 137.618 94.3186 137.5 94.7491C137.382 95.1806 137.322 95.6569 137.322 96.1804C137.322 96.5984 137.367 96.9788 137.455 97.3206C137.541 97.6624 137.691 97.9791 137.899 98.2713C138.091 98.5499 138.345 98.7803 138.64 98.9448C138.939 99.113 139.294 99.2003 139.708 99.2003C140.146 99.2003 140.513 99.1111 140.8 98.9366C141.069 98.7797 141.315 98.5856 141.529 98.36Z" fill="#1F1917"></path>
    </g>
  </g>
</svg>
