<?xml version="1.0" encoding="UTF-8"?>
<svg xmlns="http://www.w3.org/2000/svg" width="164" height="21" viewBox="0 0 164 21" fill="none">
  <g id="Group 468">
    <g id="_3c78bbff">
      <path id="path6" d="M92.4405 1.17797C93.7149 0.369248 95.2343 0.0261554 96.7292 0.00164859C98.4447 -0.0228582 100.234 0.22221 101.778 0.981921C101.484 1.96219 101.189 2.94247 100.895 3.94725C99.621 3.31007 98.2241 2.96698 96.8027 2.99148C95.9695 3.01599 95.0873 3.18754 94.4011 3.72669C93.7639 4.24133 93.4698 5.05005 93.6168 5.83427C93.7639 6.49595 94.1805 7.05961 94.7442 7.40271C96.0185 8.26045 97.5379 8.60354 98.8858 9.31424C99.9396 9.80437 100.871 10.5151 101.582 11.4218C102.439 12.5736 102.684 14.0931 102.464 15.49C102.292 16.7888 101.631 17.9651 100.65 18.8229C99.6945 19.6071 98.5427 20.1463 97.3419 20.3668C95.945 20.6364 94.4991 20.6854 93.0777 20.4648C91.8524 20.2933 90.6515 19.9257 89.5487 19.3865C89.7938 18.3573 90.0879 17.3525 90.3574 16.3232C91.8524 17.1564 93.5188 17.5975 95.2098 17.5975C96.2146 17.573 97.2929 17.4015 98.0526 16.6908C99.0574 15.7105 99.0819 14.1176 98.1261 13.1128C98.0036 12.9903 97.881 12.8922 97.7585 12.7942C96.6312 11.9365 95.2098 11.6179 93.9599 11.0297C92.6366 10.417 91.3377 9.58381 90.5535 8.30946C89.9163 7.20665 89.7203 5.9323 89.9653 4.68245C90.3084 3.21204 91.1907 1.96219 92.4405 1.17797Z" fill="#3C78BB"></path>
      <path id="path8" d="M0 0.220703C6.4698 0.220703 12.9396 0.220703 19.4094 0.220703C19.4094 2.18125 19.4094 4.14179 19.4094 6.12685C17.5469 6.12685 15.6844 6.12685 13.8463 6.12685C13.8463 10.8567 13.8463 15.562 13.8463 20.2918C11.1506 20.2918 8.45485 20.2918 5.7591 20.2918C5.7591 15.562 5.7591 10.8567 5.7591 6.12685C3.84757 6.12685 1.91153 6.12685 0 6.12685C0 4.14179 0 2.18125 0 0.220703Z" fill="#3C78BB"></path>
      <path id="path10" d="M24.9947 0.197266C27.8129 0.197266 30.6067 0.197266 33.425 0.197266C36.0227 6.88763 38.6205 13.578 41.2182 20.2684C38.5959 20.2684 35.9737 20.2684 33.3515 20.2684C31.9791 16.3228 30.6067 12.3527 29.2343 8.38255C29.1608 8.48058 29.1118 8.5786 29.0873 8.70113C27.7884 12.5487 26.4651 16.3963 25.1417 20.2684C22.544 20.2684 19.9463 20.2684 17.373 20.2684C19.8972 13.578 22.446 6.88763 24.9947 0.197266Z" fill="#3C78BB"></path>
      <path id="path12" d="M39.38 0.197266C45.8498 0.197266 52.3196 0.197266 58.7894 0.197266C58.7894 2.15781 58.7894 4.14287 58.7894 6.10341C56.9268 6.10341 55.0888 6.10341 53.2263 6.10341C53.2263 10.8332 53.2263 15.5385 53.2263 20.2684C50.5306 20.2684 47.8348 20.2684 45.1391 20.2684C45.1146 15.5385 45.1391 10.8332 45.1391 6.10341H39.3555C39.38 4.14287 39.3555 2.18232 39.38 0.197266Z" fill="#3C78BB"></path>
      <path id="path14" d="M64.3569 0.220703C67.1752 0.220703 69.9689 0.220703 72.7872 0.220703C75.4094 6.91106 78.0072 13.6014 80.6049 20.2918C77.9827 20.2918 75.3604 20.2918 72.7382 20.2918C71.3658 16.3217 69.9934 12.3516 68.6211 8.38148C67.2487 12.3516 65.9008 16.3217 64.5284 20.2918C61.9307 20.2918 59.3575 20.2918 56.7598 20.2918C59.2595 13.6014 61.8082 6.91106 64.3569 0.220703Z" fill="#3C78BB"></path>
      <path id="path16" d="M102.953 0.296875C108.002 0.296875 113.05 0.296875 118.098 0.296875C118.098 1.32616 118.098 2.35545 118.098 3.36023C116.187 3.36023 114.251 3.36023 112.339 3.36023C112.315 8.99679 112.339 14.6334 112.339 20.2699C111.114 20.2699 109.889 20.2699 108.688 20.2699C108.688 14.6334 108.688 8.99679 108.688 3.36023H102.978C102.953 2.35545 102.953 1.32616 102.953 0.296875Z" fill="#3C78BB"></path>
      <path id="path18" d="M120.376 0.296875C124.248 0.321382 128.145 0.296875 132.017 0.296875C132.017 1.30165 132.017 2.28192 132.017 3.2867C129.37 3.2867 126.699 3.2867 124.052 3.2867C124.028 5.00218 124.052 6.71766 124.052 8.43313C126.576 8.45764 129.076 8.43313 131.6 8.45764C131.576 9.46242 131.625 10.4427 131.576 11.4475C129.076 11.423 126.552 11.4475 124.052 11.4475C124.052 13.3835 124.052 15.3195 124.052 17.2801C126.87 17.2801 129.664 17.2801 132.482 17.2801C132.482 18.2849 132.482 19.2896 132.482 20.2944C128.439 20.3189 124.42 20.2944 120.376 20.3189C120.376 15.001 120.376 9.70749 120.376 4.38951C120.376 2.99262 120.352 1.64475 120.376 0.296875Z" fill="#3C78BB"></path>
      <path id="path20" d="M136.232 0.321376C140.129 0.296869 144.001 0.321382 147.898 0.296875C147.898 1.30165 147.898 2.28192 147.898 3.2867C145.251 3.2867 142.58 3.2867 139.933 3.2867C139.908 5.00218 139.933 6.71766 139.933 8.43313C142.457 8.45764 144.957 8.43313 147.481 8.43313C147.481 9.4134 147.481 10.4182 147.481 11.3985C144.957 11.423 142.457 11.3985 139.933 11.423C139.933 13.359 139.933 15.295 139.933 17.2556C142.751 17.2556 145.545 17.2556 148.363 17.2556C148.363 18.2604 148.363 19.2651 148.363 20.2699C144.32 20.2944 140.301 20.2699 136.281 20.2944C136.208 13.6286 136.257 6.98723 136.232 0.321376Z" fill="#3C78BB"></path>
      <path id="path22" d="M152.114 0.296875C153.339 0.296875 154.565 0.296875 155.79 0.296875C155.79 5.93344 155.79 11.57 155.79 17.2066C158.535 17.2066 161.255 17.2066 164 17.2066C164 18.2359 164 19.2406 164 20.2699C160.03 20.2699 156.084 20.2699 152.114 20.2699C152.09 13.6286 152.09 6.96273 152.114 0.296875Z" fill="#3C78BB"></path>
    </g>
  </g>
</svg>
