<?xml version="1.0" encoding="UTF-8"?>
<svg xmlns="http://www.w3.org/2000/svg" width="249" height="121" viewBox="0 0 249 121" fill="none">
  <path d="M45.2002 33.6882C45.3391 33.4909 45.5174 33.395 45.7348 33.4005C45.945 33.364 46.1524 33.4363 46.3571 33.6173C46.5617 33.7983 46.6613 33.9975 46.6558 34.215C46.5311 35.4925 46.1571 36.705 45.5336 37.8526C44.7524 40.5866 43.7645 44.3741 42.5698 49.2152C41.4172 54.049 40.2572 58.8408 39.0899 63.5905C37.9647 68.3329 36.7087 73.4445 35.322 78.9252C33.9699 84.3566 32.6116 89.3777 31.247 93.9885C29.8751 98.5573 28.4832 102.761 27.0712 106.601C25.6593 110.44 24.2138 113.463 22.7346 115.669C21.2975 117.867 19.9338 118.991 18.6435 119.042C17.0936 119.095 15.5329 115.468 13.9612 108.163C12.3968 100.899 11.1569 92.8867 10.2417 84.1248C9.32654 75.3628 8.7227 67.5212 8.43024 60.5999C7.81956 61.572 7.09196 62.3696 6.24742 62.9926C5.74473 63.3397 5.30976 63.3286 4.9425 62.9593C4.57524 62.5901 4.52326 62.166 4.78656 61.6873C4.93836 61.3145 5.44394 60.3606 6.30333 58.8256C7.19746 57.2412 7.85207 56.0233 8.26716 55.1717C8.33664 55.0731 8.42713 54.9707 8.53865 54.8648C8.61542 54.8081 8.67118 54.7551 8.70592 54.7058C8.74796 54.6985 8.78999 54.6912 8.83203 54.6839C8.83203 54.6839 8.87407 54.6766 8.95814 54.662C9.28714 54.5616 9.57499 54.5982 9.82167 54.7719C10.0684 54.9456 10.1825 55.2289 10.1641 55.6218C10.1641 55.6218 10.1504 55.6675 10.123 55.7589C10.1303 55.8009 10.1339 55.8219 10.1339 55.8219C10.3418 57.518 10.7657 61.5801 11.4056 68.008C12.0801 74.3867 12.6636 79.7418 13.1559 84.0735C13.6903 88.3978 14.3086 93.2056 15.0109 98.4967C15.7479 103.739 16.4871 107.746 17.2284 110.519C17.9697 113.291 18.6766 114.619 19.3492 114.503C20.625 114.368 22.0501 112.475 23.6246 108.823C25.2412 105.165 26.9093 100.306 28.6288 94.2483C30.3831 88.1408 32.0561 81.9391 33.6478 75.6433C35.2742 69.2981 37.0378 62.4961 38.9386 55.2372C40.8394 47.9783 42.4556 42.1979 43.7872 37.896C43.7434 37.6438 43.7874 37.398 43.919 37.1586L45.0767 34.0994C45.0694 34.0574 45.0795 33.9907 45.1069 33.8993C45.1764 33.8006 45.2075 33.7303 45.2002 33.6882ZM49.1845 73.0753C49.2394 72.8926 49.3545 72.8076 49.53 72.8204C49.7402 72.7839 49.8983 72.8215 50.0042 72.933C50.1102 73.0445 50.1358 73.1916 50.0809 73.3744C48.927 75.9565 47.5429 78.2105 45.9286 80.1365C45.8938 80.1858 45.7339 80.3868 45.4486 80.7395C45.1982 81.0428 45.0172 81.2474 44.9057 81.3534C44.8362 81.4521 44.6762 81.6531 44.4258 81.9564C44.168 82.2177 43.966 82.426 43.8197 82.5813C43.7082 82.6873 43.5199 82.8499 43.2549 83.0691C43.0319 83.2811 42.8262 83.4684 42.6379 83.631C42.4423 83.7515 42.2257 83.8758 41.9881 84.0036C41.7505 84.1315 41.5302 84.2347 41.3273 84.3133C40.2635 84.6712 39.4036 84.5823 38.7477 84.0467C38.0423 83.4763 37.6304 82.725 37.5119 81.7929C37.3933 80.8607 37.4292 79.9451 37.6195 79.046C37.764 78.6311 37.9533 78.1002 38.1874 77.4533C38.4562 76.7571 38.8192 75.9795 39.2763 75.1206C39.7262 74.2197 40.2016 73.4659 40.7025 72.8593C41.2034 72.2526 41.7262 71.7721 42.271 71.4177C42.8577 71.056 43.4225 71.0662 43.9652 71.4483C44.444 71.7116 44.7198 72.0534 44.7928 72.4738C44.9079 72.8869 44.8511 73.3081 44.6225 73.7376C44.436 74.1597 44.1654 74.5964 43.8107 75.0478C43.4488 75.4571 43.0027 75.881 42.4726 76.3195C41.9772 76.7086 41.4992 77.0731 41.0385 77.4129C40.6126 77.7034 40.1867 77.9939 39.7608 78.2844C39.3912 79.6477 39.3397 80.8475 39.6063 81.8839C39.9149 82.9129 40.6185 83.2238 41.717 82.8165C42.6053 82.4457 43.9152 81.1357 45.6465 78.8863C47.3706 76.5949 48.5499 74.6579 49.1845 73.0753ZM41.7797 73.4517C41.4507 73.5521 41.0311 74.2529 40.5208 75.5541C40.5629 75.5468 40.5839 75.5431 40.5839 75.5431C41.6351 74.3646 42.1461 73.6912 42.1169 73.5231C42.0603 73.4463 41.9479 73.4225 41.7797 73.4517ZM66.0526 70.7308C66.261 70.4348 66.4785 70.4404 66.7051 70.7475C66.7343 70.9156 66.7141 71.049 66.6446 71.1477C66.5057 71.345 65.9956 72.1482 65.1143 73.557C64.275 74.9586 63.424 76.1674 62.561 77.1833C61.7402 78.192 61.0145 78.751 60.3839 78.8605C59.5852 78.9992 58.8515 78.3904 58.183 77.0342C57.5564 75.6706 57.0241 74.2257 56.5858 72.6995C56.1476 71.1733 55.8334 70.3618 55.6434 70.2648C55.0951 70.1002 54.1937 71.6425 52.9391 74.8917C51.6845 78.1409 50.7151 81.0375 50.0309 83.5814C49.9962 83.6307 49.9651 83.7011 49.9377 83.7925C49.945 83.8345 49.9559 83.8976 49.9705 83.9816C49.9358 84.031 49.9221 84.0767 49.9294 84.1187C49.9092 84.2521 49.8608 84.3471 49.784 84.4038L49.7949 84.4668C49.7748 84.6002 49.7017 84.6779 49.5756 84.6998C49.4074 84.729 49.295 84.7052 49.2384 84.6284C48.9715 84.5882 48.8373 84.4383 48.8355 84.1787C48.3386 76.0803 48.6903 69.5018 49.8906 64.4432C49.9107 64.3098 50.0789 64.2806 50.395 64.3556C50.7039 64.3886 50.8693 64.4682 50.8912 64.5943C51.2008 68.871 51.0725 73.7435 50.5063 79.2116C52.5642 72.3585 54.0135 68.859 54.8543 68.713C55.4428 68.6108 55.9964 69.056 56.5152 70.0485C57.0267 70.999 57.4304 72.0765 57.7261 73.281C58.0146 74.4434 58.4319 75.4753 58.9782 76.3764C59.5664 77.2703 60.2316 77.6095 60.9737 77.394C61.4288 77.2717 61.9068 76.9072 62.4078 76.3005C62.9087 75.6939 63.3603 75.0525 63.7625 74.3764C64.1648 73.7003 64.5844 72.9995 65.0214 72.274C65.4511 71.5065 65.7948 70.9921 66.0526 70.7308ZM83.0875 70.2412C83.2539 69.9525 83.4604 69.895 83.7071 70.0686C83.9465 70.2003 84.004 70.4068 83.8796 70.6883C83.5688 71.3918 83.2021 72.1484 82.7797 72.9579C82.35 73.7254 81.8125 74.6199 81.1671 75.6414C80.5564 76.6135 79.9384 77.5436 79.3131 78.4317C78.6805 79.2777 77.9776 80.0927 77.2043 80.8765C76.431 81.6604 75.6568 82.3145 74.8818 82.8388C74.1415 83.3138 73.3473 83.6033 72.4992 83.7072C71.6932 83.8039 70.9348 83.6758 70.2239 83.3228C69.4564 82.8932 68.7412 81.8914 68.0781 80.3177C68.2616 84.6163 68.6818 88.6573 69.3388 92.4407C69.3972 92.777 69.2582 92.9744 68.9219 93.0328C68.5856 93.0912 68.3883 92.9522 68.3299 92.6159C67.5232 88.4688 66.944 84.2605 66.5923 79.991C66.4954 80.1811 66.3346 80.2523 66.1098 80.2047C65.885 80.1572 65.716 80.0566 65.6027 79.9031C65.4894 79.7495 65.4812 79.5777 65.5782 79.3876C66.0499 78.6129 66.3342 78.1304 66.4311 77.9404C65.8142 67.6543 66.5634 57.6289 68.6787 47.8644C68.7537 47.5483 68.974 47.445 69.3395 47.5548C69.6977 47.6225 69.8639 47.8318 69.8382 48.1827C69.2557 53.3073 68.8059 57.8242 68.4887 61.7334C68.1715 65.6426 67.9905 69.4633 67.9456 73.1953C68.5022 69.4177 69.1938 66.4178 70.0205 64.1956C70.8892 61.9661 71.9549 61.3697 73.2175 62.4063C74.5861 63.5544 72.8906 68.5041 68.131 77.2555C68.3832 77.2117 68.5349 77.3369 68.586 77.6312C69.2359 80.3764 70.0991 81.9804 71.1754 82.4431C74.2638 83.7689 78.1238 79.9374 82.7556 70.9484C82.9147 70.6176 83.0253 70.3819 83.0875 70.2412ZM71.4984 63.3544C70.3689 63.334 69.3454 67.0411 68.4278 74.4757C72.1561 67.7656 73.1796 64.0585 71.4984 63.3544ZM100.197 64.4121C100.378 64.2074 100.574 64.2166 100.786 64.4396C100.991 64.6206 101.028 64.8308 100.896 65.0702C100.444 65.7116 100.031 66.3246 99.6562 66.9094C99.4826 67.1561 99.276 67.2136 99.0366 67.0819C98.5284 67.6465 98.1491 68.0805 97.8986 68.3838C97.6408 68.6451 97.2405 69.0827 96.6975 69.6967C96.1472 70.2686 95.7048 70.7135 95.3703 71.0314C95.0357 71.3494 94.6071 71.7486 94.0842 72.2291C93.6034 72.7023 93.1885 73.0559 92.8393 73.2897C92.4829 73.4815 92.1054 73.677 91.707 73.8761C91.3085 74.0752 90.9374 74.183 90.5938 74.1993C90.2923 74.2084 90.0218 74.1471 89.7824 74.0154C88.5782 73.3151 87.8831 72.18 87.697 70.61C85.2744 74.3652 83.4281 76.2015 82.1579 76.1189C81.5877 75.8282 81.3851 74.9106 81.55 73.3663C81.6728 71.8293 82.2435 70.1279 83.262 68.2622C84.3225 66.3891 85.4029 65.3787 86.5032 65.2309C87.7296 65.0613 88.4385 65.6527 88.6301 67.0052C88.6648 66.9559 88.6995 66.9065 88.7343 66.8572C88.7343 66.8572 88.7553 66.8536 88.7973 66.8463C88.8321 66.7969 88.8458 66.7512 88.8385 66.7092C89.0615 66.4972 89.279 66.5028 89.491 66.7258C89.7029 66.9488 89.7431 67.18 89.6114 67.4194C89.3408 67.8562 89.1086 68.2646 88.9148 68.6447C88.6678 69.4671 88.7608 70.2521 89.1938 70.9997C89.6688 71.74 90.2645 72.1779 90.9809 72.3133C91.5712 72.4706 92.4522 72.0578 93.624 71.0748C94.7884 70.0498 96.1193 68.7361 97.6165 67.1337C99.1065 65.4892 99.9666 64.582 100.197 64.4121ZM83.4277 74.0796C84.2684 73.9336 85.4412 72.5824 86.946 70.0259C86.5659 69.832 86.4061 69.535 86.4665 69.1348C86.0482 68.4712 85.2832 68.9289 84.1716 70.5077C83.0599 72.0864 82.6256 73.2012 82.8685 73.8519C82.9543 74.0968 83.1407 74.1727 83.4277 74.0796ZM134.199 39.8649C134.517 40.1995 134.508 40.5257 134.174 40.8436C134.139 40.893 134.083 40.9459 134.006 41.0026C133.93 41.0592 133.87 41.0912 133.828 41.0985C133.528 41.3671 133.22 41.3341 132.902 40.9996C132.845 40.9228 132.792 40.867 132.743 40.8323C132.735 40.7902 132.703 40.7308 132.647 40.6541C132.122 40.8751 131.483 40.8128 130.731 40.4671C128.724 40.3826 126.735 40.4031 124.765 40.5287C122.283 40.6998 119.553 41.0655 116.576 41.6259C112.59 42.3614 107.523 43.6092 101.376 45.3695C101.292 45.3841 101.212 45.4197 101.135 45.4764C101.051 45.491 100.988 45.5019 100.946 45.5092C100.984 45.9789 101.066 46.7009 101.192 47.675C103.061 63.6765 104.844 75.6873 106.54 83.7074C106.658 83.6435 106.788 83.6426 106.929 83.7048C107.062 83.7249 107.144 83.819 107.173 83.9872C107.306 85.0034 107.46 86.514 107.635 88.5189C107.659 88.9046 107.481 89.1303 107.103 89.1959C106.767 89.2543 106.545 89.098 106.437 88.727C101.982 72.0486 99.4725 57.8472 98.9089 46.1228C92.7694 47.9251 88.5162 49.1183 86.1492 49.7025C85.8202 49.803 85.1202 50.0112 84.0491 50.3271C82.9287 50.6082 82.1199 50.8136 81.6228 50.9433C81.1183 51.0309 80.4247 51.1513 79.5419 51.3046C78.6518 51.4158 77.8522 51.4248 77.1431 51.3314C76.434 51.238 75.7277 51.0359 75.0241 50.725C74.7994 50.6774 74.7318 50.5376 74.8214 50.3055C74.911 50.0734 75.0718 50.0022 75.3039 50.0918C76.5484 50.5252 78.1275 50.6408 80.0411 50.4384C81.9474 50.194 83.639 49.8353 85.1158 49.3623C86.5927 48.8894 88.4333 48.2666 90.6376 47.4941C92.8346 46.6795 94.3042 46.1645 95.0463 45.9491C97.4681 45.1821 98.721 44.7913 98.8051 44.7767C98.7309 42.1047 98.7242 39.5725 98.7851 37.1801C98.7761 36.8785 98.9433 36.7196 99.2869 36.7032C99.6726 36.6795 99.8946 36.8359 99.953 37.1722C100.177 39.2119 100.453 41.5458 100.779 44.1741C104.937 42.9324 108.431 41.9792 111.26 41.3147C116.961 39.9783 122.136 39.2313 126.786 39.0735C127.003 39.079 127.561 39.0472 128.458 38.9779C129.39 38.8594 130.137 38.7947 130.698 38.7839C131.301 38.7658 131.944 38.8491 132.625 39.0339C133.349 39.2113 133.873 39.4883 134.199 39.8649ZM157.581 14.1737C157.72 13.9764 157.898 13.8805 158.116 13.886C158.326 13.8495 158.533 13.9218 158.738 14.1028C158.943 14.2838 159.042 14.483 159.037 14.7005C158.912 15.978 158.538 17.1905 157.914 18.3381C157.133 21.0721 156.145 24.8596 154.951 29.7007C153.798 34.5345 152.638 39.3263 151.471 44.076C150.345 48.8184 149.089 53.93 147.703 59.4107C146.351 64.8421 144.992 69.8632 143.628 74.474C142.256 79.0427 140.864 83.2469 139.452 87.0864C138.04 90.9259 136.595 93.9484 135.115 96.154C133.678 98.3523 132.315 99.4768 131.024 99.5277C129.474 99.5803 127.914 95.9538 126.342 88.6484C124.778 81.3849 123.538 73.3722 122.623 64.6103C121.707 55.8483 121.103 48.0067 120.811 41.0853C120.2 42.0575 119.473 42.8551 118.628 43.4781C118.126 43.8252 117.691 43.8141 117.323 43.4448C116.956 43.0756 116.904 42.6515 117.167 42.1728C117.319 41.8 117.825 40.8461 118.684 39.3111C119.578 37.7267 120.233 36.5088 120.648 35.6572C120.717 35.5585 120.808 35.4562 120.919 35.3502C120.996 35.2936 121.052 35.2406 121.087 35.1913C121.129 35.184 121.171 35.1767 121.213 35.1694C121.213 35.1694 121.255 35.1621 121.339 35.1475C121.668 35.0471 121.956 35.0837 122.202 35.2574C122.449 35.4311 122.563 35.7144 122.545 36.1073C122.545 36.1073 122.531 36.153 122.504 36.2444C122.511 36.2864 122.515 36.3074 122.515 36.3074C122.723 38.0035 123.146 42.0656 123.786 48.4935C124.461 54.8722 125.044 60.2273 125.537 64.5589C126.071 68.8833 126.689 73.691 127.392 78.9822C128.129 84.2241 128.868 88.2314 129.609 91.0041C130.35 93.7768 131.057 95.1048 131.73 94.988C133.006 94.8531 134.431 92.96 136.005 89.3088C137.622 85.6503 139.29 80.7919 141.01 74.7338C142.764 68.6262 144.437 62.4246 146.029 56.1288C147.655 49.7836 149.419 42.9816 151.319 35.7227C153.22 28.4638 154.836 22.6834 156.168 18.3815C156.124 18.1293 156.168 17.8835 156.3 17.6441L157.457 14.5849C157.45 14.5429 157.46 14.4762 157.488 14.3848C157.557 14.2861 157.588 14.2158 157.581 14.1737ZM169.165 52.436C169.346 52.2314 169.542 52.2406 169.754 52.4636C169.959 52.6446 169.995 52.8548 169.864 53.0942C169.412 53.7355 168.999 54.3486 168.624 54.9334C168.45 55.18 168.244 55.2376 168.005 55.1059C167.496 55.6705 167.117 56.1045 166.867 56.4078C166.609 56.6691 166.208 57.1067 165.665 57.7207C165.115 58.2926 164.673 58.7375 164.338 59.0554C164.004 59.3733 163.575 59.7726 163.052 60.2531C162.571 60.7263 162.156 61.0799 161.807 61.3137C161.451 61.5055 161.073 61.701 160.675 61.9001C160.276 62.0992 159.905 62.2069 159.562 62.2233C159.26 62.2324 158.99 62.1711 158.75 62.0394C157.546 61.3391 156.851 60.204 156.665 58.634C154.242 62.3891 152.396 64.2254 151.126 64.1429C150.556 63.8521 150.353 62.9346 150.518 61.3903C150.641 59.8533 151.211 58.1519 152.23 56.2861C153.29 54.4131 154.371 53.4027 155.471 53.2549C156.697 53.0853 157.406 53.6767 157.598 55.0292C157.633 54.9799 157.667 54.9305 157.702 54.8812C157.702 54.8812 157.723 54.8775 157.765 54.8702C157.8 54.8209 157.814 54.7752 157.806 54.7332C158.029 54.5212 158.247 54.5268 158.459 54.7498C158.671 54.9728 158.711 55.204 158.579 55.4434C158.309 55.8801 158.077 56.2886 157.883 56.6687C157.636 57.491 157.729 58.276 158.162 59.0236C158.637 59.764 159.232 60.2018 159.949 60.3373C160.539 60.4946 161.42 60.0818 162.592 59.0988C163.756 58.0738 165.087 56.7601 166.584 55.1576C168.074 53.5131 168.935 52.6059 169.165 52.436ZM152.396 62.1036C153.236 61.9576 154.409 60.6063 155.914 58.0498C155.534 57.856 155.374 57.559 155.434 57.1587C155.016 56.4952 154.251 56.9528 153.139 58.5316C152.028 60.1104 151.594 61.2252 151.836 61.8759C151.922 62.1208 152.109 62.1967 152.396 62.1036ZM176.385 49.1036C176.506 49.2992 176.451 49.4819 176.221 49.6518C176.025 49.7724 175.846 49.7386 175.683 49.5503C174.947 48.5522 174.126 49.0628 173.221 51.0821C172.309 53.0594 171.689 54.726 171.361 56.0821C170.766 58.3939 170.672 60.9653 171.077 63.7964C171.113 64.0066 171.034 64.172 170.838 64.2926C170.811 64.384 170.713 64.4442 170.545 64.4734C170.419 64.4953 170.341 64.4222 170.312 64.2541C170.304 64.212 170.297 64.17 170.29 64.128C170.275 64.0439 170.247 64.0055 170.205 64.0128C170.198 63.9708 170.19 63.9287 170.183 63.8867C170.046 63.3475 169.926 62.7836 169.824 62.1951C169.308 59.47 168.969 56.6489 168.809 53.732C168.642 50.773 168.913 48.8421 169.622 47.9395C169.692 47.8408 169.86 47.8116 170.127 47.8519C170.386 47.8501 170.548 47.9086 170.612 48.0275C170.804 48.3839 170.916 48.9057 170.949 49.5929C170.974 50.2381 170.957 50.7608 170.896 51.161C170.878 51.554 170.801 52.1086 170.666 52.825C170.565 53.4921 170.505 54.0221 170.487 54.415C170.494 54.4571 170.505 54.5201 170.52 54.6042L170.479 54.7413C170.863 53.462 171.362 52.0978 171.977 50.6486C172.156 50.1845 172.426 49.7477 172.788 49.3384C173.143 48.8871 173.533 48.5162 173.959 48.2257C174.385 47.9352 174.827 47.8586 175.283 47.9958C175.733 48.0909 176.1 48.4602 176.385 49.1036ZM187.574 23.0614C187.762 22.8988 187.976 22.8833 188.215 23.015C188.455 23.1466 188.554 23.3459 188.514 23.6127C187.913 28.1341 187.018 32.7067 185.829 37.3303C185.036 51.7154 186.59 65.2815 190.493 78.0284C190.586 78.3154 190.447 78.5128 190.076 78.6205C189.754 78.763 189.543 78.6697 189.443 78.3407C186.095 67.7925 184.256 57.6971 183.924 48.0544C183.86 46.9395 183.838 45.6876 183.856 44.2986C183.293 46.042 182.691 47.8137 182.051 49.6138C182.234 49.6687 182.374 49.7308 182.473 49.8003C182.804 49.9594 182.935 50.218 182.868 50.5762C182.793 50.8924 182.58 51.0376 182.229 51.012C182.004 50.9644 181.766 50.9625 181.513 51.0063C180.114 54.6704 178.588 58.2265 176.935 61.6749C176.838 61.8649 176.685 61.9782 176.474 62.0147C176.257 62.0092 176.088 61.9086 175.967 61.713C175.279 60.4901 175.015 58.847 175.176 56.7837C175.338 54.7203 175.953 52.9029 177.023 51.3314C178.134 49.7526 179.47 49.0877 181.029 49.3366C181.696 47.4452 182.229 45.9019 182.628 44.7067C183.054 43.4202 183.49 41.9372 183.934 40.2577C184.068 37.2896 184.347 34.4048 184.77 31.6031C184.803 31.2942 184.855 30.7222 184.926 29.887C185.04 29.0445 185.141 28.3774 185.229 27.8858C185.309 27.3521 185.424 26.7692 185.574 26.1368C185.759 25.4552 186.004 24.8713 186.31 24.3852C186.65 23.8498 187.071 23.4086 187.574 23.0614ZM178.464 55.888C178.961 54.7624 179.564 53.2501 180.274 51.3514C178.89 52.1113 177.862 53.5458 177.189 55.6547C176.269 58.586 176.001 59.91 176.385 59.6269C176.81 59.3364 177.503 58.0901 178.464 55.888ZM206.917 48.6737C206.979 48.533 207.077 48.4727 207.21 48.4929C207.378 48.4637 207.494 48.5085 207.558 48.6273C207.657 48.6968 207.675 48.8019 207.613 48.9426C207.523 49.1747 207.306 49.6671 206.96 50.42C206.657 51.1656 206.363 51.8445 206.08 52.4567C205.796 53.0689 205.44 53.7588 205.01 54.5262C204.615 55.2444 204.195 55.8154 203.748 56.2393C203.344 56.6559 202.88 56.9747 202.356 57.1957C201.873 57.4095 201.364 57.3463 200.829 57.0062C200.286 56.6241 199.741 55.9824 199.195 55.0813C198.89 54.5713 198.572 53.7387 198.242 52.5835C197.911 51.4284 197.579 50.5117 197.245 49.8336C196.945 49.1061 196.61 48.7963 196.239 48.904C195.133 49.2692 194.31 52.0105 193.769 57.1277C193.222 62.2029 192.992 66.6166 193.081 70.3688C193.088 70.4108 193.032 70.4638 192.913 70.5278C192.921 70.5698 192.924 70.5908 192.924 70.5908C192.932 70.6328 192.939 70.6749 192.946 70.7169C192.975 70.8851 192.931 71.0011 192.812 71.0651C192.7 71.171 192.574 71.1929 192.433 71.1308C192.258 71.1179 192.156 71.0274 192.126 70.8593C189.033 55.287 188.299 40.7123 189.925 27.1352C190.048 26.5942 190.351 26.3467 190.836 26.3925C191.32 26.4383 191.564 26.7207 191.567 27.2398C191.527 28.5027 191.438 31.4844 191.302 36.1851C191.208 40.8784 191.164 44.2422 191.17 46.2764C191.17 48.2685 191.217 51.0319 191.311 54.5666C191.447 58.0939 191.679 61.3015 192.007 64.1893C192.105 60.015 192.575 55.8627 193.417 51.7324C194.301 47.5949 195.331 45.4239 196.508 45.2195C197.307 45.0808 198.126 46.3028 198.964 48.8855C199.932 51.9653 200.659 53.7877 201.147 54.3525C202.054 55.5809 203.181 55.3418 204.53 53.6351C204.781 53.3318 205.048 52.8741 205.331 52.2619C205.657 51.6424 205.968 50.9388 206.264 50.1512C206.602 49.3563 206.82 48.8638 206.917 48.6737ZM224.031 42.9087C224.212 42.704 224.409 42.7132 224.621 42.9362C224.825 43.1172 224.862 43.3274 224.73 43.5668C224.279 44.2082 223.865 44.8213 223.491 45.406C223.317 45.6527 223.11 45.7102 222.871 45.5786C222.363 46.1432 221.983 46.5771 221.733 46.8805C221.475 47.1417 221.075 47.5794 220.532 48.1933C219.982 48.7652 219.539 49.2101 219.205 49.528C218.87 49.846 218.441 50.2452 217.919 50.7257C217.438 51.199 217.023 51.5525 216.674 51.7864C216.317 51.9782 215.94 52.1736 215.541 52.3727C215.143 52.5718 214.772 52.6796 214.428 52.6959C214.127 52.705 213.856 52.6437 213.617 52.512C212.413 51.8118 211.717 50.6766 211.531 49.1066C209.109 52.8618 207.262 54.6981 205.992 54.6155C205.422 54.3248 205.219 53.4072 205.384 51.8629C205.507 50.3259 206.078 48.6245 207.096 46.7588C208.157 44.8857 209.237 43.8753 210.338 43.7276C211.564 43.5579 212.273 44.1493 212.464 45.5018C212.499 45.4525 212.534 45.4032 212.569 45.3538C212.569 45.3538 212.59 45.3502 212.632 45.3429C212.666 45.2935 212.68 45.2479 212.673 45.2058C212.896 44.9939 213.113 44.9994 213.325 45.2224C213.537 45.4455 213.577 45.6767 213.446 45.9161C213.175 46.3528 212.943 46.7612 212.749 47.1413C212.502 47.9637 212.595 48.7487 213.028 49.4963C213.503 50.2366 214.099 50.6745 214.815 50.8099C215.406 50.9672 216.287 50.5544 217.458 49.5715C218.623 48.5465 219.954 47.2327 221.451 45.6303C222.941 43.9858 223.801 43.0786 224.031 42.9087ZM207.262 52.5762C208.103 52.4302 209.276 51.079 210.78 48.5225C210.4 48.3287 210.24 48.0316 210.301 47.6314C209.883 46.9679 209.118 47.4255 208.006 49.0043C206.894 50.5831 206.46 51.6978 206.703 52.3485C206.789 52.5934 206.975 52.6693 207.262 52.5762ZM240.874 40.3738C241.082 40.0777 241.3 40.0833 241.526 40.3904C241.556 40.5585 241.535 40.6919 241.466 40.7906C241.327 40.988 240.817 41.7911 239.936 43.2C239.096 44.6015 238.245 45.8103 237.382 46.8262C236.562 47.8349 235.836 48.394 235.205 48.5035C234.407 48.6422 233.673 48.0334 233.004 46.6771C232.378 45.3135 231.845 43.8686 231.407 42.3424C230.969 40.8162 230.655 40.0047 230.465 39.9078C229.917 39.7431 229.015 41.2854 227.76 44.5346C226.506 47.7839 225.536 50.6804 224.852 53.2243C224.818 53.2736 224.786 53.344 224.759 53.4354C224.766 53.4774 224.777 53.5405 224.792 53.6245C224.757 53.6739 224.743 53.7196 224.751 53.7616C224.731 53.895 224.682 53.99 224.605 54.0467L224.616 54.1097C224.596 54.2432 224.523 54.3208 224.397 54.3427C224.229 54.3719 224.116 54.3481 224.06 54.2713C223.793 54.2311 223.659 54.0812 223.657 53.8216C223.16 45.7232 223.512 39.1447 224.712 34.0861C224.732 33.9527 224.9 33.9235 225.216 33.9986C225.525 34.0315 225.691 34.1111 225.713 34.2372C226.022 38.5139 225.894 43.3864 225.328 48.8545C227.386 42.0014 228.835 38.5019 229.676 38.3559C230.264 38.2537 230.818 38.6989 231.337 39.6914C231.848 40.6419 232.252 41.7194 232.547 42.9239C232.836 44.0864 233.253 45.1182 233.8 46.0193C234.388 46.9132 235.053 47.2524 235.795 47.0369C236.25 46.9146 236.728 46.5501 237.229 45.9435C237.73 45.3368 238.182 44.6954 238.584 44.0193C238.986 43.3432 239.406 42.6424 239.843 41.9169C240.272 41.1494 240.616 40.635 240.874 40.3738Z" fill="white"></path>
</svg>
